<svg width="536" height="466" viewBox="0 0 536 466" fill="none" xmlns="http://www.w3.org/2000/svg">
<path d="M252.625 36.023C252.342 36.023 252.059 35.8655 251.902 35.7396C249.291 33.126 248.724 30.6699 249.731 26.9228C249.888 26.356 250.455 26.0411 250.895 26.1985C251.461 26.356 251.776 26.9228 251.619 27.3636C250.738 30.3865 251.178 32.1184 253.192 34.1652C253.632 34.606 253.632 35.1728 253.192 35.6136C253.034 35.8655 252.751 36.023 252.625 36.023Z" fill="#E5E5E5"/>
<path d="M292.611 37.5974C292.328 37.5974 292.045 37.44 291.73 37.1566C291.447 36.7157 291.573 36.1489 292.013 35.7081C293.586 34.7005 294.31 33.4094 295.348 31.961L295.789 31.2367C296.072 30.7959 296.67 30.6699 297.236 30.9533C297.676 31.2367 297.802 31.835 297.519 32.4018L297.079 33.126C296.072 34.7005 295.065 36.3064 293.177 37.4715C293.052 37.5974 292.894 37.5974 292.611 37.5974Z" fill="#E5E5E5"/>
<path d="M295.789 38.4791C295.506 38.4791 295.223 38.3217 294.908 38.0383C294.625 37.5974 294.751 37.0306 295.191 36.5898C296.921 35.4247 297.645 34.7005 298.652 32.6852C298.935 32.2444 299.533 31.961 299.942 32.2444C300.382 32.5277 300.665 33.126 300.382 33.5354C299.218 35.9915 298.086 36.8732 296.198 38.1642C296.072 38.4791 295.946 38.4791 295.789 38.4791Z" fill="#E5E5E5"/>
<path d="M248.441 35.8656C248.158 35.8656 247.875 35.7081 247.56 35.4247C245.547 32.5278 246.113 29.6308 246.679 27.0487C246.836 26.4819 247.245 26.1671 247.843 26.3245C248.409 26.4819 248.724 26.8913 248.567 27.4896C248 30.2291 247.686 32.4018 249.133 34.4171C249.416 34.8579 249.29 35.4247 248.85 35.8656C248.85 35.7081 248.567 35.8656 248.441 35.8656Z" fill="#E5E5E5"/>
<path d="M279.461 10.1393C279.177 10.1393 279.02 9.9819 278.894 9.85595C278.454 9.57255 278.454 8.84831 278.737 8.40747C280.184 6.83304 281.631 5.79392 283.802 4.78628C284.242 4.50288 284.809 4.78628 285.092 5.22712C285.375 5.66796 285.092 6.3922 284.651 6.51816C282.638 7.39984 281.474 8.25003 280.31 9.69851C280.058 9.9819 279.775 10.1393 279.461 10.1393Z" fill="#E5E5E5"/>
<path d="M281.789 12.0286C281.506 12.0286 281.222 11.8712 281.065 11.7452C280.625 11.3044 280.625 10.7376 281.065 10.2967C282.953 8.56486 284.683 7.39979 286.854 6.23471C287.294 5.95131 287.861 6.23471 288.144 6.67555C288.427 7.11639 288.144 7.84063 287.703 7.96658C285.69 8.97422 283.96 9.98185 282.355 11.5878C282.355 11.8712 282.072 12.0286 281.789 12.0286Z" fill="#E5E5E5"/>
<path d="M211.318 291.238C211.161 291.238 211.035 291.238 210.878 291.081C208.581 289.916 207.26 287.176 206.253 285.003C206.096 284.563 205.97 284.279 205.687 283.996C205.404 283.555 205.687 282.831 206.127 282.705C206.568 282.421 207.291 282.705 207.417 283.146C207.574 283.429 207.7 283.87 207.983 284.311C208.864 286.326 209.997 288.499 211.727 289.38C212.168 289.664 212.451 290.262 212.168 290.671C212.042 291.112 211.759 291.238 211.318 291.238Z" fill="#E5E5E5"/>
<path d="M208.581 293.411C208.298 293.411 208.015 293.253 207.857 293.128C206.253 291.112 205.404 290.231 204.837 289.506C204.114 288.625 204.114 288.625 203.107 287.334L202.541 286.609C202.258 286.169 202.258 285.602 202.698 285.161C203.138 284.877 203.705 284.877 204.145 285.318L204.711 286.043C205.718 287.334 205.718 287.334 206.442 288.215C206.882 288.782 207.732 289.821 209.462 291.836C209.745 292.277 209.745 292.844 209.305 293.285C208.99 293.411 208.864 293.411 208.581 293.411Z" fill="#E5E5E5"/>
<path d="M352.826 233.866C352.543 233.866 352.386 233.709 352.103 233.583C351.379 233.016 350.939 232.575 350.655 232.292C350.089 231.725 350.089 231.725 349.208 231.41C348.768 231.252 348.327 231.126 347.635 230.969C347.069 230.812 346.754 230.245 347.069 229.678C347.226 229.111 347.793 228.796 348.359 229.111C349.082 229.395 349.523 229.552 349.806 229.552C350.97 229.993 351.096 229.993 351.977 230.843C352.26 231.126 352.7 231.567 353.267 232.008C353.707 232.292 353.707 233.016 353.424 233.457C353.267 233.74 352.984 233.866 352.826 233.866Z" fill="#E5E5E5"/>
<path d="M355.563 232.732C355.28 232.732 355.123 232.732 354.997 232.575C353.833 231.567 353.266 231.126 352.983 230.843C352.7 230.56 352.7 230.56 352.102 230.276L351.819 230.119C351.379 229.835 351.096 229.237 351.379 228.828C351.662 228.387 352.26 228.104 352.669 228.387L352.952 228.544C353.675 228.985 353.833 228.985 354.242 229.426C354.525 229.709 354.965 230.15 356.129 231.001C356.57 231.284 356.57 232.008 356.287 232.449C356.161 232.575 355.846 232.732 355.563 232.732Z" fill="#E5E5E5"/>
<path d="M382.713 77.9343C382.272 77.9343 381.832 77.4935 381.706 77.0526C381.549 76.045 381.549 75.4782 381.549 75.0374C381.549 74.4706 381.549 74.4706 381.392 73.8723L381.234 73.3055C381.077 72.7387 381.392 72.2979 381.958 72.1404C382.524 71.983 382.965 72.2979 383.122 72.8647L383.279 73.4315C383.436 74.3131 383.562 74.3131 383.562 75.0059C383.562 75.2893 383.562 75.8876 383.72 76.8952C383.72 77.336 383.311 77.7769 382.713 77.9343Z" fill="#E5E5E5"/>
<path d="M385.167 78.0603C384.727 78.0603 384.286 77.6194 384.16 77.1786C383.877 75.2893 383.877 74.4391 383.877 73.9982C383.877 73.5574 383.877 73.5574 383.594 72.9906L383.437 72.7072C383.154 72.2664 383.437 71.5421 383.877 71.4162C384.318 71.1328 384.884 71.4162 385.167 71.857L385.324 72.1404C385.765 73.0221 385.891 73.148 385.891 74.0297C385.891 74.4706 385.891 75.1948 386.174 77.0526C386.174 77.4935 385.891 78.0603 385.167 78.0603C385.324 78.0603 385.167 78.0603 385.167 78.0603Z" fill="#E5E5E5"/>
<path d="M337.536 89.4906C337.096 89.4906 336.813 89.2072 336.655 88.7664C336.089 87.1919 335.775 86.4677 335.491 86.0269C335.208 85.3026 335.051 85.1452 335.208 84.0116V83.5707C335.208 83.0039 335.649 82.5631 336.215 82.5631C336.781 82.5631 337.222 83.0039 337.222 83.5707V84.0116C337.222 84.7358 337.222 84.7358 337.379 85.1767C337.536 85.6175 337.945 86.3417 338.543 88.0736C338.7 88.6404 338.386 89.0812 337.977 89.3646C337.82 89.4906 337.662 89.4906 337.536 89.4906Z" fill="#E5E5E5"/>
<path d="M339.99 87.8847C339.707 87.8847 339.267 87.7273 339.11 87.4439C338.669 86.7197 338.386 86.2788 338.103 85.9954C337.662 85.2712 337.537 85.1137 337.379 84.2636V83.3819C337.222 82.8151 337.662 82.3742 338.103 82.2168C338.669 82.0594 339.11 82.5002 339.267 82.941L339.424 83.6653C339.581 84.2321 339.581 84.2321 339.865 84.6729C340.022 84.9563 340.431 85.3971 340.871 86.2473C341.154 86.6882 341.029 87.255 340.588 87.5384C340.399 87.7588 340.116 87.8847 339.99 87.8847Z" fill="#E5E5E5"/>
<path d="M320.328 55.3885C320.045 55.3885 319.887 55.231 319.762 55.1051C319.478 54.8217 319.478 54.2234 319.762 53.94C321.649 52.2081 320.926 51.043 319.919 49.1852C319.038 47.6108 318.188 45.8474 318.755 43.7062C318.912 43.2654 319.321 42.982 319.762 43.1394C320.202 43.2968 320.485 43.7062 320.328 44.147C319.887 45.7215 320.611 47.044 321.335 48.4925C322.341 50.3818 323.505 52.6805 320.768 55.294C320.768 55.231 320.485 55.3885 320.328 55.3885Z" fill="#E5E5E5"/>
<path d="M304.88 40.211C304.597 40.211 304.314 40.0536 304.157 39.9276C303.874 39.4868 303.999 39.0459 304.314 38.7625C307.208 36.7473 312.116 36.149 314.004 38.3217C314.287 38.6051 314.287 39.2034 313.846 39.4868C313.563 39.7702 312.966 39.7702 312.682 39.3293C311.676 38.0383 307.617 38.4476 305.321 40.0536C305.163 40.211 305.038 40.211 304.88 40.211Z" fill="#E5E5E5"/>
<path d="M286.696 59.419H286.539C284.368 59.1357 282.355 57.6872 281.065 55.5145C279.618 53.2158 279.335 50.3188 280.184 48.1461C280.908 46.2568 282.198 45.1232 283.802 44.9658C285.532 44.8083 287.263 46.1309 288.269 48.3036C288.553 48.7444 288.269 49.4687 287.829 49.5946C287.389 49.878 286.822 49.5946 286.539 49.1538C285.973 47.8627 284.809 46.9811 283.928 46.9811C282.921 46.9811 282.355 48.1461 282.198 48.8704C281.631 50.6022 281.914 52.775 282.921 54.6643C283.928 56.3961 285.375 57.4038 286.98 57.6872C287.546 57.8446 287.86 58.254 287.86 58.8523C287.546 58.9782 287.137 59.419 286.696 59.419Z" fill="#E5E5E5"/>
<path d="M287.137 54.5068C286.854 54.5068 286.697 54.3493 286.414 54.2234C285.533 53.0583 284.967 52.4915 283.677 52.334C283.236 52.334 282.953 51.8932 282.953 51.3264C282.953 50.8856 283.394 50.6022 283.96 50.6022C285.847 50.8856 286.854 51.7673 287.861 53.2157C288.144 53.6566 288.018 54.0974 287.704 54.3808C287.42 54.3493 287.263 54.5068 287.137 54.5068Z" fill="#E5E5E5"/>
<path d="M324.512 40.2109C324.229 40.2109 324.072 40.0535 323.946 39.9275C323.379 39.3607 322.058 39.3607 320.768 39.7701C320.328 39.9275 319.887 39.6127 319.761 39.2033C319.604 38.7625 319.919 38.3216 320.328 38.1957C321.901 37.6289 324.229 37.6289 325.236 38.7625C325.519 39.0459 325.519 39.6441 325.236 39.9275C324.952 40.0535 324.669 40.2109 324.512 40.2109Z" fill="#E5E5E5"/>
<path d="M289.276 48.8703C288.553 48.8703 287.703 48.7129 286.98 48.5869C286.414 48.4295 286.099 48.0201 286.256 47.4219C286.414 46.8551 286.98 46.5402 287.42 46.6976C296.072 48.5869 304.881 36.7157 311.393 28.0564C316.018 21.8531 318.471 18.6728 320.642 18.7987C321.209 18.7987 321.932 19.0821 322.53 19.9638C322.813 20.4046 322.687 20.9714 322.247 21.2548C321.806 21.5382 321.24 21.4123 320.957 20.9714C320.8 20.814 320.8 20.688 320.674 20.688C319.384 20.688 315.923 25.3168 313.029 29.2214C306.611 37.5974 298.243 48.8703 289.276 48.8703Z" fill="#E5E5E5"/>
<path d="M311.393 72.8647C304.472 72.8647 296.386 68.2359 293.492 65.3389C293.052 64.8981 293.052 64.3313 293.492 63.8904C293.932 63.4496 294.499 63.4496 294.939 63.8904C298.4 67.3542 309.946 73.274 316.175 69.6843C316.332 69.5269 316.615 69.4009 316.741 69.2435C317.181 68.8027 317.748 68.8027 318.188 69.2435C318.629 69.6843 318.629 70.2511 318.188 70.692C317.905 70.9754 317.622 71.2588 317.181 71.4162C315.577 72.4238 313.564 72.8647 311.393 72.8647Z" fill="#E5E5E5"/>
<path d="M317.464 70.9753C317.307 70.9753 317.024 70.9753 316.898 70.8179C316.458 70.5345 316.332 69.9362 316.615 69.5269C317.622 67.9524 319.069 63.8904 320.359 58.9782C320.799 57.0889 321.649 53.1843 322.53 47.5478C322.687 46.3827 322.97 45.0917 323.253 43.8007C323.694 41.1871 324.26 38.6051 324.417 36.8732C324.858 31.3942 323.536 25.7577 320.799 21.1289C320.516 20.688 320.642 20.1212 321.082 19.8378C321.523 19.5544 322.089 19.6804 322.372 20.1212C325.267 25.0335 326.714 31.1108 326.273 37.0306C326.116 38.7625 325.707 41.502 325.109 44.1156C324.826 45.4066 324.669 46.7291 324.386 47.8627C323.662 51.7673 322.813 57.1204 322.215 59.419C321.208 63.4811 319.604 68.5192 318.314 70.5345C318.157 70.8494 317.748 70.9753 317.464 70.9753Z" fill="#E5E5E5"/>
<path d="M323.663 49.4371C323.379 49.4371 323.096 49.2797 322.939 48.9963C322.656 48.5554 322.656 47.9886 323.096 47.5478C327.28 44.3674 329.168 40.9037 330.175 34.543C331.056 29.6308 331.056 24.4351 325.424 18.5153C324.858 17.9485 322.53 16.0592 313.281 9.8559L311.991 8.97422C309.694 7.39979 305.353 4.50284 303.465 3.7786C295.663 0.598248 289.748 1.88928 280.782 5.66792C274.27 8.40743 269.236 16.374 267.349 22.7347C267.191 23.3015 266.625 23.6164 266.059 23.459C265.493 23.3015 265.178 22.7347 265.335 22.168C267.349 15.3664 272.854 6.833 279.933 3.81009C287.704 0.598248 294.782 -1.85786 304.031 1.88928C306.045 2.77096 310.386 5.63643 312.84 7.3683L314.004 8.24998C321.24 13.0048 325.424 16.0592 326.431 17.2242C332.786 23.7424 332.629 29.7882 331.779 35.0153C330.615 41.8169 328.445 45.7214 323.977 49.1852C324.103 49.4371 323.788 49.4371 323.663 49.4371Z" fill="#E5E5E5"/>
<path d="M305.038 47.2959C305.195 46.1308 305.919 45.2806 306.768 45.4065C307.649 45.564 308.216 46.4142 308.058 47.5793C307.901 48.7443 307.177 49.5945 306.328 49.4686C305.604 49.4371 305.038 48.4294 305.038 47.2959Z" fill="#E5E5E5"/>
<path d="M319.321 46.981C319.478 45.816 320.202 44.9658 321.052 45.0917C321.932 45.2492 322.499 46.0994 322.341 47.2644C322.184 48.4295 321.461 49.2797 320.611 49.1538C319.762 49.1538 319.195 48.1461 319.321 46.981Z" fill="#E5E5E5"/>
<path d="M324.386 50.4762C324.103 50.4762 323.819 50.4762 323.505 50.3188C323.064 50.1613 322.781 49.752 322.781 49.3111C322.939 48.8703 323.348 48.5869 323.788 48.5869C326.682 49.1537 329.262 46.1308 330.583 43.3913C333.918 36.7472 331.873 28.7806 329.419 23.459C329.262 23.0182 329.419 22.5773 329.86 22.2939C330.3 22.1365 330.741 22.2939 331.024 22.7348C334.642 30.9848 335.082 38.3531 332.031 44.1155C330.583 47.2959 327.689 50.4762 324.386 50.4762Z" fill="#E5E5E5"/>
<path d="M294.342 47.7052C293.776 47.7052 293.461 47.2644 293.461 46.8236C293.461 46.3827 293.901 45.9419 294.342 45.9419C297.96 45.9419 302.27 43.4858 306.894 38.8569C314.13 31.6146 319.447 21.7901 319.447 19.9323C319.447 19.4914 319.73 19.0506 320.328 19.0506C320.768 19.0506 321.209 19.4914 321.209 19.9323C321.209 22.5458 315.137 32.9371 308.216 40.022C303.025 45.1232 298.4 47.7052 294.342 47.7052Z" fill="#E5E5E5"/>
<path d="M283.362 58.9782C283.079 58.9782 282.796 58.8207 282.638 58.6948C281.191 57.2463 279.02 56.6795 276.724 55.9553C274.113 55.231 271.376 54.5068 269.803 52.4915C267.191 49.4686 267.066 44.1156 266.908 39.7701C266.908 38.6051 266.751 37.5974 266.751 36.7472C266.751 36.1804 267.034 35.7396 267.632 35.5822C268.198 35.5822 268.639 35.8656 268.796 36.4638C268.953 37.3455 268.953 38.4791 268.953 39.6442C269.11 43.3913 269.236 48.6184 271.407 51.0746C272.697 52.649 275.025 53.2473 277.322 53.9715C279.775 54.6957 282.387 55.42 284.117 57.1519C284.557 57.5927 284.557 58.1595 284.117 58.6003C283.802 58.8522 283.645 58.9782 283.362 58.9782Z" fill="#E5E5E5"/>
<path d="M315.703 62.4734C314.256 62.4734 312.966 62.0326 311.362 61.4658C310.921 61.3083 310.795 60.899 310.921 60.4581C311.079 60.0173 311.488 59.8913 311.928 60.0173C314.539 61.0249 315.986 61.1824 318.44 60.3007C318.881 60.1433 319.321 60.3007 319.447 60.7415C319.604 61.1824 319.447 61.6232 319.006 61.7492C317.748 62.316 316.741 62.4734 315.703 62.4734Z" fill="#E5E5E5"/>
<path d="M299.973 88.3255H299.815C299.249 88.1681 298.935 87.7587 298.935 87.1604C299.815 82.4057 302.552 75.7301 306.737 71.6995C307.177 71.2587 307.743 71.4161 308.184 71.6995C308.624 72.1404 308.467 72.7072 308.184 73.148C304.283 76.7692 301.672 82.9725 300.948 87.4438C300.854 87.8847 300.413 88.3255 299.973 88.3255Z" fill="#E5E5E5"/>
<path d="M267.475 75.1633C267.034 75.1633 266.594 74.7225 266.468 74.2816C266.468 73.7148 266.751 73.274 267.349 73.1165C273.861 72.3923 278.769 62.0011 279.775 56.4906C279.933 55.9238 280.342 55.6089 280.939 55.6089C281.506 55.7663 281.82 56.1757 281.82 56.774C280.782 62.5994 275.434 74.3131 267.475 75.1633C267.632 75.1633 267.475 75.1633 267.475 75.1633Z" fill="#E5E5E5"/>
<path d="M214.496 193.844C214.338 193.844 214.055 193.844 213.929 193.686C213.489 193.403 213.363 192.805 213.646 192.238C215.66 189.215 218.114 186.444 220.568 183.705C225.758 177.785 231.264 171.55 232.271 163.457C233.844 151.303 233.277 138.298 232.711 125.577C232.554 123.687 232.554 121.829 232.428 120.098C232.271 118.082 232.145 116.193 231.988 114.02C231.421 107.219 230.824 100.291 233.277 93.9306C237.336 83.2244 252.625 78.1863 260.868 75.5727C262.756 75.0059 264.329 74.4076 265.052 74.1242C265.493 73.8408 266.216 74.1242 266.342 74.5651C266.625 75.0059 266.342 75.7302 265.902 75.8561C265.021 76.2969 263.448 76.8637 261.434 77.4305C253.506 80.0441 238.752 84.7989 235.008 94.6233C232.711 100.543 233.277 107.345 233.844 113.831C234.001 115.847 234.127 118.019 234.284 119.909C234.441 121.798 234.441 123.53 234.567 125.388C235.134 138.109 235.731 151.271 234.127 163.552C232.963 172.369 227.331 178.729 221.857 184.807C219.561 187.546 217.107 190.286 215.062 193.183C215.219 193.686 214.936 193.844 214.496 193.844Z" fill="#E5E5E5"/>
<path d="M288.71 125.608C288.427 125.608 288.27 125.451 288.144 125.325C280.499 119.121 273.263 110.305 267.915 103.503C267.475 102.936 266.751 102.212 266.027 101.488C264.014 99.3151 261.56 96.859 261.277 94.5603C261.277 93.9935 261.56 93.5527 262.158 93.3953C262.724 93.3953 263.164 93.6787 263.322 94.2769C263.479 96.0088 265.618 98.1815 267.506 100.071C268.23 100.953 269.079 101.645 269.519 102.244C274.868 109.045 281.946 117.704 289.434 123.782C289.874 124.065 289.874 124.789 289.591 125.23C289.276 125.482 288.993 125.608 288.71 125.608Z" fill="#E5E5E5"/>
<path d="M284.966 162.324C284.809 162.324 284.809 162.324 284.683 162.324C279.775 160.749 275.717 157.254 271.973 153.948C271.092 153.224 270.243 152.373 269.236 151.649C261.308 145.005 254.513 137.353 247.875 129.953C243.816 125.482 239.632 120.696 235.165 116.382C234.724 115.941 234.724 115.374 235.165 114.933C235.605 114.493 236.172 114.493 236.612 114.933C241.079 119.405 245.264 124.034 249.322 128.662C255.834 136.031 262.598 143.557 270.4 150.043C271.281 150.767 272.288 151.618 273.137 152.342C276.881 155.68 280.499 158.86 285.124 160.277C285.69 160.434 286.004 161.001 285.69 161.568C285.816 162.04 285.407 162.324 284.966 162.324Z" fill="#E5E5E5"/>
<path d="M276.157 131.843H276C275.434 131.843 275.119 131.276 275.119 130.678C275.119 130.111 275.685 129.796 276.126 129.796C276.692 129.796 279.461 128.631 281.915 127.623C286.256 125.891 291.447 123.561 295.788 122.554C317.15 117.201 335.774 108.384 349.648 97.2683C350.089 96.9849 350.655 96.9849 351.095 97.4258C351.379 97.8666 351.379 98.4334 350.938 98.8742C336.781 110.147 317.874 119.121 296.197 124.6C292.013 125.608 286.822 127.781 282.638 129.67C278.611 131.245 277.007 131.843 276.157 131.843Z" fill="#E5E5E5"/>
<path d="M285.407 162.198C284.967 162.198 284.526 161.914 284.4 161.316C284.243 160.749 284.683 160.309 285.281 160.151C292.077 159.269 346.66 118.24 362.673 103.786C363.114 103.346 363.68 103.503 364.12 103.786C364.561 104.227 364.404 104.794 364.12 105.235C348.359 119.405 293.335 161.033 285.407 162.198C285.533 162.198 285.533 162.198 285.407 162.198Z" fill="#E5E5E5"/>
<path d="M363.648 105.676C363.491 105.676 363.365 105.676 363.208 105.518C362.767 105.235 362.484 104.637 362.767 104.227C363.208 103.503 363.931 102.779 364.655 102.212C365.221 101.771 365.819 101.204 365.945 100.764C367.235 98.7483 368.116 96.0088 368.839 92.3876C369.28 90.0889 368.839 87.7588 368.399 85.3027C367.958 82.6891 367.518 79.8236 368.116 77.0526C368.273 76.4859 368.682 76.171 369.28 76.3284C369.846 76.4859 370.161 76.8952 370.003 77.4935C369.563 79.9496 369.846 82.4057 370.287 85.0193C370.727 87.4754 371.167 90.0889 370.727 92.8284C370.003 96.733 368.997 99.7559 367.549 101.929C367.109 102.653 366.385 103.22 365.819 103.818C365.253 104.259 364.655 104.826 364.529 105.266C364.372 105.392 364.089 105.676 363.648 105.676Z" fill="#E5E5E5"/>
<path d="M348.359 99.5984C347.793 99.5984 347.352 99.1576 347.352 98.5908C347.195 93.836 346.345 90.7816 344.615 86.5937C344.332 86.0269 344.049 85.3026 343.608 84.5784C342.727 83.004 341.721 81.2406 341.721 79.6662C341.721 76.7692 344.458 73.148 346.628 70.2826C347.352 69.4009 347.918 68.5507 348.516 67.8264C348.799 67.3856 349.397 67.2596 349.806 67.543C350.246 67.8264 350.372 68.4247 350.089 68.8341C349.649 69.5583 348.925 70.4085 348.201 71.4476C346.314 73.9037 343.734 77.3675 343.734 79.5402C343.734 80.7053 344.615 82.1538 345.307 83.6022C345.748 84.3265 346.188 85.0507 346.471 85.775C348.201 90.1204 349.208 93.4267 349.365 98.4963C349.365 99.1576 348.925 99.5984 348.359 99.5984Z" fill="#E5E5E5"/>
<path d="M340.273 104.952C340.116 104.952 339.99 104.952 339.833 104.794C336.939 103.346 334.485 101.33 332.188 99.441C330.3 97.9926 328.444 96.4181 326.399 95.253C323.662 93.6786 319.478 91.7893 315.294 90.0574C307.051 86.5937 302.018 84.421 301.294 81.9648C301.137 81.3981 301.452 80.9572 301.86 80.6738C302.427 80.5164 302.867 80.8313 303.15 81.2406C303.717 82.815 310.795 85.8694 316.143 88.1681C320.328 89.9 324.669 91.7893 327.406 93.5212C329.577 94.8122 331.59 96.4181 333.478 97.8666C335.932 99.7559 338.103 101.614 340.84 102.936C341.28 103.22 341.563 103.818 341.28 104.227C340.997 104.794 340.556 104.952 340.273 104.952Z" fill="#E5E5E5"/>
<path d="M388.942 165.221C388.219 165.221 387.652 165.221 386.929 165.063C375.1 163.898 353.707 150.767 342.318 141.793C339.424 139.495 332.503 134.141 327.437 134.551C326.871 134.551 326.431 134.11 326.431 133.669C326.431 133.102 326.871 132.662 327.312 132.662C332.503 132.221 338.417 136.283 343.639 140.313C354.462 148.847 375.981 162.009 387.243 163.142C391.144 163.583 393.881 162.859 395.486 160.97C397.373 158.955 397.782 155.491 396.933 150.705C394.762 138.55 386.96 126.71 380.763 117.169C377.428 112.099 374.565 107.786 373.244 104.448C373.086 103.881 373.243 103.283 373.81 103.157C374.25 102.999 374.817 103.157 375.1 103.723C376.39 106.904 379.158 111.249 382.461 116.161C388.816 125.86 396.744 137.826 398.915 150.421C399.922 155.774 399.198 159.805 396.902 162.418C394.983 164.339 392.403 165.221 388.942 165.221Z" fill="#E5E5E5"/>
<path d="M373.338 151.649C373.055 151.649 372.772 151.492 372.457 151.208C369.563 147.02 369.28 141.51 368.997 136.598C368.997 135.59 368.839 134.708 368.839 133.858C368.399 127.655 361.761 109.864 360.188 108.415C359.747 108.132 359.747 107.408 360.03 106.967C360.314 106.526 361.037 106.526 361.478 106.809C363.774 108.825 370.444 127.623 370.853 133.543C370.853 134.425 371.01 135.433 371.01 136.283C371.293 140.912 371.576 146.107 374.03 149.854C374.313 150.295 374.188 150.862 373.747 151.303C373.779 151.492 373.621 151.649 373.338 151.649Z" fill="#E5E5E5"/>
<path d="M368.556 129.072C368.399 129.072 368.273 129.072 368.116 128.914C362.484 126.616 358.583 122.837 353.518 118.082C352.637 117.358 351.788 116.508 350.907 115.626C350.467 115.185 350.467 114.619 350.907 114.178C351.347 113.737 351.914 113.737 352.354 114.178C353.235 115.059 354.084 115.91 354.965 116.634C360.03 121.389 363.617 124.884 368.965 127.025C369.531 127.183 369.689 127.749 369.531 128.316C369.28 128.788 368.997 129.072 368.556 129.072Z" fill="#E5E5E5"/>
<path d="M373.904 105.109C373.464 105.109 373.023 104.826 372.898 104.385C372.614 103.377 373.338 99.4725 375.509 88.7664C376.075 86.1529 376.515 83.8542 376.799 82.4057C376.956 81.8389 376.956 81.3981 377.082 80.8313C377.522 78.6586 378.088 76.3599 377.082 74.4706C375.194 70.4086 373.181 68.2673 371.01 67.5431C369.405 67.1023 367.832 67.3856 365.945 68.5507C365.662 68.7082 365.064 68.9916 364.498 69.275C363.334 69.8418 360.03 71.2902 359.59 72.1719C359.747 72.6128 359.873 72.8962 360.156 72.8962C361.037 73.337 363.051 72.6128 364.781 72.0145C366.511 71.4477 367.958 70.8494 368.965 71.1328C373.432 72.4238 372.3 78.2177 371.419 81.6815C371.262 82.4057 371.136 82.9725 370.978 83.5708C370.821 84.1376 370.412 84.4525 369.814 84.4525C369.248 84.295 368.934 83.8857 368.934 83.2874C369.091 82.7206 369.217 81.9964 369.374 81.2721C370.255 77.3675 370.821 73.7463 368.21 73.0221C367.77 72.8647 366.322 73.463 365.19 73.7463C363.019 74.4706 360.722 75.3208 358.992 74.4706C358.269 74.0297 357.702 73.3055 357.419 72.2979C356.979 70.4086 359.716 68.9601 363.334 67.2282C363.9 66.9448 364.498 66.7874 364.624 66.6614C366.92 65.2129 369.248 64.9295 371.262 65.4963C373.999 66.378 376.327 68.8341 378.497 73.4315C379.661 76.045 379.064 78.6271 378.655 81.0832C378.497 81.65 378.372 82.0908 378.372 82.6576C378.088 84.1061 377.648 86.4048 377.082 89.0183C376.075 94.088 374.345 102.59 374.471 103.629C374.628 104.196 374.313 104.637 373.904 104.794C374.062 105.109 373.904 105.109 373.904 105.109Z" fill="#E5E5E5"/>
<path d="M355.846 74.5965C355.563 74.5965 355.28 74.5965 354.965 74.439C354.242 74.1556 353.959 73.4314 354.085 72.7072C354.368 70.2511 357.419 67.5116 359.873 65.3388L360.44 64.898C362.893 62.8827 367.078 59.2615 370.255 60.2692C371.702 60.71 372.709 61.8436 373.275 63.7329L373.433 64.2997C373.716 65.024 373.999 65.8741 374.156 66.7558C374.314 67.3226 373.873 67.7635 373.433 67.9209C372.866 68.0783 372.426 67.6375 372.269 67.1967C372.111 66.4724 371.828 65.7482 371.702 65.024L371.545 64.4572C371.105 63.2921 370.664 62.5678 369.972 62.2844C367.801 61.7177 363.9 64.898 361.887 66.4724L361.32 66.9133C358.426 69.3694 356.696 71.2587 356.255 72.7072C356.696 72.5497 357.419 72.2663 357.545 72.1404C357.986 71.6995 358.552 71.6995 358.992 72.1404C359.433 72.5812 359.433 73.148 358.992 73.5889C358.615 73.8722 357.01 74.5965 355.846 74.5965Z" fill="#E5E5E5"/>
<path d="M353.392 74.0298C353.109 74.0298 352.826 74.0298 352.669 73.8723C352.228 73.7149 351.662 73.3055 351.222 72.4238C350.781 71.4162 351.505 70.1252 352.669 68.0784C352.826 67.6376 353.109 67.3542 353.109 67.1967C354.273 64.4572 357.01 62.442 359.464 60.6786C360.031 60.2377 360.471 59.9544 360.911 59.671C361.195 59.5135 361.352 59.2301 361.635 59.1042C362.359 58.3799 363.208 57.6557 364.246 57.3723C365.819 57.0889 367.581 59.1042 368.305 59.9858C368.588 60.4267 368.588 60.9935 368.147 61.4343C367.707 61.7177 367.141 61.7177 366.7 61.2769C365.977 60.2692 364.97 59.3876 364.687 59.3876C364.246 59.545 363.523 60.1118 362.956 60.6786C362.673 60.962 362.39 61.2454 362.075 61.4028C361.635 61.6862 361.069 62.1271 360.628 62.5679C358.458 64.1423 355.878 65.9057 354.997 68.2044C354.84 68.3618 354.714 68.7712 354.431 69.212C354.147 69.7788 353.267 71.2273 353.141 71.8256C353.298 71.983 353.298 71.983 353.298 71.983C353.455 71.983 353.739 71.983 354.022 71.8256C354.462 71.5422 355.028 71.6681 355.312 72.2664C355.595 72.7072 355.469 73.274 354.871 73.5574C354.431 73.8723 353.99 74.0298 353.392 74.0298Z" fill="#E5E5E5"/>
<path d="M350.372 73.0221C350.089 73.0221 349.648 73.0221 349.365 72.7387C348.925 72.4553 348.642 72.0144 348.642 71.5736C348.484 68.8341 351.253 63.3236 354.713 61.0249C356.884 59.5764 358.457 60.0173 359.464 60.4581C359.904 60.7415 360.188 61.3398 359.904 61.7492C359.621 62.19 359.024 62.4734 358.615 62.19C357.734 61.7492 356.884 61.9066 355.878 62.6308C353.14 64.3627 350.97 68.8341 350.687 71.0068H350.844C351.284 70.8494 351.851 71.0068 352.134 71.5736C352.291 72.0144 352.134 72.7387 351.567 72.8646C351.536 72.7072 350.938 73.0221 350.372 73.0221Z" fill="#E5E5E5"/>
<path d="M264.297 98.4334C263.856 98.4334 263.573 98.276 263.416 97.8666C262.692 96.2922 261.969 94.6863 261.245 92.9544C259.232 88.0422 257.187 82.8466 252.72 80.6739C252.279 80.3905 251.996 79.7922 252.279 79.3828C252.562 78.942 253.16 78.6586 253.569 78.942C258.76 81.5555 261.088 87.3179 262.944 92.2302C263.668 93.962 264.234 95.568 264.958 96.9849C265.241 97.4258 264.958 98.15 264.517 98.276C264.612 98.3075 264.454 98.4334 264.297 98.4334Z" fill="#E5E5E5"/>
<path d="M321.051 115.658C320.485 115.658 320.045 115.091 320.045 114.65C320.328 111.029 319.321 94.5603 318.472 91.5374C318.314 90.9706 318.629 90.5298 319.195 90.3724C319.761 90.2149 320.202 90.5298 320.359 91.0966C321.24 94.4344 322.247 111.186 321.932 114.933C322.058 115.217 321.649 115.658 321.051 115.658Z" fill="#E5E5E5"/>
<path d="M286.256 222.876C286.099 222.876 285.973 222.876 285.816 222.719C285.375 222.436 285.249 221.837 285.533 221.428C287.703 217.681 288.867 213.493 290 208.99C290.881 205.526 291.73 202.062 293.177 198.725C296.921 190.191 302.144 183.547 307.177 177.029C311.802 170.952 316.269 165.315 319.006 158.829C321.303 153.035 321.177 148.721 321.02 143.084C321.02 141.636 320.862 140.061 320.862 138.329C320.862 137.763 321.303 137.322 321.869 137.322C322.435 137.322 322.876 137.763 322.876 138.329C322.876 139.904 322.876 141.51 323.033 142.958C323.19 148.595 323.474 153.507 320.862 159.584C318.125 166.386 313.501 172.148 308.719 178.226C303.811 184.586 298.62 191.23 295.002 199.48C293.555 202.661 292.705 206.124 291.982 209.462C290.818 213.934 289.685 218.437 287.357 222.467C286.98 222.75 286.539 222.876 286.256 222.876Z" fill="#E5E5E5"/>
<path d="M290.598 190.79C272.099 190.79 254.356 186.035 232.271 168.244C231.83 167.96 231.83 167.236 232.113 166.795C232.397 166.354 233.12 166.354 233.561 166.638C258.383 186.57 277.448 189.75 298.526 188.459C299.092 188.459 299.533 188.9 299.533 189.341C299.533 189.908 299.092 190.349 298.652 190.349C295.789 190.789 293.178 190.79 290.598 190.79Z" fill="#E5E5E5"/>
<path d="M281.789 215.949C247.56 215.949 223.304 188.774 220.851 184.586C220.567 184.145 220.693 183.579 221.291 183.295C221.731 183.012 222.298 183.138 222.581 183.736C225.035 188.081 251.744 217.712 288.71 213.65C289.276 213.65 289.717 213.934 289.874 214.532C289.874 215.099 289.591 215.54 288.993 215.697C286.539 215.791 284.243 215.949 281.789 215.949Z" fill="#E5E5E5"/>
<path d="M273.703 225.207C260.836 225.207 240.198 219.727 214.495 193.277C214.055 192.836 214.055 192.269 214.495 191.829C214.936 191.388 215.502 191.388 215.943 191.829C253.191 230.119 281.631 224.199 287.137 220.578C287.577 220.294 288.144 220.42 288.427 220.861C288.71 221.302 288.584 221.869 288.144 222.152C288.144 222.467 282.953 225.207 273.703 225.207Z" fill="#E5E5E5"/>
<path d="M211.161 278.233C211.003 278.233 210.877 278.233 210.72 278.233C209.556 277.793 198.891 265.355 192.536 250.775C186.748 237.613 185.615 226.34 189.359 217.397C193.826 206.565 208.549 193.246 213.489 190.947C213.929 190.664 214.653 190.947 214.779 191.388C215.062 191.829 214.779 192.553 214.338 192.679C210.437 194.568 195.714 207.416 191.246 218.122C181.871 241.108 209.588 274.927 211.758 276.376C212.325 276.533 212.482 277.1 212.325 277.667C212.042 278.107 211.601 278.233 211.161 278.233Z" fill="#E5E5E5"/>
<path d="M243.816 307.581C243.376 307.581 242.936 307.14 242.81 306.699C242.369 302.795 232.994 296.15 228.37 293.694C227.929 293.411 227.646 292.813 227.929 292.403C228.212 291.962 228.81 291.679 229.219 291.962C232.963 293.852 244.1 301.22 244.666 306.416C244.949 307.014 244.54 307.455 243.816 307.581C243.942 307.581 243.942 307.581 243.816 307.581Z" fill="#E5E5E5"/>
<path d="M243.376 387.814C237.587 387.814 228.496 386.523 224.752 384.067C223.305 383.185 222.738 382.051 222.738 380.886C223.021 376.541 226.797 364.26 231.107 349.964C237.304 329.434 245.106 303.865 243.659 298.071C243.502 297.504 243.817 297.064 244.383 296.906C244.949 296.749 245.39 297.064 245.547 297.63C247.12 303.834 239.632 328.71 232.994 350.531C228.81 364.103 224.909 376.982 224.626 381.012C224.626 381.453 225.349 382.02 225.79 382.303C230.415 385.2 244.855 386.365 246.742 385.326C248.913 383.437 284.589 317.405 286.445 299.898C287.609 289.349 285.155 282.705 267.663 262.174C267.38 261.733 267.38 261.167 267.821 260.726C268.261 260.442 268.827 260.442 269.268 260.883C286.005 280.69 289.78 288.341 288.459 300.181C286.728 316.209 251.493 385.011 247.749 387.058C246.994 387.656 245.39 387.814 243.376 387.814Z" fill="#E5E5E5"/>
<path d="M323.222 230.119C323.065 230.119 322.939 230.119 322.781 229.961C315.262 226.34 306.045 225.049 297.078 223.758C293.461 223.191 290 222.75 286.697 222.184C286.13 222.026 285.816 221.617 285.973 221.019C286.13 220.452 286.539 220.137 287.137 220.294C290.472 220.861 293.775 221.459 297.519 221.869C306.611 223.16 316.018 224.482 323.788 228.23C324.229 228.513 324.512 229.111 324.229 229.521C323.945 229.961 323.662 230.119 323.222 230.119Z" fill="#E5E5E5"/>
<path d="M338.826 366.685C333.478 366.685 326.557 364.953 324.103 363.945C322.089 363.221 320.359 362.371 320.768 360.922C326.399 344.737 331.307 324.49 333.321 315.107C335.491 305.282 338.071 293.128 344.143 284.311C344.426 283.87 345.024 283.744 345.59 284.027C346.03 284.311 346.156 284.909 345.873 285.476C339.959 293.852 337.347 305.849 335.334 315.547C333.321 324.931 328.413 345.021 322.907 361.206C324.795 362.497 336.058 365.394 341.406 364.544C342.57 364.386 343.293 363.977 343.419 363.536C346.754 355.003 352.794 345.462 357.576 337.652C358.583 336.204 359.464 334.755 360.313 333.307C364.057 327.387 368.116 321.467 372.142 315.957C377.208 308.714 382.524 301.346 386.866 293.568C390.924 286.326 395.392 276.816 392.78 268C388.879 254.554 368.525 246.745 356.381 242.116C353.487 240.951 351.033 240.101 349.302 239.219C348.862 238.936 348.579 238.337 348.862 237.928C349.145 237.487 349.743 237.204 350.152 237.487C351.725 238.211 354.21 239.219 357.073 240.227C369.626 244.981 390.578 252.948 394.605 267.401C397.342 276.942 392.717 286.924 388.407 294.576C383.94 302.385 378.718 309.911 373.527 317.122C369.626 322.758 365.441 328.552 361.823 334.472C360.943 335.763 360.093 337.369 359.086 338.817C354.336 346.469 348.264 356.01 345.087 364.26C344.583 366.118 342.004 366.685 338.826 366.685Z" fill="#E5E5E5"/>
<path d="M354.273 285.035C333.761 285.035 314.287 280.28 295.348 275.777C293.775 275.336 291.888 275.053 289.874 274.77C284.683 273.888 278.769 272.88 275.277 270.582C274.836 270.298 274.71 269.7 274.993 269.133C275.277 268.692 275.874 268.566 276.441 268.85C279.461 271.023 285.092 271.873 290.157 272.754C292.171 273.038 294.216 273.479 295.789 273.762C315.86 278.674 336.498 283.586 358.457 282.862C359.024 282.862 359.464 283.303 359.464 283.87C359.464 284.437 359.024 284.878 358.457 284.878C357.167 285.035 355.72 285.035 354.273 285.035Z" fill="#E5E5E5"/>
<path d="M258.665 446.634C257.785 446.634 256.652 446.477 255.645 446.194C255.079 446.036 254.764 445.469 254.922 445.029C255.079 444.462 255.645 444.147 256.086 444.304C258.98 445.029 260.553 444.462 260.71 444.021C260.868 443.863 260.553 443.297 259.42 442.446C258.697 442.006 257.973 441.155 257.25 440.431C256.526 439.707 255.803 438.857 255.236 438.542C254.072 437.975 252.94 437.534 251.618 436.967C245.704 434.354 238.908 431.614 235.731 425.128C230.98 415.744 236.171 402.015 237.902 397.953C238.908 395.497 240.796 391.876 242.086 389.294C242.652 388.286 243.093 387.404 243.376 386.838C243.659 386.397 244.257 386.113 244.666 386.397C245.106 386.68 245.389 387.278 245.106 387.688C244.823 388.255 244.383 389.136 243.816 390.301C242.526 392.915 240.639 396.379 239.632 398.835C238.059 402.582 233.12 415.744 237.461 424.278C240.356 430.071 246.427 432.654 252.342 435.11C253.632 435.676 254.796 436.117 255.96 436.684C257.124 437.125 257.847 438.133 258.697 439.14C259.263 439.864 259.861 440.431 260.427 440.715C263.164 442.446 262.724 444.178 262.598 444.777C262.158 445.91 260.71 446.634 258.665 446.634Z" fill="#E5E5E5"/>
<path d="M238.908 450.098C235.007 450.098 231.106 447.075 227.929 444.745C227.205 444.178 226.639 443.738 226.041 443.297C224.594 442.289 222.864 441.848 220.976 441.281C218.365 440.557 215.785 439.833 213.74 437.534C209.996 433.346 212.01 429.725 213.74 426.828C213.897 426.545 214.181 426.104 214.464 425.663C216.037 423.05 217.924 419.869 218.648 415.681C218.648 415.524 218.805 414.674 218.931 413.225C219.655 406.707 221.825 389.231 223.115 382.87C223.273 382.303 223.682 381.988 224.279 382.146C224.846 382.303 225.16 382.713 225.003 383.311C223.713 389.672 221.668 407.022 220.945 413.508C220.787 414.957 220.661 415.807 220.661 415.965C219.938 420.436 217.767 424.057 216.194 426.671C215.911 427.112 215.754 427.395 215.47 427.836C213.583 431.174 212.576 433.315 215.187 436.212C216.918 438.101 219.088 438.825 221.542 439.392C223.43 439.959 225.443 440.4 227.174 441.691C227.74 442.132 228.464 442.573 229.061 443.139C232.679 445.879 237.713 449.657 241.205 447.485C241.645 447.201 242.212 447.327 242.495 447.768C242.778 448.209 242.652 448.776 242.212 449.059C241.205 449.815 240.041 450.098 238.908 450.098Z" fill="#E5E5E5"/>
<path d="M242.212 448.65C242.054 448.65 242.054 448.65 241.929 448.65C241.488 448.492 241.205 448.209 241.205 447.768C240.765 447.327 239.632 446.603 238.908 446.194C238.027 445.753 237.744 445.469 237.461 445.186C237.021 444.745 237.021 444.178 237.461 443.737C237.902 443.297 238.468 443.297 238.908 443.737C239.066 443.895 239.632 444.178 239.915 444.462C242.086 445.753 243.376 446.634 243.093 447.8C243.093 448.366 242.652 448.65 242.212 448.65Z" fill="#E5E5E5"/>
<path d="M244.54 450.098C243.659 450.098 242.652 449.815 242.086 449.374C241.646 449.091 241.646 448.366 241.929 447.926C242.212 447.485 242.936 447.485 243.376 447.768C243.659 448.052 244.949 448.209 245.83 447.768C245.83 447.768 246.113 447.611 246.113 447.485C246.113 446.76 244.509 445.312 243.816 444.588C243.376 444.147 243.093 443.863 242.81 443.58C242.369 443.139 242.527 442.572 242.967 442.132C243.407 441.691 243.974 441.848 244.414 442.289C244.571 442.572 244.98 442.856 245.295 443.171C246.585 444.462 248.189 445.91 248.315 447.516C248.315 448.398 247.875 449.091 246.868 449.531C245.956 449.941 245.264 450.098 244.54 450.098Z" fill="#E5E5E5"/>
<path d="M250.014 449.531C249.857 449.531 249.731 449.531 249.448 449.531C248.724 449.531 248.284 449.374 247.56 449.248C246.994 449.091 246.679 448.524 246.837 448.083C246.994 447.516 247.56 447.201 248.001 447.359C248.567 447.516 248.882 447.516 249.574 447.642C249.857 447.642 250.14 447.642 250.297 447.642C250.014 446.76 248.284 444.745 247.56 444.178C246.679 443.171 246.396 442.887 246.27 442.446C246.113 441.88 246.553 441.439 246.994 441.281C247.434 441.124 247.875 441.439 248.158 441.848C248.315 442.006 248.724 442.415 249.039 442.856C251.21 445.312 252.783 447.201 252.059 448.65C251.744 449.217 251.021 449.531 250.014 449.531Z" fill="#E5E5E5"/>
<path d="M253.191 449.657C252.751 449.657 252.185 449.657 251.618 449.374C251.052 449.217 250.738 448.65 250.895 448.209C251.052 447.642 251.618 447.327 252.059 447.485C252.783 447.642 253.223 447.642 254.072 447.642C255.236 447.485 255.362 447.201 255.362 447.201C255.362 446.76 253.915 445.312 253.191 444.588C251.902 443.297 251.178 442.572 251.021 441.691C250.863 441.124 251.304 440.683 251.744 440.526C252.311 440.368 252.751 440.809 252.908 441.25C253.066 441.533 253.915 442.541 254.481 443.139C256.054 444.714 257.659 446.32 257.093 447.894C256.652 449.343 254.796 449.468 254.072 449.626C253.915 449.531 253.475 449.657 253.191 449.657Z" fill="#E5E5E5"/>
<path d="M349.931 417.854C347.32 417.854 344.74 417.696 342.412 417.13C340.399 416.689 338.511 415.965 336.781 415.24C333.761 414.075 330.709 412.942 327.406 413.068C326.116 413.068 324.511 413.634 322.781 414.075C318.156 415.366 312.399 416.972 309.348 412.501C306.611 408.754 309.064 403.527 310.921 399.779C311.204 399.213 311.487 398.614 311.644 398.048C317.433 384.602 320.736 373.329 321.9 362.497C321.9 361.93 322.466 361.615 323.064 361.615C323.631 361.615 323.945 362.182 323.945 362.78C322.655 373.896 319.32 385.326 313.563 398.929C313.28 399.496 312.997 400.094 312.682 400.661C311.109 403.999 308.939 408.596 310.952 411.367C313.249 414.705 318.031 413.257 322.215 412.091C324.102 411.525 325.833 411.084 327.28 411.084C331.181 410.926 334.358 412.092 337.536 413.383C339.266 414.107 340.997 414.674 342.884 415.114C346.062 415.839 349.805 415.681 353.423 415.681C355.437 415.681 357.607 415.524 359.495 415.681C360.061 415.681 361.666 415.524 362.515 415.24C362.515 414.957 362.673 414.516 362.798 414.359C363.239 414.075 363.805 414.075 364.088 414.516C364.655 415.24 364.529 415.965 364.371 416.091C363.648 417.696 359.464 417.696 359.306 417.696C357.419 417.539 355.405 417.696 353.392 417.696C352.385 417.854 351.095 417.854 349.931 417.854Z" fill="#E5E5E5"/>
<path d="M329.734 404.723C329.451 404.723 329.294 404.723 329.168 404.566C328.727 404.282 328.727 403.558 329.01 403.117C330.458 401.228 330.898 398.362 331.307 395.591C331.464 394.584 331.59 393.702 331.747 392.852C332.628 388.506 337.096 369.865 340.399 365.394C340.682 364.953 341.28 364.827 341.846 365.11C342.287 365.394 342.412 365.992 342.129 366.559C339.518 370.18 335.334 386.082 333.761 393.293C333.604 394.174 333.478 395.025 333.32 396.032C332.88 398.929 332.44 402.236 330.583 404.408C330.3 404.566 330.017 404.723 329.734 404.723Z" fill="#E5E5E5"/>
<path d="M364.655 416.563C363.365 416.563 361.918 415.839 360.597 415.272C359.873 414.988 359.024 414.548 358.583 414.548C358.017 414.39 357.702 413.981 357.86 413.382C358.017 412.816 358.426 412.501 359.024 412.658C359.747 412.816 360.597 413.225 361.478 413.54C362.767 414.107 364.812 414.988 365.379 414.422C365.221 414.264 364.498 413.697 363.932 413.54C362.642 413.099 361.478 412.816 360.188 412.375C358.174 411.808 356.004 411.21 353.99 410.486C345.622 407.463 338.103 404.408 332.031 397.481C331.748 397.04 331.748 396.473 332.188 396.032C332.629 395.749 333.195 395.749 333.635 396.19C339.424 402.834 346.628 405.731 354.871 408.628C356.884 409.352 358.929 409.919 360.943 410.517C362.233 410.8 363.554 411.241 364.687 411.682C365.127 411.84 366.983 412.69 367.424 413.981C367.581 414.548 367.424 415.146 367.14 415.555C366.26 416.405 365.536 416.563 364.655 416.563Z" fill="#E5E5E5"/>
<path d="M228.496 297.19C228.055 297.19 227.772 297.032 227.332 296.906C224.72 295.174 226.451 286.357 227.048 285.066C229.219 278.989 235.7 273.636 246.963 268.44C271.659 257.01 295.757 248.918 323.065 242.714C324.795 242.273 326.526 241.833 328.256 241.549C333.604 240.258 339.235 239.093 344.709 237.928C344.993 237.928 345.433 237.771 345.874 237.645C348.044 237.204 350.781 236.48 352.386 238.211C352.826 238.652 352.669 239.219 352.386 239.66C351.945 240.101 351.379 239.943 350.939 239.66C350.215 238.778 348.044 239.376 346.314 239.66C345.874 239.817 345.433 239.817 345.15 239.943C339.676 240.951 334.17 242.242 328.822 243.564C327.092 244.005 325.361 244.446 323.631 244.73C296.481 250.933 272.383 259.025 247.812 270.298C237.116 275.21 230.918 280.28 228.905 285.759C228.024 288.058 227.457 294.733 228.464 295.3C228.464 295.3 228.905 295.3 229.754 294.419C230.194 293.978 230.761 294.135 231.201 294.419C231.642 294.859 231.484 295.426 231.201 295.867C230.226 296.591 229.376 297.19 228.496 297.19Z" fill="#E5E5E5"/>
<path d="M228.496 298.764C228.212 298.764 228.055 298.764 227.772 298.606C222.141 296.591 214.905 290.23 211.759 285.885C206.411 278.359 216.383 264.914 221.574 261.167C234.41 251.783 249.889 247.878 264.895 243.974C267.506 243.249 270.086 242.683 272.697 241.958C276.315 240.951 279.902 239.943 283.677 238.936C296.513 235.314 309.663 231.693 322.813 229.678C331.905 228.387 336.813 230.119 344.332 232.858L346.786 233.74C346.943 233.74 347.226 233.897 347.51 234.023C350.121 234.905 354.871 236.322 354.305 239.376C354.148 239.943 353.739 240.258 353.141 240.258C352.575 240.101 352.26 239.691 352.26 239.093C352.417 238.526 351.536 237.519 346.786 236.07C346.503 235.913 346.22 235.913 345.905 235.787L343.451 234.905C335.932 232.166 331.308 230.56 322.813 231.882C309.82 233.771 296.67 237.519 283.834 241.14C280.216 242.147 276.472 243.155 272.854 244.163C270.243 244.887 267.664 245.454 265.052 246.178C250.172 249.925 234.882 253.987 222.298 263.087C217.39 266.709 208.581 278.989 212.923 285.066C215.817 289.254 222.738 295.174 227.929 297.064C228.087 297.064 228.37 297.064 229.377 295.332L229.534 295.174C229.817 294.733 230.415 294.45 230.824 294.733C231.264 295.017 231.547 295.615 231.264 296.024L231.107 296.182C231.107 296.875 230.1 298.764 228.496 298.764Z" fill="#E5E5E5"/>
<path d="M267.915 47.4219H267.757C266.31 47.1385 265.461 45.1232 264.423 42.5096C264.265 42.0688 264.14 41.7854 264.14 41.628C261.245 35.4247 262.976 28.9066 264.863 22.8293C265.02 22.2625 265.587 21.9476 266.153 22.105C266.719 22.2625 267.034 22.8293 266.877 23.3961C265.146 29.19 263.542 35.2358 266.153 40.7463C266.31 41.0297 266.436 41.3131 266.593 41.7539C266.877 42.6356 267.883 45.0917 268.481 45.3751C269.047 45.5326 269.362 45.9419 269.205 46.5402C268.922 47.1385 268.513 47.4219 267.915 47.4219Z" fill="#E5E5E5"/>
<path d="M251.178 65.0555C251.021 65.0555 250.738 65.0555 250.612 65.0555C250.329 65.0555 250.171 65.0555 249.731 65.0555C248.441 65.0555 246.554 65.0555 245.673 63.7645C245.39 63.3236 245.39 62.7568 245.956 62.316C246.396 62.0326 246.963 62.0326 247.403 62.5994C247.686 63.0402 249.133 63.0402 249.857 63.0402C250.14 63.0402 250.58 63.0402 250.738 63.0402C252.311 63.1977 253.758 62.5994 254.796 61.5917C255.803 60.5841 256.243 59.2931 256.086 57.8446C255.803 54.2234 253.915 52.2081 251.902 49.752C250.612 48.3035 249.291 46.8551 248.284 44.8398C244.54 37.9123 242.81 27.0487 246.711 19.8378C249.007 15.4924 253.223 13.0363 258.697 12.5954C261.591 12.312 263.322 14.1699 264.612 15.6184C265.618 16.626 266.342 17.5077 267.506 17.6336C268.072 17.7911 268.387 18.2004 268.387 18.7987C268.23 19.3655 267.821 19.6804 267.223 19.6804C265.493 19.397 264.329 18.2319 263.322 17.0668C262.032 15.6184 260.868 14.4533 258.98 14.6107C254.23 15.0516 250.612 17.0668 248.598 20.814C244.981 27.4581 246.711 37.44 250.171 43.9266C251.178 45.6585 252.342 47.107 253.506 48.398C255.677 50.8541 257.848 53.3102 258.257 57.6557C258.414 59.6709 257.816 61.5603 256.369 63.0087C254.922 64.3312 253.192 65.0555 251.178 65.0555Z" fill="#E5E5E5"/>
<path d="M247.403 76.3284H247.277C246.711 76.171 246.396 75.7616 246.396 75.1633C246.68 73.7149 247.277 72.5498 248.41 71.6996C250.864 69.9677 254.608 70.692 257.942 71.2588C259.515 71.5422 260.837 71.8256 261.843 71.6996C263.574 71.5422 265.021 71.1328 266.311 70.4086C274.113 66.0631 272.508 60.8675 270.055 53.0583L269.897 52.6175C269.74 52.0507 270.055 51.6099 270.464 51.3265C271.03 51.169 271.47 51.4839 271.753 51.8933L271.911 52.3341C274.365 60.1433 276.535 66.7874 267.286 71.983C265.713 72.8647 264.109 73.274 262.095 73.4315C260.931 73.5889 259.484 73.274 257.754 72.9906C255.017 72.5498 251.556 71.8256 249.826 73.1481C249.259 73.5889 248.819 74.3132 248.662 75.3208C248.284 75.8876 247.844 76.3284 247.403 76.3284Z" fill="#E5E5E5"/>
<path d="M244.383 73.4315H244.226C243.659 73.274 243.345 72.8647 243.345 72.2664C243.628 70.0937 244.635 67.0708 248.253 66.4725C248.819 66.315 249.259 66.7559 249.417 67.3541C249.574 67.9209 249.133 68.3618 248.536 68.5192C246.648 68.8026 245.641 70.0937 245.201 72.7072C245.264 73.1481 244.823 73.4315 244.383 73.4315Z" fill="#E5E5E5"/>
<path d="M1.06963 466C0.62919 466 0.188748 465.717 0.0629068 465.276C-0.0943941 464.835 0.0629069 464.394 0.50335 464.111L119.045 383.185C119.203 383.028 119.328 383.028 119.612 383.028H222.581C223.147 383.028 223.588 383.468 223.588 384.035C223.588 384.602 223.147 385.043 222.581 385.043H119.895L4.24711 463.985L575.784 463.26L459.382 385.074H335.932C335.366 385.074 334.925 384.633 334.925 384.067C334.925 383.5 335.366 383.059 335.932 383.059H459.696C459.854 383.059 460.137 383.059 460.263 383.216L579.528 463.418C579.811 463.701 580.094 464.142 579.969 464.583C579.811 465.024 579.402 465.307 578.962 465.307L1.06963 466Z" fill="#E5E5E5"/>
<path d="M317.024 385.2H250.58C250.014 385.2 249.574 384.759 249.574 384.193C249.574 383.626 250.014 383.185 250.58 383.185H316.993C317.559 383.185 318 383.626 318 384.193C318.031 384.759 317.465 385.2 317.024 385.2Z" fill="#E5E5E5"/>
</svg>
