<svg width="40" height="30" viewBox="0 0 40 30" fill="none" xmlns="http://www.w3.org/2000/svg">
<path d="M39.9763 12.5C39.9985 12.4281 40.0055 12.3524 39.9971 12.2777C39.9886 12.2029 39.9649 12.1307 39.9272 12.0656C39.8896 12.0004 39.8389 11.9437 39.7784 11.8991C39.7179 11.8544 39.6488 11.8227 39.5754 11.8059C37.0218 11.3037 34.397 11.2817 31.8354 11.7413C32.2961 9.17745 32.2722 6.55 31.7648 3.99501C31.7481 3.92161 31.7165 3.85245 31.6718 3.79186C31.6272 3.73126 31.5705 3.68054 31.5053 3.64287C31.4402 3.6052 31.368 3.58139 31.2932 3.57294C31.2184 3.56449 31.1426 3.57158 31.0707 3.59376C28.6082 4.435 26.3241 5.72792 24.3354 7.40626C23.4524 4.95569 22.1179 2.69234 20.401 0.733446C20.3487 0.680346 20.2863 0.63818 20.2176 0.609398C20.1488 0.580617 20.075 0.565796 20.0004 0.565796C19.9259 0.565796 19.852 0.580617 19.7833 0.609398C19.7145 0.63818 19.6521 0.680346 19.5998 0.733446C17.8829 2.69234 16.5484 4.95569 15.6654 7.40626C13.6767 5.72792 11.3926 4.435 8.9301 3.59376C8.85822 3.57157 8.78254 3.56444 8.70778 3.57283C8.63303 3.58122 8.5608 3.60494 8.49563 3.64251C8.43046 3.68009 8.37374 3.7307 8.32902 3.79119C8.2843 3.85168 8.25254 3.92075 8.23573 3.99407C7.72875 6.54911 7.7049 9.17651 8.16541 11.7403C5.60378 11.2811 2.97902 11.3031 0.425416 11.805C0.351965 11.8217 0.282763 11.8535 0.222149 11.8982C0.161535 11.9429 0.110816 11.9997 0.0731727 12.065C0.0355292 12.1302 0.011773 12.2025 0.0033937 12.2774C-0.00498565 12.3523 0.00219257 12.4281 0.0244783 12.5C0.108541 12.7731 2.12542 19.1509 7.48073 22.3619C6.16969 22.9999 4.91008 23.7386 3.71323 24.5713C3.64289 24.6219 3.5856 24.6886 3.54609 24.7657C3.50658 24.8429 3.48598 24.9283 3.48598 25.015C3.48598 25.1017 3.50658 25.1871 3.54609 25.2643C3.5856 25.3414 3.64289 25.4081 3.71323 25.4588C3.93854 25.6209 9.28885 29.4409 13.8223 29.4409C16.1785 29.4409 18.4067 28.9544 20.0004 28.0994C21.5942 28.9544 23.822 29.4409 26.1782 29.4409C30.712 29.4409 36.062 25.6209 36.2876 25.4588C36.3579 25.4081 36.4152 25.3414 36.4547 25.2643C36.4942 25.1871 36.5149 25.1017 36.5149 25.015C36.5149 24.9283 36.4942 24.8429 36.4547 24.7657C36.4152 24.6886 36.3579 24.6219 36.2876 24.5713C35.0907 23.7386 33.8311 22.9999 32.5201 22.3619C37.8754 19.15 39.892 12.7722 39.9763 12.5ZM30.8095 4.8472C31.0848 6.5847 31.6117 11.7066 29.1876 15.9053C27.241 19.2766 23.8285 21.2969 21.7089 22.2888C23.1373 20.2694 25.2192 16.5975 25.2192 12.3381C25.2124 11.0599 25.0352 9.78827 24.6923 8.55688C26.4953 6.96742 28.5666 5.7113 30.8095 4.8472ZM20.0004 1.95126C21.1079 3.31876 24.1254 7.49063 24.1254 12.3381C24.1254 17.1856 21.1079 21.3578 20.0004 22.7253C18.8929 21.3578 15.8754 17.1875 15.8754 12.3381C15.8754 7.48876 18.8929 3.31876 20.0004 1.95126ZM9.19135 4.84688C11.435 5.70928 13.5067 6.96511 15.3092 8.55532C14.9662 9.78671 14.789 11.0583 14.7823 12.3366C14.7823 16.5959 16.8635 20.2678 18.292 22.2872C16.1723 21.2969 12.7598 19.2766 10.8129 15.9063C8.38885 11.7059 8.91635 6.58345 9.19135 4.84688ZM1.27854 12.7603C3.65274 12.3862 6.07459 12.4377 8.43073 12.9125C8.74965 14.1509 9.23223 15.3413 9.86573 16.4522C11.9957 20.1397 15.6345 22.2803 17.881 23.3147C15.5495 23.5156 11.5832 23.4709 8.21167 21.5256C4.01323 19.1016 1.90885 14.4025 1.27854 12.7603ZM26.1782 28.3463C23.872 28.3463 21.722 27.8556 20.2795 27.0003C20.195 26.9503 20.0986 26.9239 20.0004 26.9239C19.9022 26.9239 19.8058 26.9503 19.7213 27.0003C18.2789 27.8556 16.1276 28.3463 13.8223 28.3463C10.5201 28.3463 6.55573 26.0116 5.01229 25.0138C6.18657 24.2541 7.41569 23.5828 8.68948 23.0053C10.9959 24.0286 13.4968 24.5393 16.0198 24.5022C17.3556 24.5075 18.6888 24.3826 20.0004 24.1291C21.312 24.3826 22.6452 24.5076 23.981 24.5022C26.504 24.5393 29.0049 24.0286 31.3113 23.0053C32.5851 23.5828 33.8143 24.2541 34.9885 25.0138C33.4448 26.0116 29.4807 28.3463 26.1782 28.3463ZM31.7892 21.5256C28.4176 23.4725 24.4517 23.5156 22.1198 23.3147C24.3667 22.28 28.0051 20.1409 30.1351 16.4522C30.7686 15.3413 31.2512 14.1509 31.5701 12.9125C33.9262 12.4374 36.3481 12.3859 38.7223 12.7603C38.092 14.4025 35.9876 19.1016 31.7892 21.5256Z" fill="#9D9D9D"/>
</svg>
