<svg width="560" height="468" viewBox="0 0 560 468" fill="none" xmlns="http://www.w3.org/2000/svg">
<g clip-path="url(#clip0)">
<path fill-rule="evenodd" clip-rule="evenodd" d="M218.459 215.715C218.459 215.715 218.522 218.417 219.558 220.082C220.595 221.778 222.637 222.47 222.637 222.47C222.637 222.47 220.909 222.595 219.967 224.323C219.024 226.02 218.867 229.287 218.867 229.287C218.867 229.287 218.616 226.208 217.579 224.512C216.542 222.815 214.689 222.533 214.689 222.533C214.689 222.533 216.26 222.187 217.202 220.459C218.145 218.762 218.459 215.715 218.459 215.715Z" fill="#E5E5E5"/>
<path fill-rule="evenodd" clip-rule="evenodd" d="M165.116 288.573C165.116 288.573 165.21 292.469 166.718 294.919C168.226 297.37 171.179 298.375 171.179 298.375C171.179 298.375 168.666 298.564 167.284 301.046C165.902 303.528 165.682 308.24 165.682 308.24C165.682 308.24 165.336 303.748 163.828 301.297C162.32 298.846 159.619 298.438 159.619 298.438C159.619 298.438 161.881 297.935 163.263 295.453C164.645 292.971 165.116 288.573 165.116 288.573Z" fill="#E5E5E5"/>
<path fill-rule="evenodd" clip-rule="evenodd" d="M334.065 302.491C334.065 302.491 334.128 305.193 335.164 306.858C336.201 308.555 338.243 309.246 338.243 309.246C338.243 309.246 336.515 309.371 335.573 311.099C334.63 312.796 334.473 316.063 334.473 316.063C334.473 316.063 334.222 312.984 333.185 311.288C332.148 309.591 330.295 309.309 330.295 309.309C330.295 309.309 331.866 308.963 332.808 307.235C333.751 305.538 334.065 302.491 334.065 302.491Z" fill="#E5E5E5"/>
<path fill-rule="evenodd" clip-rule="evenodd" d="M332.651 213.767C332.651 213.767 332.714 215.778 333.468 217.034C334.254 218.291 335.761 218.794 335.761 218.794C335.761 218.794 334.473 218.888 333.782 220.176C333.091 221.433 332.966 223.852 332.966 223.852C332.966 223.852 332.777 221.559 332.023 220.302C331.238 219.045 329.855 218.825 329.855 218.825C329.855 218.825 331.018 218.574 331.709 217.286C332.4 216.029 332.651 213.767 332.651 213.767Z" fill="#E5E5E5"/>
<path fill-rule="evenodd" clip-rule="evenodd" d="M244.658 315.341C244.658 315.341 244.721 317.351 245.475 318.608C246.261 319.865 247.737 320.368 247.737 320.368C247.737 320.368 246.449 320.462 245.758 321.75C245.067 323.007 244.941 325.426 244.941 325.426C244.941 325.426 244.753 323.132 243.999 321.876C243.213 320.619 241.831 320.399 241.831 320.399C241.831 320.399 242.993 320.148 243.685 318.86C244.407 317.603 244.658 315.341 244.658 315.341Z" fill="#E5E5E5"/>
<path d="M409.932 106.129C409.586 106.129 409.241 105.972 409.021 105.658C408.016 104.15 407.01 102.516 406.288 100.726C401.921 89.7607 401.953 74.5545 403.9 64.3123C407.482 45.5244 425.891 25.2913 444.111 20.1074C448.729 18.7879 464.405 15.3005 472.29 25.5741C472.667 26.0454 472.573 26.7051 472.102 27.0822C471.631 27.4592 470.939 27.3649 470.594 26.8937C464.971 19.6047 453.536 19.6676 444.708 22.181C427.179 27.1764 409.461 46.6555 406.036 64.7207C404.152 74.6488 404.12 89.3837 408.33 99.9401C408.958 101.542 409.932 103.082 410.874 104.496C411.189 104.998 411.063 105.658 410.56 105.972C410.34 106.067 410.12 106.129 409.932 106.129Z" fill="#E5E5E5"/>
<path d="M419.89 114.926C419.45 114.926 419.073 114.675 418.885 114.235C416.937 109.303 415.806 104.276 415.681 100.066C415.681 99.4688 416.152 98.9661 416.717 98.9661C417.346 98.9661 417.817 99.4374 417.817 100.003C417.911 103.93 418.979 108.706 420.864 113.418C421.084 113.984 420.801 114.581 420.267 114.801C420.173 114.895 420.016 114.926 419.89 114.926Z" fill="#E5E5E5"/>
<path d="M445.776 135.348C445.274 135.348 444.834 135.002 444.74 134.5C444.614 133.934 444.959 133.337 445.556 133.212C448.886 132.426 455.421 130.164 461.578 123.723C461.986 123.284 462.677 123.284 463.086 123.692C463.526 124.1 463.526 124.792 463.117 125.2C456.552 132.049 449.577 134.468 446.028 135.285C445.933 135.317 445.839 135.348 445.776 135.348Z" fill="#E5E5E5"/>
<path d="M469.086 91.4572C456.803 91.4572 452.122 77.6334 448.918 68.1138C447.818 64.8463 446.844 62.0187 445.871 60.6364C445.525 60.1651 445.651 59.4739 446.122 59.1283C446.625 58.7827 447.284 58.9084 447.63 59.3796C448.792 61.0134 449.735 63.841 450.96 67.4226C454.541 78.0418 459.442 92.5883 473.798 88.6296C474.364 88.4726 474.961 88.8181 475.118 89.3837C475.275 89.9492 474.929 90.5461 474.364 90.7032C472.447 91.2373 470.688 91.4572 469.086 91.4572Z" fill="#E5E5E5"/>
<path d="M430.603 105.313C430.351 105.313 430.1 105.218 429.911 105.061C426.33 101.982 427.712 98.7776 428.843 96.2014C429.786 94.0335 430.603 92.1799 429.189 90.2006C428.843 89.7293 428.969 89.0381 429.44 88.6925C429.911 88.3469 430.603 88.4726 430.948 88.9439C433.053 91.9285 431.796 94.7561 430.822 97.0496C429.629 99.8144 429.032 101.448 431.325 103.396C431.765 103.773 431.828 104.464 431.451 104.904C431.199 105.187 430.885 105.313 430.603 105.313Z" fill="#E5E5E5"/>
<path d="M413.45 102.736C412.947 102.736 412.508 102.391 412.382 101.857C411.879 99.1861 412.916 96.2014 414.11 93.3738C414.675 92.0542 415.303 90.7975 415.932 89.5722C417.408 86.5875 418.822 83.7913 419.199 80.6181C419.325 79.4871 419.45 78.2618 419.607 77.0365C420.393 69.5905 421.272 61.1391 426.299 55.5467C429.095 52.4363 434.624 50.8654 439.179 51.8708C442.446 52.5934 444.739 54.5413 445.619 57.4003C445.807 57.9659 445.462 58.5628 444.896 58.7513C444.331 58.9398 443.734 58.5942 443.545 58.0287C442.729 55.3582 440.467 54.3528 438.707 53.9758C434.969 53.1589 430.1 54.5099 427.869 56.9919C423.314 62.0816 422.466 70.156 421.712 77.2878C421.586 78.5446 421.461 79.7384 421.304 80.9009C420.864 84.4511 419.325 87.5615 417.817 90.5776C417.22 91.7715 416.591 93.0282 416.057 94.2849C415.052 96.6726 414.047 99.406 414.455 101.511C414.581 102.108 414.172 102.673 413.607 102.768C413.607 102.705 413.513 102.736 413.45 102.736Z" fill="#E5E5E5"/>
<path d="M451.556 53.8501C451.148 53.8501 450.771 53.6302 450.582 53.2218C450.331 52.6877 450.551 52.0593 451.085 51.7765C456.991 48.9804 462.426 43.6393 464.939 38.1412C465.19 37.6071 465.818 37.3558 466.353 37.6071C466.887 37.8584 467.138 38.4868 466.887 39.0209C464.185 44.9589 458.342 50.7083 451.996 53.7245C451.87 53.8187 451.713 53.8501 451.556 53.8501Z" fill="#E5E5E5"/>
<path d="M150.194 117.126C150.068 117.126 149.943 117.126 149.817 117.126C134.33 116.717 118.34 102.642 116.612 91.8343C116.517 91.2374 116.926 90.7033 117.491 90.609C118.088 90.5148 118.622 90.9232 118.716 91.4887C120.162 100.411 134.173 114.518 149.849 114.958C161.818 115.335 172.247 97.0183 174.478 79.7385C174.541 79.1415 175.106 78.7331 175.671 78.7959C176.268 78.8588 176.677 79.4243 176.614 79.9898C174.289 97.9922 163.545 117.126 150.194 117.126Z" fill="#E5E5E5"/>
<path d="M179.378 61.2333C179.284 61.2333 179.19 61.2333 179.096 61.2019C178.53 61.0448 178.185 60.4479 178.342 59.8823C180.164 53.2532 179.284 46.3098 178.342 40.9688C178.247 40.3719 178.624 39.8378 179.221 39.7121C179.818 39.6178 180.352 39.9949 180.478 40.5918C181.483 46.1213 182.363 53.4103 180.446 60.4479C180.289 60.9191 179.85 61.2333 179.378 61.2333Z" fill="#E5E5E5"/>
<path d="M154.875 85.2994C154.435 85.2994 154.027 85.0166 153.87 84.5768C153.681 84.0112 153.964 83.4143 154.529 83.1944C157.514 82.1576 157.137 80.461 156.132 77.0365C155.283 74.2089 154.215 70.6587 156.98 67.8311C157.388 67.3912 158.079 67.3912 158.488 67.7996C158.927 68.2081 158.927 68.8993 158.519 69.3077C156.634 71.2242 157.388 73.7376 158.174 76.3767C159.116 79.5185 160.278 83.4457 155.221 85.2051C155.095 85.2994 155.001 85.2994 154.875 85.2994Z" fill="#E5E5E5"/>
<path d="M113.062 86.7132C107.753 86.7132 103.669 81.0266 101.753 76.1568C99.8362 71.2556 99.0509 64.218 103.103 60.5736C105.271 58.6257 108.789 59.631 111.146 61.3904C113.847 63.4326 114.947 66.1659 113.879 68.3024C113.627 68.8365 112.968 69.0564 112.434 68.805C111.899 68.5537 111.68 67.8939 111.931 67.3598C112.591 66.0088 111.365 64.2495 109.826 63.087C108.098 61.7989 105.742 61.0448 104.517 62.1445C101.47 64.8778 101.941 70.7215 103.732 75.34C105.522 79.9584 109.166 84.5768 113.093 84.514C113.627 84.4825 114.161 84.9852 114.193 85.5822C114.193 86.1791 113.722 86.6504 113.125 86.6818C113.125 86.7132 113.093 86.7132 113.062 86.7132Z" fill="#E5E5E5"/>
<path d="M110.58 76.6281C109.983 76.6281 109.512 76.1568 109.512 75.5598C109.48 73.4234 108.035 71.6012 106.81 70.2188C106.402 69.779 106.433 69.0878 106.873 68.7108C107.313 68.3023 108.004 68.3338 108.381 68.7736C109.763 70.3131 111.617 72.6694 111.648 75.5284C111.648 76.1254 111.177 76.5966 110.58 76.6281Z" fill="#E5E5E5"/>
<path d="M180.447 38.581C180.101 38.581 179.756 38.4239 179.567 38.1098C177.651 35.2822 172.782 35.8477 168.101 36.3818C164.582 36.7902 161.252 37.1672 158.645 36.3189C156.666 35.6906 154.75 33.8684 152.739 31.9519C149.189 28.5902 146.676 26.4538 144.131 27.7733C143.597 28.0561 142.969 27.8361 142.686 27.302C142.404 26.7679 142.624 26.1396 143.158 25.8568C147.241 23.7518 150.948 27.2706 154.247 30.4124C156.006 32.0775 157.797 33.7741 159.336 34.2768C161.504 34.968 164.74 34.591 167.881 34.2454C173.19 33.617 178.719 32.9887 181.358 36.8845C181.704 37.3872 181.578 38.0469 181.075 38.3925C180.855 38.5182 180.667 38.581 180.447 38.581Z" fill="#E5E5E5"/>
<path d="M143.597 35.345C143.22 35.345 142.843 35.1251 142.654 34.7481C140.644 30.8523 136.843 31.2607 132.413 31.7634C129.806 32.0462 127.135 32.3604 124.842 31.6063C124.277 31.4178 123.963 30.8209 124.151 30.2554C124.339 29.6898 124.936 29.3757 125.502 29.5642C127.355 30.1611 129.711 29.9098 132.193 29.627C136.748 29.1243 141.9 28.5588 144.571 33.7742C144.853 34.3083 144.633 34.9366 144.099 35.2194C143.942 35.3136 143.785 35.345 143.597 35.345Z" fill="#E5E5E5"/>
<path d="M117.523 55.0754C117.02 55.0754 116.486 55.0126 115.952 54.8869C115.387 54.7612 115.01 54.1643 115.167 53.5988C115.292 53.0333 115.889 52.6562 116.455 52.8133C120.507 53.7559 122.8 49.0432 125.219 43.1995C125.816 41.7857 126.35 40.4347 126.916 39.4293C127.481 38.3926 129.743 35.7849 131.942 35.4393C132.853 35.3136 133.67 35.5649 134.298 36.1619C134.738 36.5703 134.738 37.2615 134.33 37.6699C133.921 38.1098 133.23 38.1098 132.822 37.7014C132.696 37.5757 132.57 37.5129 132.288 37.5443C131.063 37.7328 129.241 39.6807 128.832 40.4347C128.329 41.3458 127.795 42.634 127.23 43.9849C125.219 48.7604 122.612 55.0754 117.523 55.0754Z" fill="#E5E5E5"/>
<path d="M111.303 21.7097C111.208 21.7097 111.083 21.7097 110.988 21.6783C110.423 21.5212 110.109 20.9242 110.266 20.3273C112.119 14.1066 115.889 9.42532 120.601 7.47742C122.486 6.69197 124.56 6.18929 126.539 5.71802C130.654 4.74407 134.55 3.80153 137 0.439825C137.345 -0.0314428 138.037 -0.157114 138.508 0.2199C138.979 0.565496 139.105 1.25669 138.728 1.72796C135.806 5.71802 131.345 6.78623 127.041 7.82301C125.125 8.29428 123.177 8.76555 121.418 9.48816C115.575 11.9073 113.093 18.3166 112.308 20.9871C112.182 21.4269 111.742 21.7097 111.303 21.7097Z" fill="#E5E5E5"/>
<path d="M181.546 18.9449C181.389 18.9449 181.232 18.9135 181.075 18.8507C178.216 17.4683 175.263 15.6146 172.122 13.6667C162.414 7.54026 152.362 1.25669 142.183 6.50347C141.649 6.78623 141.021 6.56631 140.738 6.0322C140.455 5.4981 140.675 4.86974 141.209 4.58698C152.487 -1.22532 163.545 5.71802 173.284 11.8131C176.363 13.7296 179.253 15.5518 182.017 16.9028C182.551 17.1541 182.771 17.8139 182.52 18.348C182.331 18.725 181.954 18.9449 181.546 18.9449Z" fill="#E5E5E5"/>
<path d="M181.106 54.7613C180.792 54.7613 180.509 54.6356 180.289 54.3842C179.912 53.9444 179.944 53.2532 180.415 52.8762C186.509 47.6608 188.551 42.1313 187.012 34.9366C186.321 31.6692 184.467 27.1764 183.556 27.0193C182.991 27.2078 182.394 26.9251 182.206 26.3595C182.017 25.794 182.331 25.1971 182.865 24.9772C183.462 24.7572 184.09 24.8515 184.687 25.1657C187.42 26.7051 189.117 34.4025 189.117 34.4968C190.813 42.4455 188.488 48.7919 181.797 54.5099C181.609 54.6984 181.357 54.7613 181.106 54.7613Z" fill="#E5E5E5"/>
<path d="M103.417 57.2747C102.915 57.2747 102.444 56.8977 102.349 56.395C102.067 54.8869 101.784 53.4103 101.501 52.0279C100.119 45.1788 98.9251 39.2723 101.375 31.2921C102.349 28.1504 103.323 24.9772 105.805 22.4951C105.836 22.4637 108.695 19.9503 109.826 21.0813C110.109 21.3641 110.423 22.0553 109.732 22.7779C109.48 23.0292 109.103 23.1549 108.789 23.0921C108.287 23.3434 107.533 23.8147 107.281 24.0346C105.177 26.1082 104.297 28.9044 103.417 31.8577C101.124 39.3665 102.255 45.0217 103.574 51.5881C103.857 53.0019 104.171 54.4785 104.423 56.018C104.517 56.6149 104.14 57.149 103.543 57.2747C103.543 57.2433 103.48 57.2747 103.417 57.2747ZM108.224 21.2698L109.009 22.0239L108.224 21.2698C108.224 21.2384 108.224 21.2384 108.224 21.2698Z" fill="#E5E5E5"/>
<path fill-rule="evenodd" clip-rule="evenodd" d="M170.268 73.2664C170.645 71.0985 169.702 69.0878 168.132 68.8365C166.592 68.5537 165.022 70.1246 164.613 72.2924C164.236 74.4602 165.179 76.471 166.749 76.7223C168.32 77.0051 169.891 75.4656 170.268 73.2664Z" fill="#E5E5E5"/>
<path fill-rule="evenodd" clip-rule="evenodd" d="M145.671 70.4387C146.048 68.2709 145.105 66.2602 143.534 66.0088C141.995 65.7261 140.424 67.297 140.016 69.4648C139.639 71.6326 140.581 73.6433 142.152 73.8947C143.723 74.1775 145.294 72.638 145.671 70.4387Z" fill="#E5E5E5"/>
<path d="M114.915 71.1928C114.413 71.1928 113.973 70.8472 113.878 70.3445C113.596 68.9307 112.779 64.0609 114.884 60.6678C115.418 59.7881 116.517 59.1597 117.554 58.5628C118.151 58.2172 119.125 57.6517 119.282 57.3375C119.376 56.7405 119.942 56.395 120.507 56.4892C121.104 56.5835 121.481 57.1804 121.387 57.7773C121.198 58.9398 119.942 59.6624 118.654 60.4164C117.9 60.8563 116.957 61.3904 116.706 61.7988C115.386 63.9666 115.449 67.3912 115.983 69.9046C116.109 70.5016 115.732 71.0671 115.166 71.1928C115.072 71.1613 115.009 71.1928 114.915 71.1928Z" fill="#E5E5E5"/>
<path d="M150.634 56.3007C150.414 56.3007 150.194 56.2379 150.005 56.1122C146.267 53.5045 141.838 53.0647 138.099 54.9497C137.565 55.2011 136.937 55.0126 136.654 54.4785C136.371 53.9444 136.591 53.316 137.125 53.0332C141.586 50.7712 146.864 51.2424 151.262 54.3528C151.733 54.6984 151.859 55.3582 151.513 55.8609C151.293 56.1436 150.979 56.3007 150.634 56.3007Z" fill="#E5E5E5"/>
<path d="M177.525 59.3797C177.337 59.3797 177.148 59.3168 176.96 59.2226C172.499 56.4578 169.326 56.5835 165.933 57.6203C165.368 57.7774 164.771 57.4632 164.582 56.8977C164.425 56.3321 164.739 55.7352 165.305 55.5467C168.729 54.5099 172.625 54.0072 178.091 57.4003C178.593 57.7145 178.75 58.3743 178.436 58.877C178.248 59.2226 177.902 59.3797 177.525 59.3797Z" fill="#E5E5E5"/>
<path d="M152.393 102.485C152.11 102.485 151.827 102.485 151.545 102.454C149.44 102.234 147.587 101.385 145.89 99.8458C143.722 97.8665 142.372 94.8504 142.686 92.6197C142.843 91.5515 143.377 90.7347 144.257 90.2948C144.634 90.1063 145.827 89.5408 152.299 90.4519C153.555 90.6404 154.938 90.609 156.288 90.5776C158.77 90.5147 160.906 90.4833 162.006 91.74C163.105 92.9653 162.069 95.2903 161.597 96.2014C159.933 99.4374 156.508 102.485 152.393 102.485ZM145.199 92.2427C145.136 92.2741 144.916 92.3998 144.822 92.9339C144.634 94.222 145.545 96.6412 147.335 98.2435C148.686 99.4688 150.1 100.129 151.765 100.286C155.157 100.631 157.576 98.1179 158.456 97.0496C160.027 95.1332 160.404 93.4366 160.278 93.0596C159.901 92.6512 157.891 92.6826 156.288 92.714C154.906 92.7454 153.367 92.7768 151.953 92.5883C147.398 91.9285 145.545 92.0856 145.199 92.2427Z" fill="#E5E5E5"/>
<path d="M96.3176 113.324C96.1291 113.324 95.9406 113.324 95.7207 113.293C95.1238 113.261 94.684 112.759 94.7154 112.162C94.7469 111.565 95.2181 111.125 95.8464 111.156C98.1083 111.282 100.056 110.465 101.815 108.674C107.25 103.113 108.695 90.1692 108.255 84.7967C108.192 84.1998 108.632 83.6971 109.229 83.6343C109.826 83.6028 110.329 84.0113 110.391 84.6082C110.894 90.4833 109.323 104.024 103.355 110.151C101.313 112.287 98.9565 113.324 96.3176 113.324Z" fill="#E5E5E5"/>
<path d="M147.179 132.332C146.77 132.332 146.362 132.08 146.205 131.672C144.351 127.368 146.048 119.419 147.367 116.152C147.587 115.586 148.215 115.335 148.749 115.555C149.315 115.775 149.566 116.403 149.346 116.937C147.901 120.55 146.77 127.556 148.184 130.824C148.404 131.358 148.153 132.018 147.618 132.238C147.461 132.3 147.336 132.332 147.179 132.332Z" fill="#E5E5E5"/>
<path d="M137.189 161.927C133.764 161.927 129.272 157.152 125.597 152.722L125.22 152.282C115.858 141.223 104.926 127.871 94.7472 112.601C94.4017 112.099 94.5587 111.439 95.03 111.125C95.5326 110.779 96.1923 110.936 96.5065 111.408C106.622 126.582 117.523 139.872 126.822 150.9L127.199 151.34C134.518 160.137 136.969 160.042 137.691 159.634C145.922 154.701 149.597 144.805 153.147 135.222C154.592 131.358 155.943 127.745 157.545 124.477C157.797 123.943 158.456 123.723 158.99 124.006C159.525 124.257 159.744 124.917 159.462 125.451C157.891 128.593 156.572 132.175 155.158 135.976C151.639 145.433 147.65 156.147 138.791 161.488C138.32 161.802 137.754 161.927 137.189 161.927Z" fill="#E5E5E5"/>
<path d="M26.8912 309.026C20.7653 309.026 15.4562 307.832 12.1891 304.596C7.35118 299.757 3.70706 291.62 2.04208 286.122C-2.10468 272.33 0.816899 257.155 3.64423 242.483C4.52384 237.864 5.37204 233.497 6.00034 229.193C8.57635 211.191 11.8121 192.654 16.1473 170.944C16.4929 169.185 16.8384 167.3 17.184 165.321C19.0375 154.701 21.3622 141.506 29.4986 134.971C37.0696 128.907 58.6829 119.859 73.9819 116.372C76.8407 115.712 79.6366 114.581 82.3383 113.481C86.5479 111.753 90.9145 109.994 95.6581 109.994C96.255 109.994 96.7262 110.465 96.7262 111.062C96.7262 111.659 96.255 112.13 95.6581 112.13C91.3229 112.13 87.3332 113.764 83.1236 115.46C80.3591 116.592 77.469 117.754 74.4532 118.445C59.6882 121.807 38.0748 130.824 30.818 136.605C23.3099 142.605 21.0794 155.393 19.2888 165.635C18.9432 167.614 18.5977 169.531 18.2521 171.321C13.9169 193 10.7126 211.473 8.13655 229.476C7.50825 233.811 6.66005 238.21 5.78044 242.86C3.01593 257.281 0.125774 272.204 4.11545 285.462C5.81185 291.118 9.45597 298.752 13.7284 303.025C24.8178 314.115 65.9398 297.841 67.699 297.118C68.1388 296.93 69.4896 295.987 72.1599 291.086C72.4112 290.646 72.6311 290.206 73.2908 290.206C73.8877 290.206 74.3589 290.678 74.3589 291.275C74.3589 291.495 74.2961 291.714 74.1704 291.872L74.0448 292.123C71.7829 296.301 70.0237 298.501 68.5158 299.098C65.2172 300.48 43.1954 309.026 26.8912 309.026Z" fill="#E5E5E5"/>
<path d="M14.8591 263.156C14.5764 263.156 14.2937 263.03 14.0738 262.81C13.6654 262.37 13.6968 261.679 14.1366 261.302C22.2416 253.825 34.7447 253.353 46.808 252.882C52.1171 252.694 57.112 252.474 61.4787 251.688C62.3269 251.531 63.3636 251.28 64.4945 250.997C68.9554 249.866 74.5158 248.452 77.94 251.248C78.4113 251.625 78.4741 252.317 78.0971 252.756C77.7201 253.228 77.029 253.291 76.5892 252.914C73.9818 250.777 69.0182 252.065 65.0286 253.071C63.8976 253.353 62.7981 253.636 61.8871 253.793C57.3634 254.61 52.3056 254.799 46.9336 255.019C35.2473 255.458 23.1526 255.93 15.6445 262.873C15.3618 263.061 15.1105 263.156 14.8591 263.156Z" fill="#E5E5E5"/>
<path d="M66.0653 298.187C65.6569 298.187 65.2171 298.124 64.8401 298.029C62.1699 297.401 60.2221 294.731 59.3111 290.489C57.5519 282.415 59.2169 265.198 65.06 258.003C67.6674 254.767 71.72 250.557 76.7463 251.028C77.3432 251.091 77.783 251.625 77.7202 252.191C77.6573 252.788 77.1233 253.196 76.5578 253.165C72.5996 252.788 69.0497 256.527 66.725 259.354C61.73 265.481 59.5938 281.598 61.4159 290.018C62.1384 293.38 63.5521 295.485 65.3427 295.924C67.1962 296.364 69.5837 295.013 71.8456 292.217C72.2226 291.746 72.9137 291.683 73.3535 292.06C73.8247 292.437 73.8876 293.128 73.5106 293.568C71.0602 296.616 68.4528 298.187 66.0653 298.187Z" fill="#E5E5E5"/>
<path d="M52.4627 254.265C52.2114 254.265 51.9915 254.202 51.7716 254.013C51.3004 253.636 51.2375 252.945 51.6145 252.505C53.2795 250.432 56.7979 235.288 59.8766 221.904C64.9972 199.692 68.3272 186.088 70.9346 184.109C71.4058 183.763 72.097 183.857 72.4425 184.328C72.7881 184.8 72.6938 185.491 72.2226 185.836C70.055 187.47 65.3742 207.64 61.9814 222.375C57.8032 240.441 55.133 251.563 53.2795 253.856C53.091 254.139 52.7768 254.265 52.4627 254.265Z" fill="#E5E5E5"/>
<path d="M70.2433 256.212C69.8663 256.212 69.5208 256.024 69.3323 255.678C69.0181 255.176 69.2066 254.516 69.7093 254.202C72.2539 252.694 76.0865 252.411 79.8248 252.191C81.8668 252.065 83.7517 251.94 85.2596 251.594C87.333 251.154 89.3749 250.714 91.4169 250.274C102.255 247.981 112.465 245.813 122.455 241.415C124.277 240.629 126.507 239.027 128.895 237.33C133.356 234.157 138.413 230.513 142.686 230.89C152.487 231.707 162.948 237.77 166.969 240.378C167.315 240.598 168.289 240.818 169.106 241.006C171.053 241.446 173.252 241.949 173.912 243.551C174.258 244.368 174.101 245.31 173.472 246.316C169.828 252.002 163.231 250.432 156.854 248.923C152.299 247.855 147.618 246.724 144.571 248.546C144.068 248.861 143.408 248.672 143.094 248.169C142.78 247.667 142.969 247.007 143.471 246.693C147.241 244.431 152.393 245.656 157.357 246.818C163.263 248.232 168.854 249.552 171.682 245.153C171.964 244.745 171.996 244.462 171.964 244.368C171.745 243.802 169.734 243.363 168.666 243.111C167.504 242.86 166.498 242.608 165.839 242.2C161.943 239.718 151.859 233.812 142.529 233.057C139.042 232.775 134.329 236.136 130.151 239.121C127.67 240.88 125.345 242.546 123.334 243.425C113.156 247.887 102.82 250.086 91.8881 252.411C89.8462 252.851 87.8042 253.291 85.7308 253.73C84.0972 254.076 82.0867 254.233 79.9819 254.359C76.6834 254.579 72.945 254.83 70.8402 256.087C70.6203 256.181 70.4318 256.212 70.2433 256.212Z" fill="#E5E5E5"/>
<path d="M203.285 280.718C200.678 280.718 197.474 279.399 195.086 278.456C194.615 278.268 194.206 278.079 193.861 277.953C191.159 276.948 188.3 276.351 185.536 275.754C182.897 275.189 180.133 274.623 177.494 273.681C175.138 272.832 172.939 271.481 170.802 270.162C168.321 268.622 165.965 267.177 163.42 266.549C162.854 266.392 162.509 265.826 162.635 265.229C162.792 264.664 163.357 264.318 163.954 264.444C166.813 265.166 169.42 266.769 171.933 268.308C173.975 269.565 176.049 270.853 178.216 271.607C180.729 272.487 183.4 273.052 185.976 273.618C188.834 274.215 191.787 274.843 194.615 275.911C194.96 276.037 195.4 276.225 195.903 276.414C198.353 277.419 203.411 279.462 205.013 278.048C205.579 277.545 205.61 277.105 205.579 276.822C205.484 275.88 204.385 273.806 198.196 270.193C194.835 268.245 191.096 266.894 187.515 265.606C184.405 264.507 181.232 263.344 178.248 261.836C174.824 260.077 171.713 257.815 168.729 255.615C166.184 253.762 163.546 251.814 160.75 250.243C160.247 249.96 160.059 249.3 160.341 248.766C160.624 248.264 161.284 248.075 161.818 248.358C164.708 249.992 167.41 251.971 169.986 253.856C172.907 255.992 175.923 258.223 179.222 259.888C182.049 261.333 185.19 262.465 188.238 263.564C191.913 264.884 195.746 266.235 199.201 268.245C202.72 270.288 207.369 273.335 207.715 276.54C207.809 277.325 207.652 278.519 206.458 279.587C205.61 280.435 204.51 280.718 203.285 280.718Z" fill="#E5E5E5"/>
<path d="M216.636 290.866C213.275 290.866 209.285 289.672 205.924 288.667C204.824 288.353 203.788 288.039 202.94 287.819C200.301 287.159 197.379 286.719 194.552 286.279C190.311 285.62 185.913 284.96 182.017 283.515C179.284 282.478 176.52 281.095 173.849 279.776C170.143 277.922 166.341 276.006 162.54 275.032C161.975 274.875 161.629 274.309 161.755 273.712C161.912 273.147 162.477 272.801 163.074 272.927C167.095 273.932 171.054 275.911 174.823 277.828C177.431 279.147 180.132 280.498 182.771 281.472C186.478 282.855 190.751 283.515 194.897 284.143C197.756 284.583 200.741 285.023 203.474 285.714C204.353 285.934 205.421 286.248 206.552 286.593C210.573 287.787 216.071 289.421 219.118 288.353C219.841 288.102 220.281 287.787 220.343 287.473C220.438 287.033 219.935 285.997 218.27 284.551C215.474 282.132 210.196 279.619 207.086 279.87C206.521 279.901 205.987 279.462 205.924 278.865C205.893 278.268 206.332 277.765 206.929 277.702C210.95 277.42 216.919 280.53 219.684 282.918C221.788 284.74 222.731 286.405 222.48 287.85C222.26 288.981 221.38 289.829 219.872 290.364C218.867 290.709 217.799 290.866 216.636 290.866Z" fill="#E5E5E5"/>
<path d="M208.72 293.757C206.867 293.757 204.919 293.442 203.223 293.16C202.406 293.034 201.652 292.908 200.992 292.846C187.201 291.4 172.876 286.625 162.698 280.09C162.195 279.776 162.038 279.116 162.383 278.613C162.698 278.111 163.357 277.954 163.86 278.299C173.787 284.646 187.767 289.295 201.243 290.709C201.935 290.772 202.72 290.898 203.6 291.055C207.055 291.62 211.83 292.406 213.087 289.767C213.338 289.233 213.998 289.013 214.532 289.264C215.066 289.515 215.286 290.175 215.035 290.709C213.841 293.097 211.39 293.757 208.72 293.757Z" fill="#E5E5E5"/>
<path d="M63.2063 297.118C62.9236 297.118 62.6094 296.993 62.4209 296.773C62.0126 296.333 62.044 295.642 62.4838 295.265C64.777 293.191 68.0128 291.903 71.1228 290.678C72.6936 290.049 74.1701 289.484 75.4581 288.824C87.5528 282.666 101.03 276.697 117.837 270.131C118.685 269.816 119.596 269.408 120.601 268.968C125.753 266.769 132.13 264.035 137.031 265.669C145.607 268.56 153.712 273.712 161.566 278.708C165.304 281.095 168.854 283.357 172.467 285.368C174.006 286.248 175.42 287.285 176.802 288.29C179.221 290.081 181.514 291.746 184.436 292.5C186.761 293.097 189.871 292.249 192.604 291.526C193.483 291.306 194.3 291.055 195.086 290.898C195.682 290.772 196.248 291.149 196.374 291.715C196.499 292.28 196.122 292.877 195.557 293.003C194.803 293.16 194.017 293.38 193.169 293.6C190.185 294.385 186.792 295.296 183.933 294.574C180.603 293.725 178.027 291.84 175.546 290.018C174.226 289.044 172.875 288.07 171.43 287.253C167.786 285.211 164.048 282.823 160.435 280.53C152.676 275.597 144.665 270.508 136.34 267.711C132.225 266.329 125.973 268.999 121.418 270.947C120.413 271.387 119.439 271.796 118.591 272.11C101.846 278.676 88.4324 284.583 76.4005 290.709C75.0183 291.4 73.5104 292.029 71.8768 292.657C68.9238 293.82 65.8766 295.013 63.8974 296.836C63.7404 297.024 63.4576 297.118 63.2063 297.118Z" fill="#E5E5E5"/>
<path d="M205.233 236.105C204.667 236.105 204.165 235.665 204.165 235.068C203.442 215.872 201.966 185.177 200.96 169.405C199.83 151.654 197.285 147.601 192.101 143.14C186.478 138.27 179.755 135.505 172.687 132.615C169.64 131.358 166.498 130.07 163.451 128.593C160.184 127.022 157.325 125.043 154.529 123.095C152.236 121.493 149.849 119.859 147.304 118.508C146.77 118.225 146.582 117.566 146.864 117.063C147.147 116.529 147.807 116.34 148.309 116.623C150.948 118.037 153.399 119.733 155.723 121.336C158.456 123.221 161.252 125.137 164.362 126.645C167.347 128.09 170.457 129.379 173.473 130.604C180.415 133.463 187.578 136.416 193.484 141.506C199.327 146.564 201.934 151.528 203.065 169.279C204.071 185.082 205.578 215.809 206.27 235.005C206.301 235.602 205.83 236.105 205.233 236.105C205.264 236.105 205.264 236.105 205.233 236.105Z" fill="#E5E5E5"/>
<path d="M188.175 237.864C188.112 237.864 188.049 237.864 187.986 237.864C187.389 237.77 187.012 237.205 187.107 236.608C188.269 229.853 189.054 222.627 189.808 215.652C191.159 203.085 192.541 190.078 196.311 178.453C196.5 177.888 197.097 177.574 197.662 177.762C198.228 177.951 198.542 178.548 198.353 179.113C194.646 190.518 193.264 203.399 191.945 215.872C191.191 222.878 190.405 230.136 189.243 236.953C189.149 237.487 188.709 237.864 188.175 237.864Z" fill="#E5E5E5"/>
<path d="M125.974 402.839C121.921 402.839 117.869 402.682 113.879 402.305C76.5266 398.912 36.3157 387.036 35.4361 371.673C34.9649 363.661 35.9073 349.115 36.8183 335.04C37.5409 323.886 38.232 313.361 38.0749 307.643C38.0749 307.046 38.5147 306.544 39.1116 306.544C39.6771 306.544 40.2111 306.984 40.2111 307.58C40.3682 313.393 39.6771 323.949 38.9545 335.165C38.0435 349.178 37.1011 363.661 37.5723 371.516C38.3577 384.963 77.8775 396.839 114.067 400.106C146.425 403.028 183.588 392.691 191.882 384.554C192.918 383.549 193.421 382.606 193.39 381.884C193.327 381.192 188.646 311.79 191.63 292.688C191.725 292.091 192.259 291.714 192.856 291.777C193.453 291.872 193.829 292.406 193.767 293.003C191.128 309.748 194.552 368.154 195.557 381.695C195.652 383.109 194.929 384.586 193.421 386.062C185.63 393.728 155.849 402.839 125.974 402.839Z" fill="#E5E5E5"/>
<path d="M198.196 307.392C195.746 307.392 193.547 306.858 191.756 305.538C191.285 305.193 191.191 304.502 191.536 304.03C191.882 303.559 192.573 303.465 193.044 303.81C198.667 307.958 210.448 302.365 219.056 298.281C222.386 296.71 225.276 295.328 227.412 294.699C227.977 294.542 228.574 294.856 228.763 295.422C228.92 295.987 228.606 296.584 228.04 296.773C226.061 297.37 223.265 298.689 219.998 300.26C213.338 303.371 204.888 307.392 198.196 307.392Z" fill="#E5E5E5"/>
<path d="M34.996 468C34.4305 468 33.9593 467.56 33.9279 466.995C33.3939 457.412 31.5718 399.792 36.0955 375.16C36.1898 374.563 36.7552 374.186 37.3521 374.312C37.949 374.406 38.326 374.972 38.2003 375.569C33.708 400.012 35.5301 457.349 36.0641 466.9C36.0955 467.497 35.6557 468 35.0588 468.031C35.0274 468 34.996 468 34.996 468Z" fill="#E5E5E5"/>
<path d="M192.321 465.801C191.725 465.801 191.253 465.33 191.253 464.733C191.19 455.904 191.756 446.51 192.353 436.551C193.39 419.02 194.458 400.892 191.944 386.251C191.85 385.654 192.227 385.12 192.824 384.994C193.421 384.9 193.955 385.277 194.081 385.874C196.657 400.766 195.557 418.988 194.52 436.645C193.924 446.573 193.39 455.936 193.421 464.67C193.39 465.33 192.918 465.801 192.321 465.801Z" fill="#E5E5E5"/>
<path d="M136.183 464.293C136.121 464.293 136.058 464.293 135.995 464.261C135.398 464.167 135.021 463.602 135.147 463.005C136.937 453.328 142.78 445.882 148.435 438.656C149.535 437.242 150.634 435.86 151.702 434.414C152.048 433.943 152.739 433.849 153.21 434.194C153.681 434.54 153.776 435.231 153.43 435.703C152.362 437.148 151.231 438.562 150.132 439.975C144.383 447.327 138.948 454.27 137.283 463.413C137.126 463.916 136.686 464.293 136.183 464.293Z" fill="#E5E5E5"/>
<path d="M438.77 80.5239C438.393 80.5239 438.047 80.3354 437.859 79.9898C437.545 79.4871 437.733 78.8273 438.236 78.5131C442.822 75.7798 446.498 75.6227 451.304 77.9476C451.838 78.199 452.058 78.8587 451.807 79.3928C451.556 79.9269 450.896 80.1469 450.362 79.8955C446.184 77.8848 443.293 78.0105 439.335 80.3668C439.147 80.4925 438.958 80.5239 438.77 80.5239Z" fill="#E5E5E5"/>
<path d="M417.911 83.4457C417.659 83.4457 417.408 83.3515 417.188 83.163C416.748 82.7545 416.717 82.0948 417.094 81.6549C420.581 77.7591 424.445 78.5445 428.121 79.707C428.686 79.8955 429 80.4924 428.812 81.058C428.623 81.6235 428.026 81.9377 427.461 81.7492C423.534 80.5239 421.084 80.3668 418.665 83.0687C418.508 83.32 418.194 83.4457 417.911 83.4457Z" fill="#E5E5E5"/>
<path fill-rule="evenodd" clip-rule="evenodd" d="M426.738 94.3477C426.581 92.1485 425.168 90.4519 423.597 90.5462C422.026 90.6718 420.864 92.5569 421.052 94.7562C421.209 96.9554 422.623 98.652 424.194 98.5577C425.733 98.4635 426.895 96.5784 426.738 94.3477Z" fill="#E5E5E5"/>
<path fill-rule="evenodd" clip-rule="evenodd" d="M449.294 93.0596C449.137 90.8603 447.723 89.1638 446.153 89.258C444.582 89.3837 443.419 91.2688 443.608 93.468C443.765 95.6672 445.179 97.3638 446.749 97.2695C448.289 97.1439 449.451 95.2588 449.294 93.0596Z" fill="#E5E5E5"/>
<path d="M476.312 105.847C475.903 105.847 475.495 105.595 475.338 105.218C475.087 104.684 475.338 104.056 475.903 103.804C479.799 102.076 483.663 97.3638 484.888 92.8082C485.453 90.6718 485.736 87.5929 483.788 84.8909C483.192 84.0427 482.626 84.0112 482.186 84.0741C480.05 84.3568 477.38 87.9385 476.846 89.3837C476.626 89.9492 475.998 90.2006 475.464 90.012C474.898 89.7921 474.647 89.1638 474.835 88.6297C475.495 86.9645 478.636 82.3775 481.904 81.9691C482.909 81.8434 484.323 82.0319 485.516 83.6656C487.464 86.3362 487.967 89.7293 486.961 93.4052C485.548 98.5891 481.275 103.804 476.752 105.815C476.626 105.815 476.469 105.847 476.312 105.847Z" fill="#E5E5E5"/>
<path d="M476.72 97.7409C476.688 97.7409 476.688 97.7409 476.657 97.7409C476.06 97.7094 475.62 97.2067 475.62 96.6098C475.714 94.6305 478.982 90.232 481.212 89.6036C481.777 89.4466 482.374 89.7922 482.531 90.3577C482.688 90.9232 482.374 91.5201 481.777 91.6772C480.458 92.0542 477.788 95.573 477.756 96.7041C477.756 97.301 477.285 97.7409 476.72 97.7409Z" fill="#E5E5E5"/>
<path d="M469.179 124.509C469.085 124.509 469.022 124.509 468.928 124.477C468.362 124.352 467.985 123.755 468.111 123.189C468.488 121.65 468.865 120.11 469.242 118.602C470.059 115.429 470.813 112.444 471.284 109.585C471.378 108.988 471.944 108.611 472.509 108.706C473.106 108.8 473.483 109.365 473.389 109.931C472.886 112.884 472.132 115.9 471.315 119.105C470.938 120.613 470.561 122.121 470.184 123.661C470.09 124.195 469.65 124.509 469.179 124.509Z" fill="#E5E5E5"/>
<path d="M511.369 227.779C510.867 227.779 510.427 227.434 510.333 226.931C510.207 226.365 510.584 225.768 511.149 225.643C525.506 222.532 542.25 213.83 546.491 203.273C546.617 202.959 546.114 202.048 545.015 200.603C544.795 200.32 544.638 200.069 544.481 199.88C541.779 195.827 540.02 191.554 538.512 187.502C536.91 183.229 535.559 178.61 534.239 174.18C530.375 161.079 526.386 147.507 515.39 138.961C509.327 134.248 501.976 133.84 495.599 134.06C495.002 134.123 494.5 133.62 494.5 133.023C494.468 132.426 494.939 131.923 495.536 131.923C502.322 131.672 510.113 132.143 516.71 137.264C528.239 146.218 532.323 160.137 536.281 173.583C537.569 178.013 538.92 182.569 540.491 186.779C541.967 190.706 543.664 194.853 546.24 198.718C546.365 198.906 546.522 199.095 546.68 199.346C547.685 200.697 549.067 202.519 548.407 204.122C543.695 215.903 526.009 224.637 511.526 227.779C511.526 227.748 511.464 227.779 511.369 227.779Z" fill="#E5E5E5"/>
<path d="M551.298 277.357C548.942 277.357 546.554 276.728 544.544 276.226C543.884 276.068 543.256 275.88 542.659 275.754C541.088 275.409 539.675 275.157 538.198 274.906C534.051 274.183 529.779 273.429 521.988 270.476C504.804 263.973 455.232 215.526 453.127 213.453C452.687 213.044 452.687 212.353 453.095 211.945C453.504 211.505 454.195 211.505 454.603 211.945C455.106 212.447 505.966 262.15 522.742 268.465C530.344 271.324 534.523 272.078 538.544 272.77C539.989 273.021 541.497 273.304 543.099 273.649C543.727 273.775 544.387 273.963 545.046 274.121C548.879 275.095 553.214 276.226 555.916 273.524C558.523 270.916 557.801 263.219 557.455 259.071C557.392 258.38 557.33 257.72 557.298 257.186C556.544 246.661 554.157 235.32 550.23 223.506C549.57 221.559 548.722 219.579 547.905 217.694C546.586 214.615 545.204 211.442 544.544 208.08C544.418 207.483 544.795 206.918 545.392 206.824C545.989 206.698 546.554 207.075 546.649 207.672C547.277 210.814 548.596 213.861 549.884 216.846C550.733 218.794 551.581 220.805 552.272 222.847C556.262 234.848 558.681 246.347 559.434 257.061C559.466 257.595 559.529 258.223 559.592 258.914C560.063 264.035 560.754 271.764 557.455 275.095C555.728 276.791 553.528 277.357 551.298 277.357Z" fill="#E5E5E5"/>
<path d="M547.685 251.468C547.308 251.468 546.963 251.28 546.743 250.934C540.428 239.875 527.768 235.885 515.516 232.021C512.94 231.204 510.521 230.45 508.165 229.633C495.128 225.077 477.787 212.824 468.583 203.619C468.174 203.211 468.174 202.519 468.583 202.111C468.991 201.702 469.682 201.702 470.091 202.111C479.138 211.128 496.102 223.161 508.856 227.622C511.181 228.439 513.6 229.193 516.145 230.01C528.208 233.811 541.873 238.116 548.596 249.897C548.879 250.4 548.722 251.06 548.188 251.374C548.062 251.437 547.874 251.468 547.685 251.468Z" fill="#E5E5E5"/>
<path d="M453.441 212.51C453.127 212.51 452.813 212.384 452.593 212.102C445.305 202.991 444.551 190.738 443.828 178.893C443.514 174.023 443.231 169.405 442.509 165.101C442.006 161.99 439.399 159.006 436.854 156.147C433.367 152.156 429.754 148.041 430.791 142.951C430.979 141.946 431.702 141.663 431.985 141.6C433.273 141.286 434.843 142.574 438.016 146.501C438.142 146.69 438.268 146.815 438.331 146.878C439.838 148.638 441.629 150.24 443.388 151.779C444.551 152.816 445.744 153.884 446.875 154.984C448.32 156.429 448.917 158.534 449.483 160.576C450.017 162.524 450.582 164.567 451.902 165.886C452.31 166.294 452.31 166.986 451.902 167.394C451.493 167.803 450.802 167.803 450.394 167.394C448.666 165.666 448.006 163.247 447.409 161.142C446.907 159.288 446.404 157.56 445.367 156.524C444.299 155.455 443.168 154.45 441.975 153.413C440.184 151.811 438.331 150.177 436.728 148.292C436.666 148.229 436.54 148.072 436.383 147.852C434.466 145.464 433.398 144.428 432.864 144.019C432.487 147.821 435.44 151.214 438.55 154.764C441.284 157.875 444.079 161.079 444.708 164.786C445.43 169.216 445.744 173.866 446.027 178.799C446.75 190.298 447.472 202.205 454.321 210.782C454.698 211.253 454.603 211.913 454.164 212.29C453.912 212.416 453.661 212.51 453.441 212.51Z" fill="#E5E5E5"/>
<path d="M456.583 164.724C456.143 164.724 455.703 164.441 455.577 164.001C451.996 153.256 445.65 143.108 437.2 134.688C436.854 134.343 436.446 133.714 435.723 132.677C434.655 131.075 432.425 127.745 431.2 127.493C431.105 127.462 431.042 127.494 431.011 127.525C430.634 128.153 431.702 131.641 432.833 133.903C434.341 136.919 436.54 139.307 438.645 141.632C441.535 144.773 444.519 148.041 445.682 152.785C445.839 153.35 445.462 153.947 444.896 154.073C444.331 154.23 443.734 153.853 443.577 153.288C442.54 149.078 439.87 146.156 437.043 143.077C434.812 140.658 432.519 138.144 430.885 134.877C430.257 133.651 427.304 127.399 429.786 125.734C430.32 125.389 430.948 125.263 431.577 125.389C433.556 125.797 435.409 128.405 437.482 131.515C437.954 132.238 438.456 132.992 438.676 133.212C447.347 141.883 453.881 152.314 457.588 163.373C457.776 163.938 457.462 164.535 456.897 164.724C456.803 164.724 456.677 164.724 456.583 164.724Z" fill="#E5E5E5"/>
<path d="M459.913 162.022C459.473 162.022 459.096 161.77 458.907 161.33C458.342 159.948 457.871 158.283 457.337 156.492C456.143 152.471 454.792 147.915 452.436 145.559C449.546 142.668 445.43 138.333 442.289 134.123C442.163 133.966 442.006 133.746 441.818 133.463C437.985 128.09 436.603 127.651 436.226 127.713C436.132 127.713 435.975 127.933 435.817 128.373C435.629 128.939 435.032 129.253 434.467 129.064C433.901 128.876 433.587 128.279 433.776 127.713C434.31 126.143 435.221 125.703 435.912 125.608C438.079 125.294 440.561 128.028 443.577 132.238C443.765 132.489 443.923 132.709 444.017 132.866C447.095 136.982 451.117 141.223 453.975 144.051C456.74 146.815 458.153 151.622 459.41 155.895C459.913 157.623 460.415 159.257 460.918 160.545C461.138 161.111 460.855 161.708 460.321 161.927C460.195 161.99 460.07 162.022 459.913 162.022Z" fill="#E5E5E5"/>
<path d="M469.965 205.598C469.525 205.598 469.149 205.347 468.96 204.907C465.504 196.299 464.248 185.24 463.117 175.437C462.74 172.233 462.394 169.185 461.986 166.295C461.797 165.038 461.735 163.404 461.672 161.519C461.515 156.932 461.263 150.617 458.939 148.261C457.745 147.067 456.174 146.219 454.478 145.307C453.253 144.648 451.996 143.957 450.865 143.14C450.394 142.794 450.3 142.103 450.645 141.632C450.991 141.16 451.682 141.066 452.153 141.412C453.127 142.134 454.289 142.763 455.483 143.422C457.211 144.365 459.033 145.339 460.447 146.753C463.4 149.706 463.619 156.209 463.808 161.456C463.871 163.278 463.934 164.881 464.091 166.012C464.499 168.902 464.845 171.981 465.222 175.186C466.321 184.831 467.609 195.764 470.939 204.09C471.159 204.656 470.876 205.253 470.342 205.473C470.248 205.567 470.122 205.598 469.965 205.598Z" fill="#E5E5E5"/>
<path d="M394.727 248.295C394.507 248.295 394.35 248.201 394.193 248.075C393.722 247.73 393.628 246.944 393.942 246.473C394.13 246.19 394.413 246.033 394.727 246.002C396.863 244.431 406.539 235.602 413.168 226.303C416.969 220.962 420.236 215.84 423.409 210.876C429.566 201.231 435.378 192.151 443.671 183.857C444.08 183.449 444.771 183.449 445.179 183.857C445.588 184.266 445.588 184.957 445.179 185.365C437.043 193.502 431.294 202.488 425.231 212.039C422.058 217.034 418.76 222.155 414.927 227.559C410.686 233.497 405.345 239.058 402.518 241.823C397.052 247.227 395.45 248.295 394.727 248.295Z" fill="#E5E5E5"/>
<path d="M433.336 143.799C432.833 143.799 432.362 143.422 432.268 142.888C431.545 138.49 430.1 134.186 428.718 129.976C427.744 127.054 426.739 124.006 425.985 120.959L425.922 120.77C424.728 115.618 423.786 112.978 423.252 111.816C420.33 117.094 422.309 124.006 424.226 130.698C425.357 134.657 426.425 138.395 426.425 141.632C426.425 142.228 425.953 142.7 425.357 142.7C424.76 142.7 424.288 142.228 424.288 141.632C424.288 138.678 423.252 135.097 422.184 131.295C420.142 124.132 417.817 116.026 421.964 109.837C422.341 109.271 422.906 109.02 423.472 109.114C424.257 109.24 425.545 109.491 428.027 120.267L428.058 120.425C428.812 123.409 429.786 126.394 430.728 129.284C432.142 133.557 433.587 137.956 434.341 142.511C434.435 143.108 434.058 143.642 433.462 143.737C433.43 143.799 433.367 143.799 433.336 143.799Z" fill="#E5E5E5"/>
<path d="M417.408 143.799C417.377 143.799 417.314 143.799 417.282 143.799C416.686 143.737 416.277 143.202 416.34 142.605C416.78 139.15 415.617 135.882 414.424 132.395C413.701 130.29 412.947 128.122 412.57 125.923C411.973 122.341 412.036 118.602 412.099 114.958C412.13 113.858 412.13 112.79 412.13 111.722C412.13 111.533 412.099 111.093 412.068 110.496C411.659 104.433 411.848 102.705 412.947 102.171C413.701 101.794 414.487 101.794 415.209 102.202C416.497 102.925 418.319 105.187 419.293 116.497L419.324 116.874C419.387 117.408 419.419 118.068 419.482 118.791C419.701 121.618 420.016 125.86 420.895 127.588C421.209 128.216 421.586 128.907 421.995 129.661C423.597 132.615 425.607 136.322 425.607 139.369C425.607 139.966 425.136 140.438 424.539 140.438C423.942 140.438 423.471 139.966 423.471 139.369C423.471 136.856 421.618 133.431 420.11 130.667C419.701 129.881 419.293 129.159 418.979 128.53C417.942 126.425 417.597 122.09 417.345 118.916C417.282 118.194 417.251 117.565 417.188 117.031L417.157 116.654C416.214 105.721 414.487 104.244 414.172 104.056C414.172 104.056 414.172 104.056 414.141 104.056C413.89 105.25 414.141 109.051 414.235 110.339C414.267 110.999 414.298 111.502 414.298 111.69C414.298 112.759 414.267 113.858 414.267 114.958C414.204 118.508 414.141 122.152 414.706 125.546C415.052 127.556 415.743 129.536 416.466 131.641C417.691 135.191 418.979 138.867 418.476 142.825C418.413 143.391 417.942 143.799 417.408 143.799Z" fill="#E5E5E5"/>
<path d="M413.639 145.245C413.042 145.245 412.571 144.773 412.571 144.176C412.571 141.129 411.377 138.238 410.089 135.191C408.581 131.641 407.042 127.933 407.544 123.912C407.796 121.901 408.141 119.859 408.455 117.88C408.927 115.115 409.398 112.287 409.618 109.491C410.058 104.119 410.749 104.119 411.534 104.119C412.131 104.119 412.602 104.59 412.602 105.187C412.602 105.47 412.476 105.721 412.319 105.941C412.131 106.601 411.848 108.674 411.785 109.68C411.534 112.57 411.063 115.46 410.592 118.257C410.277 120.205 409.932 122.215 409.681 124.195C409.241 127.651 410.623 130.918 412.068 134.374C413.387 137.484 414.707 140.689 414.707 144.176C414.707 144.773 414.236 145.245 413.639 145.245Z" fill="#E5E5E5"/>
<path d="M353.856 239.687C353.574 239.687 353.322 239.592 353.102 239.372C352.663 238.964 352.663 238.273 353.071 237.864C359.574 231.204 366.988 226.397 375.595 220.867C380.59 217.631 386.245 213.987 392.434 209.494C399.91 204.059 424.917 179.679 425.733 174.777C426.173 172.107 420.77 164.692 416.435 158.723C412.382 153.162 408.895 148.386 408.361 145.622C407.513 141.317 406.885 135.065 406.885 130.761C406.885 130.164 407.356 129.693 407.953 129.693C408.55 129.693 409.021 130.164 409.021 130.761C409.021 134.877 409.649 141.097 410.466 145.213C410.937 147.507 414.613 152.596 418.194 157.466C424.414 165.98 428.435 171.824 427.87 175.123C426.864 181.155 400.13 206.572 393.722 211.222C387.47 215.746 381.784 219.422 376.789 222.658C368.307 228.125 360.956 232.869 354.642 239.341C354.422 239.592 354.139 239.687 353.856 239.687Z" fill="#E5E5E5"/>
<path d="M374.244 222.344C374.118 222.344 374.024 222.313 373.898 222.281C372.956 221.967 372.013 221.653 371.102 221.37C360.233 217.82 348.986 214.112 342.546 203.399C341.855 202.237 342.704 198.938 346.913 186.559C347.667 184.36 348.327 182.412 348.704 181.155C350.023 176.851 351.123 171.981 352.254 166.797C355.803 150.806 359.825 132.677 372.799 124.006C379.804 119.325 388.223 120.896 396.36 122.435C400.192 123.158 403.805 123.818 407.135 123.818C407.732 123.818 408.203 124.289 408.203 124.886C408.203 125.483 407.732 125.954 407.135 125.954C403.617 125.954 399.878 125.263 395.952 124.509C388.255 123.064 380.276 121.556 373.993 125.766C361.741 133.934 357.814 151.622 354.358 167.206C353.196 172.421 352.097 177.354 350.746 181.721C350.369 182.977 349.678 184.957 348.924 187.187C347.321 191.931 344.306 200.728 344.431 202.331C350.463 212.29 361.301 215.84 371.762 219.265C372.705 219.579 373.647 219.893 374.589 220.208C375.155 220.396 375.469 220.993 375.281 221.558C375.124 222.061 374.715 222.344 374.244 222.344Z" fill="#E5E5E5"/>
<path d="M342.139 236.105C342.045 236.105 341.982 236.105 341.888 236.074C341.322 235.916 340.945 235.351 341.102 234.785C342.013 231.11 342.767 226.491 343.521 221.998C344.338 217.034 345.186 211.945 346.254 208.08C346.411 207.515 346.977 207.169 347.574 207.326C348.139 207.483 348.485 208.08 348.328 208.646C347.291 212.385 346.474 217.474 345.657 222.344C344.903 226.837 344.149 231.518 343.207 235.288C343.05 235.759 342.61 236.105 342.139 236.105Z" fill="#E5E5E5"/>
<path d="M385.553 215.432C384.957 215.432 384.485 214.961 384.485 214.364C384.485 209.117 385.93 203.336 387.344 197.744C390.109 186.716 392.967 175.343 385.396 166.672C385.019 166.232 385.051 165.541 385.491 165.164C385.93 164.787 386.622 164.818 386.999 165.258C395.324 174.746 392.308 186.716 389.418 198.278C387.972 203.996 386.622 209.368 386.622 214.364C386.653 214.961 386.15 215.432 385.553 215.432Z" fill="#E5E5E5"/>
<path d="M509.987 229.067C509.39 229.067 508.919 228.596 508.919 227.999C508.919 221.778 508.385 215.558 507.851 209.526C506.877 198.027 505.84 186.182 508.511 174.149C508.636 173.583 509.202 173.206 509.799 173.332C510.364 173.458 510.741 174.023 510.615 174.62C508.008 186.339 508.982 197.524 509.987 209.368C510.521 215.432 511.055 221.716 511.055 228.031C511.055 228.565 510.584 229.067 509.987 229.067Z" fill="#E5E5E5"/>
<path d="M452.31 386.753C411.314 386.753 383.009 371.264 375.721 362.75C375.218 362.153 374.558 361.493 373.836 360.771C371.637 358.54 369.124 355.995 368.589 353.325C368.181 351.22 369.438 347.355 371.511 340.915C374.872 330.578 380.464 313.267 382.569 290.552C382.632 289.955 383.166 289.515 383.731 289.578C384.328 289.641 384.768 290.144 384.705 290.741C382.569 313.707 376.914 331.144 373.522 341.575C371.762 347.041 370.349 351.345 370.663 352.885C371.071 354.927 373.427 357.315 375.344 359.231C376.066 359.985 376.789 360.677 377.323 361.336C381.752 366.52 409.052 384.68 452.467 384.68C470.53 384.68 491.358 381.538 514.542 373.024C515.108 372.835 515.705 373.118 515.925 373.652C516.145 374.218 515.831 374.815 515.296 375.035C492.207 383.549 470.939 386.753 452.31 386.753Z" fill="#E5E5E5"/>
<path d="M516.961 375.883C516.364 375.883 515.893 375.412 515.893 374.815C515.893 364.321 512.657 353.356 509.547 342.8C507.16 334.663 504.678 326.243 503.641 318.011C502.039 305.318 502.825 293.097 503.547 281.284C503.956 274.498 504.395 267.491 504.395 260.391C504.395 259.794 504.867 259.323 505.463 259.323C506.06 259.323 506.532 259.794 506.532 260.391C506.532 267.554 506.092 274.592 505.683 281.409C504.929 293.662 504.207 305.224 505.778 317.728C506.783 325.803 509.233 334.129 511.621 342.172C514.794 352.885 518.061 363.976 518.061 374.815C518.029 375.412 517.558 375.883 516.961 375.883Z" fill="#E5E5E5"/>
<path d="M378.549 461.182C378.077 461.182 377.637 460.868 377.512 460.366C370.601 431.932 370.601 379.81 370.601 357.566C370.601 356.969 371.072 356.498 371.669 356.498C372.266 356.498 372.737 356.969 372.737 357.566C372.737 379.747 372.737 431.681 379.585 459.863C379.711 460.428 379.365 461.025 378.8 461.151C378.737 461.182 378.643 461.182 378.549 461.182Z" fill="#E5E5E5"/>
<path d="M510.082 462.973C510.02 462.973 509.957 462.973 509.894 462.973C509.297 462.879 508.92 462.313 509.014 461.748C515.172 424.863 516.994 396.556 514.638 375.223C514.575 374.626 514.983 374.092 515.58 374.029C516.177 373.935 516.711 374.375 516.774 374.972C519.161 396.524 517.339 425.02 511.151 462.093C511.056 462.596 510.585 462.973 510.082 462.973Z" fill="#E5E5E5"/>
<path d="M448.007 460.931C447.504 460.931 447.064 460.586 446.938 460.051C446.09 455.873 445.65 451.506 445.179 446.856C444.268 437.745 443.294 428.351 439.116 420.748C437.451 417.732 434.624 415.124 431.859 412.61C430.823 411.636 429.786 410.694 428.812 409.751C428.404 409.343 428.404 408.652 428.812 408.243C429.221 407.835 429.912 407.835 430.32 408.243C431.263 409.186 432.268 410.097 433.273 411.04C436.163 413.679 439.116 416.412 440.97 419.711C445.368 427.691 446.342 437.305 447.284 446.636C447.755 451.223 448.195 455.527 449.012 459.612C449.137 460.208 448.76 460.774 448.164 460.868C448.164 460.931 448.101 460.931 448.007 460.931Z" fill="#E5E5E5"/>
<path d="M478.668 172.986C476.971 172.986 475.243 172.264 473.735 170.819C473.296 170.41 473.296 169.719 473.704 169.311C474.112 168.871 474.804 168.871 475.212 169.279C477.065 171.07 479.17 171.353 481.024 170.065C483.097 168.619 484.448 165.226 483.066 162.085C481.244 157.875 478.039 157.309 474.332 156.649C469.966 155.864 465.034 154.984 463.4 147.13C461.766 139.275 465.411 131.232 468.96 123.441C471.505 117.848 473.893 112.57 474.395 107.48C474.458 106.883 474.961 106.444 475.558 106.506C476.154 106.569 476.594 107.103 476.531 107.669C475.997 113.104 473.39 118.791 470.908 124.289C467.515 131.735 463.997 139.464 465.505 146.627C466.824 153.036 470.468 153.696 474.709 154.45C478.479 155.141 482.751 155.895 485.045 161.142C486.93 165.446 485.013 169.845 482.249 171.761C481.149 172.609 479.924 172.986 478.668 172.986Z" fill="#E5E5E5"/>
<path d="M503.108 133.494C502.762 133.494 502.448 133.337 502.228 133.023C501.882 132.52 502.008 131.861 502.511 131.515C502.699 131.389 502.95 131.044 502.982 130.761C503.013 130.604 502.982 130.573 502.951 130.541C502.102 129.316 501.223 128.248 500.343 127.179C497.421 123.629 494.626 120.236 495.788 113.764C500.029 89.9178 501.537 69.9989 495.065 50.3628C492.678 43.1367 487.023 30.758 475.62 28.7159C475.023 28.6216 474.646 28.0561 474.74 27.4592C474.834 26.8622 475.4 26.4852 475.997 26.5795C488.468 28.8101 494.563 42.0056 497.107 49.6716C503.704 69.7162 502.197 89.9492 497.924 114.11C496.95 119.608 499.181 122.341 502.008 125.797C502.888 126.865 503.83 127.996 504.71 129.284C505.087 129.818 505.212 130.447 505.087 131.107C504.93 131.923 504.396 132.772 503.704 133.243C503.516 133.432 503.327 133.494 503.108 133.494Z" fill="#E5E5E5"/>
<path d="M483.38 187.219C482.28 187.219 481.338 186.748 480.741 185.836C479.516 184.046 479.987 181.155 481.746 179.364C483.945 177.165 487.212 176.348 490.417 175.563C494.94 174.432 498.836 173.458 499.276 169.059C499.778 164.064 499.244 156.901 496.26 151.842C495.035 149.769 493.621 148.198 492.364 146.847C488.343 142.417 486.427 139.495 493.464 131.075C493.841 130.604 494.532 130.573 494.972 130.95C495.443 131.327 495.474 132.018 495.097 132.458C488.909 139.872 490.479 141.6 493.935 145.433C495.255 146.878 496.731 148.544 498.082 150.806C501.349 156.335 501.914 164.001 501.412 169.342C500.815 175.249 495.569 176.568 490.951 177.731C488.061 178.453 485.045 179.207 483.285 180.967C482.155 182.098 481.966 183.857 482.532 184.705C482.971 185.365 483.882 185.145 484.573 184.863C485.108 184.611 485.767 184.863 485.987 185.428C486.238 185.962 485.987 186.591 485.422 186.842C484.699 187.062 484.008 187.219 483.38 187.219Z" fill="#E5E5E5"/>
<path d="M476.97 188.004C476.75 188.004 476.562 187.941 476.373 187.816C474.551 186.559 472.886 182.569 473.546 179.27C474.017 176.757 475.745 175.06 478.352 174.495C478.918 174.369 479.515 174.746 479.64 175.312C479.766 175.877 479.389 176.474 478.823 176.6C477.033 176.977 475.996 178.013 475.651 179.679C475.148 182.318 476.593 185.365 477.598 186.025C478.101 186.371 478.227 187.03 477.881 187.533C477.661 187.847 477.316 188.004 476.97 188.004Z" fill="#E5E5E5"/>
<path d="M167.127 240.881C166.561 240.881 166.09 240.441 166.059 239.875C166.027 239.278 166.467 238.776 167.064 238.713L307.802 228.062C307.896 228.062 308.022 228.062 308.116 228.093L312.106 228.973C312.671 229.099 313.048 229.664 312.923 230.261C312.797 230.827 312.2 231.204 311.635 231.078L307.802 230.23L167.221 240.881C167.19 240.881 167.158 240.881 167.127 240.881Z" fill="#E5E5E5"/>
<path d="M246.166 270.539C246.041 270.539 245.947 270.508 245.821 270.476L174.007 246.693C173.441 246.504 173.127 245.907 173.316 245.342C173.504 244.776 174.101 244.462 174.666 244.651L246.292 268.371L419.23 255.081L333.374 235.948C332.808 235.822 332.431 235.257 332.557 234.66C332.683 234.063 333.28 233.717 333.845 233.843L426.739 254.547C427.273 254.673 427.618 255.144 427.587 255.678C427.555 256.212 427.116 256.621 426.582 256.684L246.229 270.539C246.229 270.539 246.198 270.539 246.166 270.539Z" fill="#E5E5E5"/>
<path d="M277 239L250.5 259.5L322.5 246.5C322.5 245.5 312.834 240.842 306 239C295.065 236.053 281.167 237.5 277 239Z" stroke="#E5E5E5" stroke-width="2"/>
<path d="M245.412 286.154C245.287 286.154 245.193 286.122 245.067 286.091L201.84 271.764C201.275 271.576 200.961 270.979 201.149 270.413C201.338 269.848 201.934 269.534 202.5 269.722L245.57 284.017L424.728 270.256L425.136 255.584C425.168 254.987 425.671 254.516 426.236 254.547C426.833 254.579 427.304 255.05 427.273 255.647L426.833 271.293C426.833 271.858 426.393 272.298 425.828 272.33L245.475 286.185C245.475 286.154 245.444 286.154 245.412 286.154Z" fill="#E5E5E5"/>
<path d="M245.852 286.279C245.821 286.279 245.821 286.279 245.852 286.279C245.255 286.279 244.784 285.808 244.784 285.211L244.816 269.753C244.816 269.156 245.287 268.685 245.884 268.685C246.481 268.685 246.952 269.156 246.952 269.753L246.92 285.211C246.92 285.776 246.418 286.279 245.852 286.279Z" fill="#E5E5E5"/>
<path d="M246.48 301.988C246.355 301.988 246.26 301.957 246.135 301.925L218.364 292.814C217.799 292.626 217.484 292.029 217.673 291.463C217.861 290.898 218.458 290.583 219.024 290.772L246.606 299.852L420.958 286.562L421.335 272.424C421.366 271.827 421.838 271.387 422.435 271.387C423.031 271.419 423.503 271.89 423.471 272.487L423.063 287.599C423.063 288.164 422.623 288.604 422.058 288.636L246.543 302.02C246.543 301.988 246.512 301.988 246.48 301.988Z" fill="#E5E5E5"/>
<path d="M246.889 302.082C246.292 302.082 245.821 301.611 245.821 301.014L245.852 286.091C245.852 285.494 246.323 285.022 246.92 285.022C247.517 285.022 247.988 285.494 247.988 286.091L247.957 301.014C247.957 301.611 247.486 302.082 246.889 302.082Z" fill="#E5E5E5"/>
<path d="M326.902 238.179C324.703 238.179 322.567 237.802 321.75 237.55C318.137 236.482 314.65 234.157 312.42 231.361C312.043 230.89 312.137 230.23 312.608 229.853C313.08 229.476 313.739 229.57 314.116 230.041C316.064 232.492 319.143 234.534 322.378 235.508C324.389 236.105 329.981 236.451 331.143 235.037C331.426 234.691 331.363 234.094 330.923 233.277C330.766 232.963 329.824 232.586 329.29 232.335C328.818 232.115 328.347 231.926 328.002 231.707C326.965 231.015 325.897 230.261 324.766 229.444C321.782 227.277 318.671 225.015 315.593 224.323C314.305 224.041 312.86 224.606 311.352 225.203C310.629 225.486 309.907 225.769 309.184 225.988C307.802 226.365 306.388 226.837 304.912 227.339C301.896 228.376 298.755 229.444 295.582 229.602C295.048 229.633 294.482 229.162 294.451 228.565C294.419 227.968 294.891 227.465 295.487 227.434C298.346 227.308 301.331 226.271 304.221 225.297C305.666 224.795 307.174 224.292 308.619 223.883C309.216 223.726 309.875 223.475 310.566 223.192C312.231 222.533 314.116 221.778 316.064 222.218C319.582 223.004 323.007 225.486 326.054 227.685C327.153 228.47 328.19 229.225 329.195 229.884C329.415 230.01 329.792 230.198 330.169 230.356C331.175 230.795 332.337 231.298 332.871 232.272C333.97 234.314 333.468 235.634 332.871 236.388C331.677 237.77 329.227 238.179 326.902 238.179Z" fill="#E5E5E5"/>
<path d="M465.63 174.4C465.222 174.4 464.814 174.149 464.657 173.772C464.405 173.238 464.657 172.578 465.191 172.358C470.406 170.033 473.673 165.006 476.846 160.137C477.254 159.508 477.631 158.911 478.039 158.314C478.353 157.812 479.045 157.686 479.516 158C480.018 158.314 480.144 159.006 479.83 159.477C479.453 160.074 479.045 160.671 478.636 161.268C475.463 166.169 471.851 171.698 466.039 174.306C465.945 174.369 465.788 174.4 465.63 174.4Z" fill="#E5E5E5"/>
<path d="M436.886 122.278C434.31 122.278 431.891 120.487 430.666 119.388C428.592 117.534 426.582 114.707 426.77 113.104C426.833 112.602 427.116 112.162 427.555 111.942C428.184 111.628 429.095 111.659 431.074 111.816C432.676 111.942 434.687 112.067 436.666 111.91C438.645 111.753 440.404 111.502 441.818 111.282C443.703 110.999 444.834 110.811 445.588 111.031C446.09 111.188 446.593 111.659 446.499 112.602C446.279 114.801 442.069 121.933 437.231 122.278C437.137 122.278 437.011 122.278 436.886 122.278ZM429.063 113.858C429.409 114.707 430.446 116.309 432.111 117.754C433.901 119.325 435.692 120.205 437.137 120.11C440.153 119.922 443.357 115.209 444.205 113.136C443.64 113.198 442.886 113.324 442.195 113.418C440.75 113.638 438.959 113.921 436.886 114.078C434.749 114.235 432.645 114.11 430.98 113.984C430.32 113.921 429.566 113.858 429.063 113.858Z" fill="#E5E5E5"/>
</g>
<defs>
<clipPath id="clip0">
<rect width="560" height="468" fill="white"/>
</clipPath>
</defs>
</svg>
