<svg width="504" height="132" viewBox="0 0 504 132" fill="none" xmlns="http://www.w3.org/2000/svg">
<path d="M228.736 12.5252C265.043 3.86422 272.141 38.0566 271.989 44.2544C250.642 31.3974 236.993 35.0158 228.736 12.5252Z" fill="#6C9736"/>
<path d="M224.267 11.6752C224.218 11.5424 224.092 10.7523 224.251 10.7158C230.473 12.224 236.524 14.3721 242.31 17.1261C243.893 16.8904 245.397 16.1966 246.862 15.5127C247.607 15.1608 248.382 14.7923 248.9 14.1483C248.448 15.3335 247.251 16.0339 246.146 16.6414C245.353 17.1118 244.511 17.4925 243.636 17.7767C245.77 18.8456 247.775 19.9644 249.652 21.1163C251.69 20.9513 253.696 20.5045 255.612 19.7884L257.229 19.0315C255.384 20.5606 253.143 21.527 250.77 21.8167C252.529 22.9366 254.173 24.0763 255.702 25.236C258.04 25.1463 260.336 24.509 262.595 23.8749C260.757 24.945 258.731 25.6483 256.628 25.9464C258.983 27.7783 261.213 29.7679 263.301 31.9018C264.972 32.198 266.668 32.3292 268.364 32.2935C267.081 32.9176 265.31 32.8778 264.099 32.7351C268.302 37.2199 270.868 41.3661 271.989 44.2542C269.631 40.2424 266.782 36.5442 263.509 33.2463C263.366 34.7675 262.859 36.2313 262.031 37.512C262.437 35.8522 262.843 34.116 262.691 32.4097C260.701 30.453 258.598 28.6152 256.394 26.9057C256.216 29.2295 255.939 31.5831 254.771 33.5749C255.541 31.1231 255.687 28.5162 255.197 25.9928C253.548 24.7646 251.828 23.5861 250.038 22.4574C250.038 25.2094 249.177 28.2104 247.812 31.0088C248.498 28.0212 249.408 24.2699 248.926 21.7669C246.923 20.5519 244.845 19.4078 242.692 18.3344C242.844 20.5951 242.316 23.9778 241.083 26.192C241.759 23.4931 242.148 20.0806 241.577 17.79C236.039 15.1397 230.236 13.0899 224.267 11.6752Z" fill="#245800"/>
<path d="M225.89 23.5264C226.2 22.079 223.541 3.1537 224.468 1.16523C223.086 -0.982581 220.949 0.408351 220.012 0.879742C219.794 5.03926 221.641 19.9179 221.991 23.0218C223.04 24.4227 225.204 24.3895 225.89 23.5264Z" fill="#6C9736"/>
<path d="M223.825 21.5778C223.624 18.9653 223.367 16.3527 223.165 13.7368C222.964 11.121 222.835 8.53826 222.875 5.93566C222.895 4.6078 222.958 3.2567 223.093 1.92552C223.157 1.32798 223.224 0.731554 223.294 0.13623C223.782 0.341773 224.192 0.700335 224.462 1.15868C223.535 3.15047 226.193 22.0725 225.883 23.5198C225.527 23.968 224.768 24.1838 223.973 24.1074C223.938 23.2687 223.889 22.4255 223.825 21.5778Z" fill="#245800"/>
<path d="M226.009 22.8194C225.603 24.2734 222.766 24.3597 222.38 23.1215C221.678 20.8774 216.997 22.0194 213.115 26.866C206.518 35.0988 204.793 48.3707 198.156 61.4203C191.49 74.5296 189.283 88.1335 192.879 101.588C198.367 122.094 212.228 134.024 233.668 130.346C262.859 125.343 265.425 95.4898 264.584 84.6943C263.285 67.9699 258.865 62.4128 253.115 53.5959C246.542 43.5074 241.241 30.7899 236.57 25.2062C233.73 21.7737 226.734 20.2799 226.009 22.8194Z" fill="#245800"/>
<path d="M225.837 23.1744C224.933 24.0043 223.891 24.1238 222.598 23.5064C219.111 23.1213 215.523 25.2625 212.66 30.3947C207.758 39.1751 205.845 49.7217 199.528 62.1471C193.179 74.629 191.078 87.5823 194.508 100.383C199.733 119.909 212.933 131.256 233.344 127.767C261.141 123 263.582 94.5701 262.783 84.2991C261.543 68.3648 257.338 63.0833 251.862 54.6879C245.595 45.0808 240.403 32.2603 236.326 27.5829C233.945 24.8409 228.845 22.2748 225.837 23.1744Z" fill="#BDD150"/>
<path d="M224.57 28.6851C220.843 29.11 216.773 30.9557 214.226 35.5202C209.879 43.2949 208.197 52.6496 202.589 63.6675C196.959 74.7386 194.953 87.2669 197.939 98.9919C202.362 116.364 216.473 126.067 233.067 123.816C256.486 120.639 260.036 94.2349 259.33 85.1191C258.228 70.994 253.858 64.5008 249.006 57.0548C243.451 48.5333 238.843 37.1601 235.225 33.0139C233.107 30.5939 228.977 28.4062 224.57 28.6851Z" fill="#E1FF6E"/>
<path d="M245.912 87.8379C245.882 87.5325 245.842 87.2271 245.799 86.9184C245.799 86.7856 245.756 86.6495 245.737 86.5134C245.717 86.3773 245.684 86.1814 245.654 85.9988C245.625 85.8162 245.588 85.6669 245.555 85.4876C245.522 85.3083 245.502 85.2154 245.473 85.0793C245.443 84.9432 245.39 84.7108 245.344 84.5282C245.324 84.4353 245.305 84.3423 245.281 84.2527C243.012 75.0506 235.765 65.7025 226.615 66.3266C226.104 66.3629 225.596 66.435 225.095 66.5424C223.382 66.9203 221.77 67.6616 220.365 68.7168C220.127 68.8861 219.896 69.0686 219.666 69.2545C219.441 69.4404 219.217 69.633 219.006 69.8322C218.788 70.0347 218.57 70.2438 218.346 70.4562C217.047 71.8073 215.923 73.3187 215.002 74.9544C214.85 75.2233 214.698 75.4955 214.553 75.7743L214.533 75.8108C214.391 76.0797 214.253 76.3519 214.121 76.6275L214.094 76.6839C213.963 76.9561 213.834 77.2316 213.712 77.5072L213.685 77.5669C213.56 77.8458 213.441 78.1246 213.329 78.4035C213.32 78.4228 213.312 78.4428 213.306 78.4632C213.191 78.7454 213.079 79.0276 212.976 79.3131C212.977 79.3285 212.977 79.3441 212.976 79.3595C212.871 79.6483 212.765 79.9405 212.666 80.2326V80.2525C212.465 80.8501 212.284 81.4542 212.119 82.0551C212.04 82.3439 211.967 82.6327 211.894 82.9215C211.894 82.9447 211.894 82.9647 211.894 82.9879C211.828 83.2645 211.766 83.5401 211.706 83.8145L211.687 83.9108C211.631 84.1797 211.581 84.4452 211.532 84.7108L211.512 84.8237C211.466 85.0859 211.426 85.3449 211.386 85.6038L211.37 85.7233C211.334 85.9822 211.301 86.2345 211.271 86.4868C211.271 86.53 211.271 86.5698 211.271 86.6096C211.245 86.8619 211.222 87.1109 211.202 87.3599V87.4694C211.182 87.7217 211.169 87.9707 211.159 88.2163C211.157 88.2462 211.157 88.2761 211.159 88.306C211.159 88.555 211.142 88.8039 211.139 89.0496C211.141 89.0695 211.141 89.0894 211.139 89.1093C211.139 89.3616 211.139 89.6106 211.139 89.8529C211.357 95.7719 214.306 108.526 226.467 109.353C226.672 109.353 226.883 109.379 227.094 109.386C227.305 109.392 227.519 109.386 227.753 109.386H228.413C228.858 109.369 229.314 109.339 229.782 109.296C231.937 109.11 234.038 108.52 235.976 107.557C237.433 106.797 238.767 105.822 239.935 104.662C240.387 104.212 240.817 103.739 241.221 103.244C245.047 98.5604 246.36 92.2331 245.912 87.8379Z" fill="#B55028"/>
<path d="M40.576 116H31.424L12.48 94.624V116H5.24799V71.2H12.48V91.68L30.592 71.2H39.68L20.352 93.024L40.576 116Z" fill="white"/>
<path d="M80.2585 78.112H58.2425V89.696H78.6585V96.608H58.2425V109.088H80.2585V116H51.0105V71.2H80.2585V78.112Z" fill="white"/>
<path d="M122.631 71.2V78.112H108.935V116H101.703V78.112H88.0715V71.2H122.631Z" fill="white"/>
<path d="M136.771 77.088C141.251 72.6507 146.777 70.432 153.347 70.432C159.918 70.432 165.422 72.6507 169.859 77.088C174.297 81.5253 176.537 87.0293 176.579 93.6C176.537 100.171 174.297 105.675 169.859 110.112C165.422 114.549 159.918 116.768 153.347 116.768C146.777 116.768 141.251 114.549 136.771 110.112C132.334 105.675 130.115 100.171 130.115 93.6C130.115 87.0293 132.334 81.5253 136.771 77.088ZM153.347 77.344C148.782 77.344 144.985 78.9013 141.955 82.016C138.926 85.088 137.411 88.9493 137.411 93.6C137.411 98.2507 138.926 102.133 141.955 105.248C144.985 108.32 148.782 109.856 153.347 109.856C157.87 109.856 161.646 108.32 164.675 105.248C167.705 102.133 169.219 98.2507 169.219 93.6C169.219 88.9493 167.705 85.088 164.675 82.016C161.646 78.9013 157.87 77.344 153.347 77.344Z" fill="white"/>
<path d="M305.616 71.2C310.48 71.2 314.32 72.544 317.136 75.232C319.952 77.92 321.36 81.4827 321.36 85.92C321.36 90.3573 319.931 93.9627 317.072 96.736C314.256 99.4667 310.437 100.832 305.616 100.832H294.48V116H287.248V71.2H305.616ZM305.36 93.92C308.176 93.92 310.309 93.1947 311.76 91.744C313.253 90.2933 314 88.3733 314 85.984C314 83.5947 313.275 81.696 311.824 80.288C310.373 78.8373 308.219 78.112 305.36 78.112H294.48V93.92H305.36Z" fill="white"/>
<path d="M333.073 116V71.2H340.305V116H333.073Z" fill="white"/>
<path d="M386.983 116L382.439 103.968H362.983L358.439 116H350.759L368.103 71.2H377.319L394.663 116H386.983ZM365.607 97.12H379.815L372.711 78.368L365.607 97.12Z" fill="white"/>
<path d="M435.05 71.2H442.282V116H433.706L411.306 81.376L412.01 97.248V116H404.778V71.2H413.29L435.69 105.76L435.05 89.952V71.2Z" fill="white"/>
<path d="M460.409 77.088C464.889 72.6507 470.414 70.432 476.985 70.432C483.556 70.432 489.06 72.6507 493.497 77.088C497.934 81.5253 500.174 87.0293 500.217 93.6C500.174 100.171 497.934 105.675 493.497 110.112C489.06 114.549 483.556 116.768 476.985 116.768C470.414 116.768 464.889 114.549 460.409 110.112C455.972 105.675 453.753 100.171 453.753 93.6C453.753 87.0293 455.972 81.5253 460.409 77.088ZM476.985 77.344C472.42 77.344 468.622 78.9013 465.593 82.016C462.564 85.088 461.049 88.9493 461.049 93.6C461.049 98.2507 462.564 102.133 465.593 105.248C468.622 108.32 472.42 109.856 476.985 109.856C481.508 109.856 485.284 108.32 488.313 105.248C491.342 102.133 492.857 98.2507 492.857 93.6C492.857 88.9493 491.342 85.088 488.313 82.016C485.284 78.9013 481.508 77.344 476.985 77.344Z" fill="white"/>
</svg>
