<svg width="20" height="20" viewBox="0 0 20 20" fill="none" xmlns="http://www.w3.org/2000/svg">
<path opacity="0.5" d="M16.1737 19.6799C16.1668 19.6799 16.1599 19.6799 16.1531 19.6799C12.8462 19.5716 8.97213 16.3661 6.30291 13.6952C3.63026 11.0243 0.424789 7.14849 0.321664 3.85708C0.283852 2.70208 3.11807 0.648175 3.14729 0.62755C3.88291 0.115363 4.69932 0.29755 5.03448 0.761612C5.26135 1.07614 7.40979 4.33146 7.64354 4.70099C7.88588 5.08427 7.84979 5.65489 7.54729 6.22724C7.38057 6.54521 6.82713 7.51802 6.5676 7.97177C6.84776 8.37052 7.58854 9.34849 9.11823 10.8782C10.6496 12.4079 11.6259 13.1504 12.0264 13.4305C12.4801 13.171 13.4529 12.6175 13.7709 12.4508C14.3346 12.1518 14.9018 12.114 15.2885 12.3511C15.6839 12.5935 18.9306 14.7522 19.2296 14.9602C19.4806 15.1372 19.6421 15.4397 19.6748 15.7921C19.7057 16.1479 19.5957 16.5243 19.3671 16.8526C19.3482 16.8801 17.3184 19.6799 16.1737 19.6799Z" fill="#434343"/>
</svg>
