<svg width="40" height="40" viewBox="0 0 40 40" fill="none" xmlns="http://www.w3.org/2000/svg">
<path d="M38.2963 16.8751H37.7045L33.5716 6.54232L35.9514 5.9095C36.367 5.80024 36.7221 5.53036 36.9387 5.15924C37.1553 4.78812 37.2156 4.34617 37.1063 3.9306C36.9971 3.51502 36.7272 3.15988 36.3561 2.94329C35.985 2.7267 35.543 2.66641 35.1274 2.77567L22.622 6.06747C22.1878 5.58583 21.6295 5.23299 21.0081 5.04763C20.3867 4.86226 19.7263 4.85153 19.0992 5.01659C18.4722 5.18165 17.9026 5.51615 17.4531 5.98342C17.0035 6.45069 16.6912 7.0327 16.5505 7.66567L3.96688 10.9792C3.58714 11.0795 3.25685 11.3145 3.03758 11.6403C2.8183 11.9662 2.72502 12.3607 2.77511 12.7502C2.8252 13.1398 3.01526 13.4978 3.30984 13.7576C3.60442 14.0173 3.98342 14.1611 4.37617 14.1621C4.51612 14.162 4.65547 14.1438 4.79078 14.1081L6.125 13.7694L2.29625 23.2813H1.70313C1.53144 23.2801 1.36122 23.3129 1.20223 23.3777C1.04324 23.4425 0.898616 23.538 0.776662 23.6589C0.654707 23.7797 0.557824 23.9235 0.491577 24.0819C0.42533 24.2402 0.391022 24.4102 0.390625 24.5818C0.390995 24.841 0.46866 25.0942 0.613687 25.309C0.758715 25.5238 0.964514 25.6904 1.20477 25.7876C1.29172 27.4737 1.97531 28.8915 3.19617 29.9076C4.38664 30.8985 6.04883 31.4433 7.87648 31.4433C9.70078 31.4433 11.3706 30.8915 12.5784 29.8903C13.8123 28.8673 14.5036 27.4534 14.5924 25.785C14.7535 25.7188 14.8998 25.6212 15.0228 25.4979C15.145 25.3786 15.2419 25.236 15.308 25.0785C15.374 24.9211 15.4078 24.752 15.4073 24.5812C15.4068 24.4096 15.3724 24.2397 15.3061 24.0814C15.2397 23.923 15.1428 23.7793 15.0208 23.6586C14.8988 23.5378 14.7542 23.4423 14.5952 23.3775C14.4362 23.3128 14.266 23.2801 14.0944 23.2813H13.502L9.3568 12.9183L17.3712 10.8016C17.6623 11.1253 18.0105 11.3926 18.3984 11.5901L18.3655 31.2501H15.9508C15.2029 31.2482 14.4816 31.528 13.9306 32.0338C13.3797 32.5396 13.0393 33.2342 12.9772 33.9796C12.3678 34.1643 11.8335 34.5394 11.4528 35.0498C11.072 35.5602 10.8647 36.1791 10.8612 36.8159C10.861 36.8761 10.873 36.9356 10.8965 36.991C10.92 37.0464 10.9545 37.0965 10.9978 37.1382C11.0419 37.1804 11.094 37.2135 11.151 37.2354C11.208 37.2573 11.2689 37.2676 11.3299 37.2657H28.6701C28.7313 37.2673 28.7923 37.2565 28.8493 37.2341C28.9063 37.2116 28.9582 37.178 29.002 37.135C29.0457 37.0921 29.0804 37.0409 29.1039 36.9843C29.1274 36.9277 29.1393 36.867 29.1388 36.8057C29.1355 36.1697 28.9281 35.5515 28.5472 35.0421C28.1663 34.5328 27.632 34.1591 27.0228 33.9761C26.9604 33.2316 26.6201 32.5377 26.0695 32.0326C25.5189 31.5275 24.7984 31.2481 24.0512 31.2501H21.6348L21.6352 11.5704C22.0925 11.3304 22.4919 10.9935 22.8057 10.5834C23.1194 10.1732 23.3399 9.6995 23.4519 9.19536L30.3141 7.40091L26.4988 16.8751H25.905C25.6021 16.8726 25.3078 16.9759 25.0728 17.1671C24.8379 17.3584 24.677 17.6256 24.618 17.9228C24.559 18.2199 24.6055 18.5283 24.7495 18.7949C24.8934 19.0614 25.1259 19.2694 25.4068 19.3829C25.4935 21.0693 26.1772 22.4858 27.3983 23.5022C28.5888 24.493 30.2509 25.0371 32.0785 25.0371C33.9029 25.0371 35.5727 24.4848 36.7805 23.4836C38.0148 22.4601 38.706 21.0461 38.7946 19.3767C39.0754 19.2638 39.308 19.0564 39.452 18.7902C39.596 18.5241 39.6425 18.2159 39.5834 17.9191C39.5243 17.6223 39.3633 17.3555 39.1282 17.1649C38.8932 16.9742 38.5989 16.8717 38.2963 16.8751ZM11.98 29.1563C10.9401 30.0185 9.48281 30.499 7.87648 30.499C6.2675 30.499 4.81836 30.0218 3.79594 29.1709C2.81844 28.3575 2.25641 27.2657 2.15164 25.8594H13.6453C13.538 27.1876 12.9688 28.3368 11.98 29.1563ZM14.0941 24.2188C14.1428 24.2174 14.1912 24.2258 14.2366 24.2434C14.2819 24.261 14.3233 24.2875 14.3583 24.3214C14.3933 24.3552 14.4211 24.3957 14.4403 24.4404C14.4594 24.4852 14.4694 24.5333 14.4697 24.5819C14.4697 24.6286 14.46 24.6748 14.441 24.7175C14.4221 24.7602 14.3944 24.7985 14.3597 24.8297C14.3239 24.8622 14.282 24.8872 14.2363 24.903C14.1907 24.9189 14.1423 24.9253 14.0941 24.9219H1.70367C1.65505 24.9242 1.60648 24.9166 1.56085 24.8997C1.51522 24.8827 1.47345 24.8568 1.43805 24.8234C1.40339 24.7922 1.37569 24.754 1.35676 24.7114C1.33782 24.6688 1.32806 24.6226 1.32813 24.576C1.32854 24.5276 1.33868 24.4799 1.35794 24.4355C1.37719 24.3912 1.40517 24.3511 1.4402 24.3178C1.47524 24.2845 1.51662 24.2586 1.56188 24.2415C1.60714 24.2245 1.65536 24.2168 1.70367 24.2188H14.0941ZM12.4922 23.2813H3.30703L7.25555 13.4717L8.44305 13.1653L12.4922 23.2813ZM4.55211 13.2015C4.37763 13.2474 4.19204 13.2222 4.03617 13.1313C3.8803 13.0404 3.76692 12.8913 3.72098 12.7168C3.67503 12.5423 3.70028 12.3567 3.79117 12.2009C3.88206 12.045 4.03114 11.9316 4.20563 11.8857L16.4727 8.65544C16.5005 9.11249 16.6175 9.55967 16.8171 9.97177L4.55211 13.2015ZM26.1544 34.7657C27.1173 34.7657 27.9278 35.4688 28.1447 36.3282H11.8556C11.9711 35.8857 12.2285 35.4933 12.5883 35.2111C12.9481 34.9289 13.3906 34.7724 13.8478 34.7657H26.1544ZM24.0405 32.1876H24.0491C24.5233 32.1834 24.984 32.3451 25.3516 32.6447C25.7192 32.9443 25.9705 33.3629 26.062 33.8282H13.9384C14.0321 33.362 14.2854 32.9431 14.6548 32.6436C15.0241 32.3442 15.4863 32.1829 15.9618 32.1876H24.0405ZM19.303 31.2501L19.3352 11.9097C19.7854 11.9967 20.2483 11.9945 20.6977 11.9032V31.2501H19.303ZM20 11.0326C19.4862 11.0327 18.984 10.8804 18.5567 10.595C18.1295 10.3096 17.7965 9.90392 17.5999 9.42927C17.4032 8.95461 17.3517 8.4323 17.4519 7.92839C17.5521 7.42447 17.7995 6.96158 18.1628 6.59826C18.526 6.23494 18.9889 5.98751 19.4928 5.88725C19.9967 5.787 20.519 5.83842 20.9937 6.03502C21.4684 6.23162 21.8741 6.56457 22.1595 6.99176C22.445 7.41895 22.5973 7.92119 22.5973 8.43497C22.5966 9.12363 22.3227 9.78387 21.8358 10.2709C21.3489 10.7578 20.6887 11.0318 20 11.0326ZM23.5266 8.20497C23.4975 7.748 23.3792 7.30114 23.1785 6.88958L35.366 3.68028C35.5398 3.63639 35.7239 3.66286 35.8783 3.75394C36.0327 3.84502 36.1449 3.99336 36.1906 4.16671C36.2362 4.34006 36.2116 4.52443 36.1221 4.67974C36.0326 4.83505 35.8854 4.94875 35.7125 4.99614L23.5266 8.20497ZM31.4453 7.10231L32.658 6.78911L36.6945 16.8751H27.5095L31.4453 7.10231ZM36.1824 22.7501C35.1425 23.6122 33.6852 24.0926 32.0788 24.0926C30.4699 24.0926 29.0207 23.6156 27.9984 22.7645C27.0209 21.9511 26.4588 20.8594 26.3541 19.4532H37.8477C37.7405 20.7813 37.1713 21.9303 36.1824 22.7501ZM38.2963 18.5157H25.9063C25.8581 18.5189 25.8098 18.5122 25.7644 18.496C25.719 18.4797 25.6773 18.4544 25.6421 18.4214C25.6069 18.3885 25.5788 18.3486 25.5596 18.3044C25.5404 18.2601 25.5305 18.2124 25.5305 18.1641C25.5305 18.1159 25.5404 18.0681 25.5596 18.0239C25.5788 17.9796 25.6069 17.9398 25.6421 17.9068C25.6773 17.8739 25.719 17.8485 25.7644 17.8323C25.8098 17.816 25.8581 17.8093 25.9063 17.8126H38.2969C38.345 17.8093 38.3933 17.816 38.4387 17.8323C38.4842 17.8485 38.5258 17.8739 38.561 17.9068C38.5963 17.9398 38.6244 17.9796 38.6436 18.0239C38.6628 18.0681 38.6727 18.1159 38.6727 18.1641C38.6727 18.2124 38.6628 18.2601 38.6436 18.3044C38.6244 18.3486 38.5963 18.3885 38.561 18.4214C38.5258 18.4544 38.4842 18.4797 38.4387 18.496C38.3933 18.5122 38.345 18.5189 38.2969 18.5157H38.2963Z" fill="#9D9D9D"/>
</svg>
