<svg width="459" height="520" viewBox="0 0 459 520" fill="none" xmlns="http://www.w3.org/2000/svg">
<g clip-path="url(#clip0)">
<path d="M265.612 76.4553C265.03 76.4553 264.286 76.002 264.124 75.2572C263.963 74.5124 264.415 73.638 265.159 73.4761C267.972 72.7313 272.433 70.6588 273.629 68.2625C273.92 67.5177 274.825 67.2263 275.569 67.6796C276.312 68.133 276.603 68.8778 276.151 69.6226C274.373 73.0552 268.877 75.581 265.773 76.3258L265.612 76.4553Z" fill="#E5E5E5"/>
<path d="M266.807 82.4137C266.355 82.4137 265.773 82.1223 265.611 81.6689C265.159 80.9241 265.32 80.0498 266.064 79.5965C270.072 77.0706 273.629 74.0914 276.603 70.6912C277.185 70.1084 278.09 69.9464 278.672 70.5293C279.254 71.1122 279.415 72.0189 278.833 72.6018C275.568 76.1639 271.851 79.4346 267.712 81.9604C267.389 82.2518 267.098 82.4137 266.807 82.4137Z" fill="#E5E5E5"/>
<path d="M331.788 166.997C330.883 166.997 330.301 166.414 330.301 165.508C330.301 159.711 329.396 154.368 327.617 149.737C327.326 148.992 327.779 148.086 328.523 147.794C329.266 147.503 330.139 147.956 330.462 148.701C332.402 153.753 333.275 159.387 333.275 165.508C333.275 166.252 332.531 166.997 331.788 166.997Z" fill="#E5E5E5"/>
<path d="M217.7 33.6779C217.538 33.6779 217.538 33.6779 217.409 33.6779C216.665 33.516 216.083 32.6417 216.212 31.8969C216.956 28.7881 220.383 20.3039 225.264 20.3039C226.17 20.3039 226.751 20.8868 226.751 21.7935C226.751 22.7002 226.17 23.2831 225.264 23.2831C222.904 23.2831 219.769 29.2415 219.025 32.5121C218.863 33.0626 218.281 33.6779 217.7 33.6779Z" fill="#E5E5E5"/>
<path d="M221.547 36.6247C221.386 36.6247 221.095 36.6247 220.966 36.4628C220.222 36.1714 219.931 35.2647 220.384 34.5199C222.453 30.3425 224.845 27.0719 227.496 24.2546C228.078 23.6717 228.983 23.6717 229.565 24.2546C230.147 24.8375 230.147 25.7442 229.565 26.3271C227.043 28.8529 224.813 31.9616 222.873 35.8476C222.744 36.2038 222.129 36.6247 221.547 36.6247Z" fill="#E5E5E5"/>
<path d="M16.9082 244.586C16.9082 244.586 16.9082 247.274 18.1044 249.055C19.1389 250.706 21.2079 251.419 21.2079 251.419C21.2079 251.419 19.4298 251.581 18.5246 253.2C17.6194 254.819 17.4901 258.089 17.4901 258.089C17.4901 258.089 17.1992 254.981 16.1647 253.329C15.1301 251.71 13.1904 251.386 13.1904 251.386C13.1904 251.386 14.8069 251.095 15.7121 249.314C16.6173 247.565 16.9082 244.586 16.9082 244.586Z" fill="#E5E5E5"/>
<path d="M3.55614 204.01C3.55614 204.01 3.55614 206.536 4.59065 208.188C5.62516 209.807 7.56487 210.422 7.56487 210.422C7.56487 210.422 5.94844 210.584 5.04325 212.203C4.13805 213.822 4.00873 216.963 4.00873 216.963C4.00873 216.963 3.71778 213.984 2.81258 212.365C1.77807 210.714 0 210.422 0 210.422C0 210.422 1.48711 210.131 2.35998 208.479C3.26518 206.99 3.55614 204.01 3.55614 204.01Z" fill="#E5E5E5"/>
<path d="M25.8311 187.204C25.8311 187.204 25.8311 189.276 26.7363 190.766C27.6415 192.094 29.0963 192.709 29.0963 192.709C29.0963 192.709 27.7708 192.871 27.0272 194.199C26.2837 195.526 26.122 198.214 26.122 198.214C26.122 198.214 25.9604 195.688 25.0875 194.36C24.1823 193.033 22.7275 192.741 22.7275 192.741C22.7275 192.741 23.9237 192.45 24.6672 191.122C25.5078 189.568 25.8311 187.204 25.8311 187.204Z" fill="#E5E5E5"/>
<path d="M120.941 286.359C120.941 286.359 120.941 289.047 122.138 290.828C123.172 292.447 125.241 293.192 125.241 293.192C125.241 293.192 123.463 293.354 122.558 294.973C121.653 296.592 121.523 299.863 121.523 299.863C121.523 299.863 121.232 296.754 120.198 295.103C119.163 293.484 117.224 293.16 117.224 293.16C117.224 293.16 118.84 292.868 119.745 291.087C120.489 289.306 120.941 286.359 120.941 286.359Z" fill="#E5E5E5"/>
<path d="M87.416 203.395C87.416 203.395 87.416 205.468 88.3212 206.957C89.2264 208.285 90.6812 208.9 90.6812 208.9C90.6812 208.9 89.3557 209.062 88.6122 210.39C87.8686 211.717 87.707 214.405 87.707 214.405C87.707 214.405 87.5453 211.879 86.6725 210.552C85.7673 209.224 84.3125 208.933 84.3125 208.933C84.3125 208.933 85.5087 208.641 86.2522 207.281C87.0927 205.921 87.416 203.395 87.416 203.395Z" fill="#E5E5E5"/>
<path d="M395.765 401.253C395.765 401.253 395.927 404.977 397.253 407.341C398.74 409.705 401.552 410.612 401.552 410.612C401.552 410.612 399.192 410.773 397.834 413.137C396.509 415.501 396.347 420.132 396.347 420.132C396.347 420.132 396.056 415.825 394.569 413.429C393.082 411.065 390.561 410.612 390.561 410.612C390.561 410.612 392.791 410.158 394.117 407.794C395.442 405.398 395.765 401.253 395.765 401.253Z" fill="#E5E5E5"/>
<path d="M447.232 385.353C447.232 385.353 447.394 389.951 449.172 392.801C450.95 395.618 454.377 396.816 454.377 396.816C454.377 396.816 451.403 397.108 449.916 399.925C448.299 402.742 448.138 408.248 448.138 408.248C448.138 408.248 447.685 403.034 445.907 400.217C444.129 397.399 441.025 396.946 441.025 396.946C441.025 396.946 443.709 396.363 445.196 393.513C446.651 390.405 447.232 385.353 447.232 385.353Z" fill="#E5E5E5"/>
<path d="M412.673 301.061C412.673 301.061 412.835 304.785 414.29 307.149C415.777 309.513 418.589 310.42 418.589 310.42C418.589 310.42 416.229 310.582 414.872 312.946C413.546 315.31 413.384 319.94 413.384 319.94C413.384 319.94 413.093 315.633 411.606 313.237C410.119 310.841 407.598 310.42 407.598 310.42C407.598 310.42 409.828 309.966 411.154 307.602C412.512 305.206 412.673 301.061 412.673 301.061Z" fill="#E5E5E5"/>
<path d="M296.937 119.427C296.647 119.427 296.194 119.265 296.032 118.974C295.741 118.52 295.871 117.776 296.323 117.484C300.623 114.505 300.041 112.886 299.007 109.745C298.554 108.547 298.101 107.219 297.972 105.567C297.681 103.203 297.81 99.609 299.75 96.6621C300.041 96.2088 300.785 96.0793 301.237 96.3707C301.69 96.6622 301.819 97.407 301.528 97.8603C299.912 100.386 299.75 103.365 300.041 105.438C300.203 106.766 300.623 107.964 300.946 109.162C301.981 112.432 303.015 115.541 297.39 119.427C297.358 119.427 297.228 119.427 296.937 119.427Z" fill="#E5E5E5"/>
<path d="M291.733 86.1378C291.28 86.1378 290.828 85.8463 290.698 85.393C289.373 82.1223 281.194 80.1794 275.407 81.9604C274.825 82.1223 274.211 81.7985 274.082 81.2156C273.92 80.6327 274.243 80.0174 274.825 79.8879C281.194 77.945 290.698 79.726 292.768 84.6482C293.058 85.231 292.768 85.8463 292.186 86.1378C292.024 86.1378 291.895 86.1378 291.733 86.1378Z" fill="#E5E5E5"/>
<path d="M231.796 111.396C231.634 111.396 231.343 111.396 231.214 111.234C227.367 109.615 224.231 105.891 222.906 101.131C221.419 95.9173 222 90.5742 224.684 86.7206C227.658 82.2518 230.923 82.2518 232.701 82.5433C235.966 83.2881 238.65 86.3968 239.393 90.7037C239.555 91.4485 238.941 92.3228 238.197 92.4847C237.453 92.6466 236.581 92.0314 236.419 91.2866C235.837 88.1778 234.059 85.9435 231.958 85.4901C230.341 85.1987 228.531 86.2349 227.076 88.3074C225.007 91.4161 224.393 96.0468 225.751 100.192C226.947 104.045 229.307 107.025 232.443 108.352C233.186 108.644 233.477 109.55 233.186 110.295C232.96 111.105 232.378 111.396 231.796 111.396Z" fill="#E5E5E5"/>
<path d="M235.06 102.038C234.608 102.038 234.155 101.746 234.026 101.293C232.991 98.6051 231.957 96.9859 229.273 95.9497C228.692 95.6583 228.368 95.043 228.692 94.4601C228.983 93.8772 229.597 93.5534 230.179 93.8772C233.444 95.2049 234.769 97.3098 236.127 100.58C236.418 101.163 236.127 101.779 235.545 102.07C235.351 102.038 235.19 102.038 235.06 102.038Z" fill="#E5E5E5"/>
<path d="M314.298 91.9342C313.846 91.9342 313.555 91.6428 313.264 91.3514C312.52 89.7322 309.708 88.6636 306.733 88.8255C306.151 88.8255 305.699 88.3722 305.537 87.7893C305.537 87.2064 305.99 86.5911 306.572 86.5911C309.837 86.5911 313.846 87.6274 315.171 90.4446C315.462 91.0275 315.171 91.6428 314.589 91.9342C314.718 91.9342 314.589 91.9342 314.298 91.9342Z" fill="#E5E5E5"/>
<path d="M247.96 93.1324C244.242 93.1324 240.686 92.3876 237.421 90.7685C236.677 90.477 236.386 89.5703 236.839 88.8255C237.13 88.0807 238.035 87.7893 238.778 88.2426C254.813 96.2735 277.055 79.4669 293.252 67.1291C303.338 59.5516 310.612 53.8847 314.783 55.3743C315.688 55.6657 317.013 56.4105 317.595 58.483C317.886 59.2278 317.434 60.1021 316.561 60.4259C315.817 60.7174 314.944 60.264 314.621 59.3897C314.33 58.483 313.877 58.3535 313.716 58.1915C310.903 57.2848 302.724 63.5347 294.868 69.4931C281.355 79.5965 263.542 93.1324 247.96 93.1324Z" fill="#E5E5E5"/>
<path d="M278.511 150.644C278.349 150.644 278.349 150.644 278.22 150.644C268.877 150.482 257.141 142.322 243.337 126.26C242.755 125.677 242.885 124.77 243.499 124.187C244.081 123.604 244.986 123.734 245.568 124.349C262.023 143.52 272.433 147.535 278.22 147.697C278.381 147.697 278.381 147.697 278.511 147.697C282.228 147.697 284.136 146.078 284.879 145.333C289.05 140.864 300.623 127.037 303.727 118.132C304.018 117.096 304.47 115.768 304.923 114.278C305.667 111.591 306.539 108.644 307.445 106.539C308.35 104.304 309.514 101.941 310.548 99.5442C312.779 94.7839 315.009 89.8942 316.044 86.6235C319.891 75.0305 319.018 61.7861 316.335 60.4584C315.591 60.005 315.3 59.1307 315.753 58.3859C316.206 57.6411 317.079 57.3496 317.822 57.803C322.865 60.4908 322.574 76.3906 318.857 87.5302C317.66 90.9628 315.43 96.0145 313.231 100.775C312.197 103.139 311.001 105.535 310.128 107.607C309.223 109.55 308.511 112.497 307.768 115.055C307.315 116.545 306.863 118.035 306.572 119.071C303.307 128.591 291.442 142.71 287.142 147.309C286.108 148.248 283.425 150.644 278.511 150.644Z" fill="#E5E5E5"/>
<path d="M317.693 222.566C317.111 222.566 316.658 222.274 316.367 221.821C315.915 221.076 316.205 220.202 316.949 219.748C347.823 202.521 339.223 165.184 333.404 140.541C331.788 133.546 330.301 127.296 330.301 123.151C330.01 113.048 331.044 103.981 332.24 95.2049C334.18 78.8517 335.958 64.8948 327.036 51.6503C324.514 47.9263 311.615 33.2246 307.606 28.7558C307.024 28.1729 306.41 27.4281 305.537 26.5214C301.819 22.344 294.707 14.3455 291.603 12.1111C277.767 2.00773 265.482 1.55438 246.311 4.53358C234.156 6.31462 218.573 19.2353 213.369 29.2091C210.265 35.0056 207.743 49.7073 204.607 66.8053C199.564 95.4963 193.196 131.15 181.008 145.592C180.426 146.175 179.521 146.337 178.939 145.754C178.357 145.171 178.195 144.265 178.777 143.682C190.512 130.016 196.719 94.622 201.763 66.3844C204.866 48.9949 207.549 34.1313 210.815 27.8814C216.634 17.0009 232.83 3.49733 246.02 1.55438C262.476 -0.809553 277.476 -2.00771 293.511 9.7148C296.938 12.2406 303.759 19.9801 307.897 24.5784C308.641 25.4851 309.384 26.1975 309.966 26.8128C313.684 30.8283 327.036 46.1452 329.686 49.9988C339.191 64.1176 337.413 78.6898 335.473 95.6259C334.439 104.24 333.404 113.177 333.695 123.119C333.857 126.972 335.182 132.931 336.799 139.925C342.747 165.475 351.799 204.14 318.856 222.404C318.145 222.566 317.854 222.566 317.693 222.566Z" fill="#E5E5E5"/>
<path d="M273.628 96.8241C274.663 94.7516 276.603 93.7153 278.219 94.4601C279.835 95.2049 280.159 97.4393 279.254 99.5118C278.219 101.584 276.279 102.621 274.663 101.876C273.046 101.001 272.594 98.767 273.628 96.8241Z" fill="#E5E5E5"/>
<path d="M300.494 105.891C301.528 103.819 303.468 102.782 305.084 103.527C306.571 104.272 307.024 106.506 306.119 108.579C305.084 110.651 303.145 111.688 301.528 110.943C300.041 110.198 299.588 107.996 300.494 105.891Z" fill="#E5E5E5"/>
<path d="M257.884 92.9705C255.945 92.9705 253.876 92.8086 252.098 92.2257C251.516 92.0638 251.192 91.4809 251.354 90.898C251.516 90.3152 252.098 89.9913 252.679 90.1532C262.313 92.6791 273.887 87.3359 281.904 82.5757C296.905 73.5086 309.513 60.1346 310.257 56.5725C310.418 55.9896 311 55.5362 311.582 55.6657C312.164 55.8277 312.617 56.4106 312.487 56.9934C311.453 61.4622 298.392 75.2896 283.101 84.3567C276.15 88.6636 266.807 92.9705 257.884 92.9705Z" fill="#E5E5E5"/>
<path d="M195.135 146.337C193.939 146.337 192.775 146.175 191.708 145.754C190.965 145.463 190.512 144.556 190.803 143.811C191.094 143.066 191.999 142.613 192.743 142.904C194.682 143.649 197.042 143.358 199.726 142.16C209.812 137.399 222.582 119.136 226.3 107.381C226.591 106.636 227.334 106.183 228.239 106.474C228.983 106.765 229.436 107.51 229.145 108.417C225.136 121.046 211.946 139.925 200.954 144.977C198.982 145.884 197.075 146.337 195.135 146.337Z" fill="#E5E5E5"/>
<path d="M274.825 168.778C274.663 168.778 274.372 168.778 274.243 168.616C270.396 167.127 266.807 161.784 265.934 156.117C265.191 152.101 266.096 148.669 268.456 146.596C269.038 146.013 269.943 146.143 270.525 146.758C271.107 147.341 270.978 148.248 270.363 148.831C268.294 150.612 268.585 153.882 268.876 155.534C269.62 160.003 272.594 164.601 275.407 165.799C276.15 166.09 276.603 166.997 276.312 167.742C275.989 168.487 275.407 168.778 274.825 168.778Z" fill="#E5E5E5"/>
<path d="M244.242 183.933C234.738 183.933 225.104 181.569 216.796 177.101C202.7 169.361 194.845 156.44 190.836 146.92C190.545 146.175 190.836 145.301 191.579 144.977C192.323 144.686 193.196 144.977 193.519 145.722C197.366 154.789 204.802 167.127 218.153 174.413C230.762 181.407 247.249 182.897 259.986 178.266C269.2 174.996 275.86 168.746 279.287 160.132C279.578 159.387 280.483 158.934 281.226 159.225C281.97 159.517 282.422 160.424 282.131 161.168C278.414 170.527 271.14 177.36 261.053 180.922C255.978 183.059 250.191 183.933 244.242 183.933Z" fill="#E5E5E5"/>
<path d="M329.428 328.263C329.137 328.263 328.846 328.101 328.522 327.971C327.779 327.518 327.617 326.643 328.231 325.899C331.335 321.43 335.667 317.738 341.745 314.144C342.327 313.852 343.07 313.561 344.105 313.108C345.301 312.654 348.114 311.618 348.404 310.873C350.344 307.02 347.499 302.259 344.978 298.082C344.234 296.884 343.491 295.718 342.909 294.52C339.062 286.78 333.404 260.486 328.813 239.372C327.035 231.212 325.548 224.217 324.352 219.166C324.19 218.421 324.643 217.546 325.387 217.384C326.13 217.223 327.003 217.676 327.165 218.421C328.361 223.472 329.977 230.597 331.626 238.627C336.217 259.579 341.874 285.744 345.56 293.03C346.012 294.067 346.756 295.265 347.499 296.463C350.183 301.061 353.577 306.728 350.926 312.071C350.183 313.69 347.823 314.597 344.978 315.795C344.234 316.087 343.491 316.378 343.038 316.54C337.251 319.973 333.242 323.373 330.43 327.388C330.3 327.971 329.88 328.263 329.428 328.263Z" fill="#E5E5E5"/>
<path d="M306.28 169.07C305.989 169.07 305.698 168.908 305.375 168.778C301.657 166.09 294.836 164.18 286.98 161.945C281.355 160.326 274.954 158.513 268.876 156.149C268.133 155.858 267.68 154.951 267.971 154.206C268.262 153.461 269.167 153.008 269.911 153.299C275.859 155.663 282.228 157.477 287.724 158.934C295.87 161.298 302.853 163.241 307.024 166.22C307.606 166.673 307.767 167.548 307.315 168.292C307.153 168.778 306.733 169.07 306.28 169.07Z" fill="#E5E5E5"/>
<path d="M90.8112 230.014C90.6495 230.014 90.5202 230.014 90.3586 229.852C89.615 229.56 89.1624 228.654 89.4534 227.909C94.2057 214.243 115.284 161.168 131.448 151.972C143.474 145.139 157.408 144.556 170.76 143.941C178.033 143.649 185.437 143.358 192.42 141.998C193.163 141.836 194.036 142.451 194.198 143.196C194.359 143.941 193.745 144.815 193.002 144.977C185.728 146.305 178.163 146.596 170.889 146.92C157.828 147.373 144.315 147.956 132.903 154.497C118.969 162.528 99.0549 208.9 92.2336 228.816C92.0073 229.722 91.3931 230.014 90.8112 230.014Z" fill="#E5E5E5"/>
<path d="M123.463 263.886C123.172 263.886 122.881 263.724 122.558 263.594C121.976 263.141 121.814 262.105 122.267 261.522C125.984 256.762 129.832 250.091 133.097 244.294C135.327 240.441 137.396 236.717 139.336 233.9C139.789 233.155 140.662 232.993 141.405 233.446C142.149 233.9 142.31 234.774 141.858 235.519C140.08 238.045 138.011 241.769 135.78 245.622C132.353 251.581 128.668 258.251 124.659 263.174C124.336 263.756 123.915 263.886 123.463 263.886Z" fill="#E5E5E5"/>
<path d="M104.324 301.353C104.033 301.353 103.58 301.353 103.128 301.191C99.119 300.284 94.2374 294.941 93.6231 292.868C93.3322 292.124 93.7848 291.249 94.6576 291.087C95.4012 290.796 96.2741 291.249 96.4357 292.124C96.7267 293.16 100.897 297.758 103.871 298.373C104.615 298.535 104.906 298.373 105.067 298.212C106.393 296.722 106.102 291.67 105.811 288.982C105.811 288.076 105.649 287.331 105.649 286.748C105.649 285.55 104.324 282.895 103.58 282.571C103.58 282.571 103.419 282.733 103.289 282.862C101.35 285.55 101.059 288.659 101.22 292.674C101.22 293.581 100.638 294.164 99.7332 294.164C98.828 294.164 98.2461 293.581 98.2461 292.674C98.0845 288.659 98.2461 284.514 100.929 280.919C102.255 278.976 103.904 279.3 104.486 279.43C107.169 280.336 108.656 284.773 108.656 286.262C108.656 286.845 108.656 287.59 108.818 288.335C109.108 292.188 109.399 297.402 107.201 299.766C106.555 300.899 105.488 301.353 104.324 301.353Z" fill="#E5E5E5"/>
<path d="M82.7931 304.332C82.0496 304.332 81.306 304.17 80.5625 304.04C78.0409 303.296 76.8447 299.863 76.1011 297.952C74.905 294.682 71.2195 280.401 76.3921 275.511C77.2973 274.766 78.3318 274.313 79.3663 274.605C81.8879 275.187 83.5367 278.782 83.666 279.203L83.8277 279.656C85.7674 284.255 88.7093 291.249 88.58 296.139C88.58 297.046 87.8364 297.629 87.0928 297.629C86.1876 297.629 85.6057 296.884 85.6057 296.139C85.7674 291.832 82.7931 284.999 81.1444 280.822L80.9828 280.369C80.4008 279.041 79.334 277.681 78.7521 277.551C78.7521 277.551 78.5904 277.551 78.4611 277.713C75.1959 280.692 76.974 291.832 78.9137 296.884C79.3663 297.92 80.4008 300.899 81.4353 301.191C84.8622 302.227 87.2222 299.41 90.1964 295.394C91.2309 294.066 92.1361 292.706 93.1706 291.832C93.7525 291.249 94.6577 291.249 95.2396 291.832C95.8215 292.415 95.8215 293.322 95.2396 293.905C94.4961 294.649 93.6232 295.848 92.718 297.013C90.2287 300.154 87.2545 304.332 82.7931 304.332Z" fill="#E5E5E5"/>
<path d="M68.2458 300.478C67.6639 300.478 67.2113 300.478 66.6294 300.316C62.459 299.28 59.9374 294.358 59.9374 290.051C59.7758 285.291 60.9719 280.401 62.9116 276.677L63.0733 276.386C63.6552 275.187 64.8514 272.953 67.082 272.953C70.6382 272.953 71.5434 275.026 71.9636 277.13C72.9981 281.599 73.5801 288.561 73.1598 293.484C73.1598 294.39 72.4162 294.973 71.5434 294.811C70.7998 294.811 70.0562 294.067 70.2179 293.192C70.5088 289.177 70.2179 282.344 69.1834 277.875C68.7308 276.224 68.6015 275.932 67.1144 275.932C66.6618 275.932 65.9182 277.26 65.7889 277.713L65.6272 278.005C63.8492 281.275 62.8147 285.744 62.944 289.889C62.944 292.415 64.4311 296.592 67.4053 297.305C68.7308 297.596 71.414 297.143 72.7395 295.977C73.6447 295.232 73.6447 294.649 73.6447 294.487C73.6447 293.581 74.2266 292.998 75.1318 292.998C75.8754 292.998 76.6189 293.581 76.6189 294.487C76.6189 295.977 76.037 297.305 74.6792 298.503C72.8688 299.733 70.3472 300.478 68.2458 300.478Z" fill="#E5E5E5"/>
<path d="M52.3726 293.775C46.1333 293.775 42.1245 290.343 39.1503 283.218C38.9887 282.765 38.6977 282.312 38.5684 281.891C37.3722 279.527 35.8851 276.386 37.6632 273.73C38.4067 272.532 39.2796 271.949 40.4758 271.787C42.2538 271.496 43.9026 272.532 45.228 273.568C48.7842 276.386 53.2455 281.729 54.571 286.068C54.8619 286.813 54.4093 287.687 53.5365 287.849C52.7929 288.14 51.8877 287.687 51.7584 286.813C50.7239 283.251 46.7152 278.329 43.45 275.803C42.2538 274.896 41.5103 274.475 41.09 274.605C40.799 274.605 40.5081 275.058 40.3465 275.349C39.4413 276.547 40.6374 278.782 41.381 280.563C41.6719 281.146 41.9629 281.599 42.1245 282.182C45.5513 290.666 49.9803 292.577 59.4849 289.63C60.2285 289.339 61.1013 289.792 61.263 290.666C61.5539 291.411 61.1013 292.285 60.2285 292.447C57.2866 293.322 54.765 293.775 52.3726 293.775Z" fill="#E5E5E5"/>
<path d="M52.2435 283.38C51.4999 283.38 50.918 282.797 50.7563 282.053C50.5947 281.308 51.2089 280.563 52.0818 280.433C54.7651 280.142 57.5777 279.235 59.5174 278.652C60.2609 278.361 61.1338 278.814 61.2954 279.689C61.5864 280.433 61.1338 281.308 60.2609 281.47C58.3212 282.053 55.3793 282.959 52.4051 283.251C52.3728 283.38 52.3728 283.38 52.2435 283.38Z" fill="#E5E5E5"/>
<path d="M42.286 269.261C38.4389 269.261 30.8741 267.319 29.5163 263.174C28.9343 261.684 29.0637 259.32 32.6198 256.794C33.6543 256.049 34.6888 255.887 35.594 255.596C35.885 255.596 36.1759 255.434 36.6285 255.305C37.3721 255.013 38.245 255.466 38.4066 256.341C38.6976 257.086 38.245 257.96 37.3721 258.122C36.9195 258.284 36.6285 258.284 36.1759 258.413C35.4324 258.575 34.8505 258.705 34.2362 258.996C33.0401 259.741 31.8762 260.939 32.1672 261.975C32.9108 264.048 38.9885 266.282 42.4153 265.991C43.1589 265.991 43.9024 266.574 43.9024 267.48C43.9024 268.387 43.3205 268.97 42.4153 268.97C42.7386 269.261 42.4477 269.261 42.286 269.261Z" fill="#E5E5E5"/>
<path d="M95.1109 288.561C92.1367 288.561 89.0332 288.27 86.059 287.817C85.3154 287.655 84.7335 286.91 84.8628 286.165C85.0244 285.42 85.768 284.837 86.4792 284.967C90.488 285.55 94.4967 285.712 98.2145 285.55C99.1197 285.55 99.7016 286.133 99.8309 286.878C99.8309 287.784 99.249 288.367 98.5054 288.529C97.3416 288.561 96.3071 288.561 95.1109 288.561Z" fill="#E5E5E5"/>
<path d="M109.659 286.651C109.077 286.651 108.462 286.198 108.171 285.615C107.88 284.87 108.462 283.996 109.206 283.834C126.275 278.944 134.713 266.282 134.002 263.918C133.711 263.756 132.385 263.918 131.933 263.918H131.642C131.189 263.918 130.025 264.21 128.668 264.501C118.711 266.574 92.2981 271.949 73.7739 259.288C64.722 253.2 56.7045 245.46 48.978 238.045C43.3528 232.54 37.4044 226.905 31.3266 221.983C28.3524 219.619 27.8998 213.952 27.8998 208.155C27.8998 207.994 27.8998 207.702 27.8998 207.573C27.4472 207.573 26.7037 207.734 26.2834 207.864C23.4708 208.9 24.3437 216.931 24.667 220.04C24.667 220.623 24.8286 221.076 24.8286 221.529C24.8286 222.436 25.5722 227.326 26.0248 228.654C29.5809 242.028 41.7687 269.521 62.8146 278.134C63.5581 278.426 64.0107 279.332 63.5581 280.077C63.2672 280.822 62.362 281.275 61.6184 280.822C39.4734 271.625 26.7037 243.096 22.9859 229.269C22.5333 227.65 21.7897 222.728 21.6604 221.529C21.6604 221.238 21.6604 220.785 21.4988 220.202C21.0462 215.603 20.1733 206.828 25.0549 205.047C25.6368 204.755 28.3201 204.14 29.8072 205.047C30.5507 205.5 30.5507 206.083 30.5507 208.155C30.5507 210.843 30.5507 217.805 32.7814 219.587C39.0208 224.638 44.9369 230.273 50.7237 235.778C58.2886 243.226 66.306 250.803 75.0671 256.729C92.5891 268.614 118.096 263.433 127.73 261.49C129.508 261.198 130.543 260.907 131.157 260.907H131.448C132.773 260.745 135.295 260.615 136.33 262.526C136.911 263.562 136.782 264.89 136.039 266.703C133.808 272.208 124.756 282.474 109.626 286.78C109.95 286.651 109.82 286.651 109.659 286.651Z" fill="#E5E5E5"/>
<path d="M25.5071 215.312C24.9252 215.312 24.311 215.312 23.8907 215.021C23.1471 214.729 22.5652 214.276 22.4036 213.531C22.1126 212.786 22.5652 211.879 23.3088 211.588C23.8907 211.426 24.6342 211.588 25.0868 212.171C25.6688 212.333 27.6085 212.009 28.0611 211.717C28.8046 211.264 29.6775 211.556 30.1301 212.3C30.5827 213.045 30.2917 213.79 29.6775 214.243C28.9339 214.859 27.1559 215.312 25.5071 215.312Z" fill="#E5E5E5"/>
<path d="M131.028 270.427C130.737 270.427 130.575 270.427 130.446 270.265C128.086 269.067 127.472 266.995 127.342 265.052C127.181 264.307 127.795 263.562 128.668 263.433C129.411 263.271 130.155 263.886 130.284 264.76C130.446 266.541 130.866 267.286 131.771 267.739C132.515 268.031 132.806 268.938 132.353 269.682C132.062 270.006 131.61 270.427 131.028 270.427Z" fill="#E5E5E5"/>
<path d="M79.9809 261.522C79.399 261.522 78.7848 261.069 78.6555 260.486C78.3645 259.741 78.8171 258.867 79.5606 258.543C82.8258 257.507 86.091 252.908 87.1255 249.314C89.9381 240.409 90.3907 227.455 82.5349 220.785C77.7826 216.769 73.7738 217.676 68.4396 218.55C65.918 219.004 63.3964 219.587 60.5838 219.587H60.1312C52.8573 219.587 44.7105 219.587 42.1889 226.711C41.898 227.455 41.1544 227.909 40.2492 227.617C39.5057 227.326 39.0531 226.581 39.344 225.674C42.4475 216.445 52.5664 216.445 60.1312 216.445H60.5838C63.1054 216.445 65.4654 215.992 67.8577 215.539C73.1919 214.502 78.5261 213.466 84.3129 218.356C93.2033 225.934 92.783 240.214 89.8088 250.026C88.4833 254.333 84.6039 259.838 80.3042 261.166C80.2719 261.36 80.1426 261.522 79.9809 261.522Z" fill="#E5E5E5"/>
<path d="M62.33 226.581C60.261 226.581 58.3213 225.674 56.8342 223.893C56.3816 223.311 56.3816 222.242 57.1252 221.821C57.7071 221.368 58.7739 221.368 59.1942 222.112C60.2287 223.44 61.5542 223.602 62.4594 223.602C63.9465 223.602 65.4336 222.857 66.3064 221.529C66.759 220.947 67.7936 220.785 68.3755 221.238C68.9574 221.691 69.119 222.728 68.6664 223.311C67.1793 225.253 64.9487 226.419 62.5887 226.581C62.33 226.581 62.33 226.581 62.33 226.581Z" fill="#E5E5E5"/>
<path d="M63.2022 225.836C63.2022 225.836 63.0729 225.836 63.2022 225.836C62.297 225.836 61.7151 225.092 61.7151 224.217C62.006 220.202 60.9715 217.514 59.646 214.405C59.1934 213.207 58.7408 212.041 58.3206 210.681C58.0296 209.936 58.4822 209.062 59.2258 208.738C59.9693 208.447 60.8422 208.9 61.1655 209.645C61.6181 210.973 62.0707 212.009 62.491 213.207C63.8164 216.478 65.0126 219.587 64.7216 224.347C64.56 225.253 63.9457 225.836 63.2022 225.836Z" fill="#E5E5E5"/>
<path d="M61.5864 212.333C61.1338 212.333 60.6812 212.333 60.2609 212.171C59.3557 211.879 58.7738 211.264 58.6122 210.39C57.8686 207.411 62.6209 202.068 62.6209 201.906C67.3732 196.692 72.2548 193.745 79.5287 191.64C79.6904 191.64 79.9813 191.478 80.4339 191.349C82.7939 190.442 84.281 189.859 85.4772 190.442C86.5117 190.896 86.3824 191.64 86.0591 194.458V194.911C85.8974 197.275 85.3155 200.869 83.3758 203.687C79.5287 209.03 72.3841 210.228 66.5973 211.264H66.1447C65.8538 211.264 65.2395 211.556 64.6576 211.718C63.6554 212.041 62.6209 212.333 61.5864 212.333ZM61.2954 209.354L60.8428 210.681L61.2954 209.354ZM61.5864 209.354C62.1683 209.354 63.2028 209.062 63.8171 208.771C64.399 208.609 65.1425 208.317 65.5951 208.317H66.0477C71.5436 207.411 77.6213 206.374 80.8865 201.938C82.0827 200.157 82.8262 197.631 82.9555 194.652C82.9555 194.652 82.9555 194.36 82.9555 194.199C82.9555 193.907 82.9555 193.745 82.9555 193.454C82.3736 193.616 81.6301 193.907 81.1775 194.037C80.7249 194.199 80.2723 194.328 80.143 194.49C73.451 196.433 69.1513 199.088 64.7223 203.849C63.5261 205.176 61.7157 208.155 61.5864 209.354Z" fill="#E5E5E5"/>
<path d="M114.119 246.95C113.376 246.95 112.341 246.496 110.563 244.877C109.529 243.841 108.623 242.513 107.589 241.153C106.554 239.664 105.52 238.174 104.615 237.429C103.58 237.429 100.315 238.627 98.9895 239.21C97.7933 239.664 97.2114 239.955 96.7588 240.117C96.1769 240.279 94.0756 240.409 92.9117 239.534C92.3298 239.243 92.0065 238.627 92.0065 238.045C91.8449 236.717 92.1682 235.681 92.9117 234.612C94.3988 232.669 97.5024 232.54 99.8947 232.248C100.638 232.248 101.382 232.086 101.834 232.086C101.673 231.795 101.382 231.633 101.091 231.341C98.5692 228.524 95.1424 224.8 96.9205 221.691C97.5024 220.785 98.6985 220.072 101.382 221.4C104.194 222.89 106.263 224.671 108.074 227.358C108.074 227.52 108.235 227.52 108.235 227.65C108.397 227.488 108.526 227.196 108.526 227.067C108.817 226.484 109.27 225.869 109.561 225.448C111.501 223.505 113.117 223.084 115.509 222.63L115.8 222.469C116.835 222.307 119.809 221.562 120.553 224.412C121.296 227.682 117.578 229.172 115.057 230.208C114.895 230.37 114.604 230.37 114.475 230.499H114.636C115.671 230.953 116.867 231.406 117.902 231.698C119.098 232.151 120.262 232.604 121.458 233.025C124.141 234.223 124.27 235.551 123.818 236.458C123.365 237.494 122.492 238.401 121.296 238.692C118.936 239.599 115.671 238.401 113.57 237.494C116.996 245.234 115.348 246.27 114.766 246.723C114.863 246.658 114.539 246.95 114.119 246.95ZM104.615 234.321C105.197 234.321 105.811 234.483 106.263 234.774C107.751 235.81 108.947 237.591 110.11 239.372C111.016 240.57 111.727 241.898 112.632 242.643C112.05 240.862 111.145 238.466 110.401 236.846C110.401 236.685 110.11 236.555 109.949 236.264C109.496 235.681 108.332 234.191 109.367 232.831C109.658 232.54 110.11 232.248 110.401 232.248C111.307 232.086 112.018 232.701 113.085 233.576C113.246 233.738 113.376 233.738 113.376 233.867C114.992 234.774 118.872 236.231 120.65 235.648H120.811C120.811 235.648 120.65 235.648 120.65 235.486L120.488 235.324C119.453 234.871 118.257 234.418 117.223 234.126C116.027 233.673 114.863 233.382 113.667 232.799C112.341 232.216 110.24 231.471 110.563 229.819C110.725 228.492 112.212 227.876 114.119 227.002C115.154 226.549 117.675 225.513 117.837 224.768C117.546 224.768 116.932 224.93 116.641 224.93L116.188 225.092C114.119 225.545 113.085 225.674 111.889 227.034C111.727 227.196 111.436 227.617 111.145 228.071C110.563 229.107 109.82 230.305 108.623 230.758C107.427 231.212 106.554 230.467 105.811 228.977C105.811 228.816 105.649 228.686 105.649 228.524C104.162 226.29 102.384 224.8 100.153 223.634C99.8624 223.472 99.5714 223.343 99.4098 223.343C99.4098 224.832 101.931 227.65 103.257 228.977C103.839 229.722 104.453 230.305 104.873 230.758C105.326 231.341 105.164 232.378 104.582 232.831C104.421 232.993 104.291 232.993 104.13 233.122C104.13 233.576 103.839 234.029 103.548 234.159C103.871 234.321 104.162 234.321 104.615 234.321ZM94.8191 237.008C95.1101 237.008 95.7243 237.17 95.8536 237.008C96.1446 237.008 96.8881 236.555 97.7933 236.264C99.1188 235.681 100.315 235.227 101.349 234.936C100.897 234.936 100.444 235.098 100.024 235.098C98.2459 235.26 95.8536 235.389 95.1424 236.425C94.9808 236.393 94.9808 236.717 94.8191 237.008Z" fill="#E5E5E5"/>
<path d="M101.803 232.248C101.641 232.248 101.512 232.248 101.35 232.248C100.898 232.086 100.607 231.957 100.154 231.957C97.1801 231.05 94.5291 230.338 91.8459 231.503C91.1023 231.795 90.2294 231.503 89.9061 230.759C89.6152 230.014 89.9061 229.139 90.6497 228.816C94.2058 227.196 97.762 228.233 101.027 229.107C101.48 229.269 101.771 229.398 102.223 229.398C102.967 229.56 103.419 230.435 103.258 231.18C102.967 231.795 102.385 232.248 101.803 232.248Z" fill="#E5E5E5"/>
<path d="M118.872 265.246C118.419 265.246 117.967 265.084 117.676 264.663C117.223 264.08 117.385 263.044 117.967 262.591C124.335 257.83 121.976 244.618 118.549 239.243C118.096 238.498 118.258 237.624 119.001 237.17C119.745 236.717 120.618 236.879 121.07 237.624C124.917 243.712 128.053 258.737 119.874 264.987C119.454 265.084 119.163 265.246 118.872 265.246Z" fill="#E5E5E5"/>
<path d="M177.678 353.974C172.344 343.191 167.171 332.505 163.065 321.397C162.29 319.195 161.546 316.993 160.802 314.791C160.091 312.33 159.348 309.902 158.604 307.473C157.117 302.68 155.63 297.985 154.175 293.451C150.91 283.639 147.936 274.281 146.028 265.958C144.25 258.381 142.763 250.188 141.276 242.319C138.302 226.419 135.198 209.904 129.702 195.656C129.411 194.911 129.864 194.004 130.608 193.713C131.351 193.421 132.224 193.875 132.547 194.62C138.172 209.321 141.308 225.836 144.283 241.898C145.77 249.767 147.257 257.798 149.035 265.376C150.975 273.698 153.916 282.927 157.182 292.739C158.669 297.305 160.188 302.033 161.675 306.858C162.419 309.286 163.162 311.715 163.906 314.209C164.391 316.443 165.037 318.645 165.781 320.815C168.82 332.181 178.842 343.191 178.001 354.136C177.678 353.974 177.678 353.974 177.678 353.974Z" fill="#E5E5E5"/>
<path d="M299.265 377.193C298.748 364.564 306.506 353.23 310.063 340.924C311.032 336.714 312.326 332.829 312.132 328.554C312.132 325.737 312.002 322.919 312.132 320.102C312.229 317.285 312.584 314.5 313.392 311.747L313.845 310.258C318.888 293.03 324.093 275.187 318.597 257.798C318.015 255.855 317.272 253.491 316.367 250.803C313.845 243.064 310.871 233.414 308.349 224.185C308.188 223.44 308.64 222.566 309.384 222.404C310.127 222.242 311.032 222.695 311.162 223.44C313.683 232.507 316.658 242.157 319.179 249.897C320.084 252.584 320.796 254.948 321.41 256.891C327.035 275.187 321.701 293.451 316.658 311.003L316.205 312.492C315.461 315.018 315.17 317.673 315.074 320.329C314.977 322.984 315.106 325.704 315.074 328.392C313.295 341.539 307.8 353.521 304.243 366.474C303.274 369.388 301.98 372.303 301.851 375.509C301.528 377.419 299.75 377.322 299.265 377.193Z" fill="#E5E5E5"/>
<path d="M334.794 355.529C325.581 355.173 317.822 348.372 312.972 340.924C312.326 339.953 311.356 338.01 312.649 338.334C320.731 341.572 325.581 352.258 335.602 352.582C332.693 349.991 335.279 345.458 336.411 342.479C337.51 339.92 338.835 337.459 339.934 335.387L340.096 335.225C342.327 330.918 345.139 327.064 347.952 323.47C348.857 322.272 349.568 321.235 350.473 320.037C350.764 319.584 351.379 319.131 352.09 318.256C352.833 317.511 354.321 316.184 354.773 315.439C354.03 314.694 350.926 313.949 350.021 313.949C349.277 313.949 348.534 313.367 348.404 312.622C348.404 311.877 348.986 311.132 349.73 311.003C350.926 310.841 355.064 311.585 356.842 313.237C357.747 313.982 357.877 314.727 357.877 315.309C357.877 316.637 356.551 318.127 354.321 320.361C353.868 320.815 353.124 321.559 352.995 321.689C352.09 322.887 351.379 324.053 350.473 325.121C347.661 328.845 345.139 332.408 342.909 336.553L342.747 336.714C341.712 338.657 340.484 340.924 339.482 343.223C338.835 345.458 336.896 347.725 337.865 349.991C338.189 350.639 340.452 350.315 341.098 351.61C341.421 352.906 340.128 353.553 339.417 354.233C337.93 355.108 336.443 355.561 334.794 355.529Z" fill="#E5E5E5"/>
<path d="M433.138 380.269C432.394 380.269 431.812 379.686 431.651 379.071C431.489 378.326 432.103 377.452 432.847 377.452C436.694 376.869 442.352 374.926 446.781 373.274C447.815 372.983 448.72 372.53 449.593 372.238C450.046 372.076 450.628 371.947 451.08 371.785C451.824 371.623 453.149 371.331 453.44 371.04C454.927 369.097 454.927 364.79 454.766 361.39C454.766 359.447 454.766 357.828 454.927 356.338C455.089 355.594 455.218 354.849 455.38 353.974C456.124 350.25 456.576 347.595 454.636 345.814C450.628 342.252 443.968 341.216 437.438 340.309C434.463 339.856 431.813 339.402 429.291 338.819C412.383 334.351 364.602 320.232 356.293 317.414C355.55 317.123 355.097 316.378 355.388 315.471C355.679 314.727 356.422 314.273 357.328 314.565C365.474 317.382 413.127 331.501 430.034 335.808C432.265 336.391 434.916 336.844 437.89 337.297C444.421 338.334 451.824 339.37 456.576 343.547C460.003 346.526 458.936 351.125 458.354 354.557C458.193 355.302 458.063 356.047 457.902 356.792C457.74 357.99 457.74 359.609 457.74 361.39C457.74 365.405 457.74 370.004 455.8 372.821C454.895 374.149 453.117 374.44 451.63 374.764C451.177 374.926 450.725 374.926 450.434 375.055C449.529 375.347 448.656 375.638 447.75 376.092C443.16 377.711 437.373 379.816 433.364 380.399C433.3 380.269 433.138 380.269 433.138 380.269Z" fill="#E5E5E5"/>
<path d="M410.895 356.5C410.734 356.5 410.734 356.5 410.604 356.5C392.953 353.521 374.558 352.938 360.592 352.647C358.814 352.647 356.745 352.647 354.805 352.647C351.993 352.711 349.019 352.744 346.077 352.614C343.07 351.61 334.665 352.906 337.251 349.344C338.867 347.401 343.07 349.344 346.238 349.506C349.019 349.635 351.928 349.57 354.805 349.506C356.874 349.506 358.814 349.506 360.754 349.506C374.849 349.667 393.406 350.412 411.219 353.359C411.962 353.521 412.544 354.266 412.415 355.14C412.221 356.047 411.639 356.5 410.895 356.5Z" fill="#E5E5E5"/>
<path d="M420.821 364.24C420.53 364.24 420.239 364.078 419.915 363.948C418.137 362.621 416.812 360.84 415.454 359.058C415.001 358.605 414.71 358.022 414.258 357.569C412.771 355.788 410.702 354.46 408.471 353.1C406.855 352.064 405.206 351.028 403.719 349.829C402.232 348.502 401.197 346.85 400.163 345.231C399.419 344.033 398.675 342.997 397.932 341.96C397.35 341.377 397.479 340.471 398.094 339.888C398.675 339.305 399.581 339.435 400.163 340.05C401.197 341.248 401.941 342.414 402.846 343.612C403.751 345.101 404.624 346.429 405.82 347.465C407.016 348.502 408.633 349.538 410.12 350.445C412.48 351.934 414.872 353.424 416.65 355.658C417.103 356.112 417.394 356.695 417.846 357.277C419.042 358.897 420.206 360.548 421.693 361.584C422.275 362.038 422.437 363.074 421.984 363.657C421.726 364.078 421.273 364.24 420.821 364.24Z" fill="#E5E5E5"/>
<path d="M431.521 362.297C430.616 362.297 430.034 361.552 430.034 360.807C430.034 358.443 431.23 356.047 433.299 354.266C437.017 351.157 442.642 350.088 446.069 350.704C446.813 350.866 447.395 351.61 447.265 352.485C447.104 353.23 446.36 353.812 445.487 353.683C442.804 353.23 438.052 354.266 435.239 356.662C433.752 357.86 433.008 359.35 433.008 360.969C433.008 361.552 432.394 362.297 431.521 362.297Z" fill="#E5E5E5"/>
<path d="M446.069 365.114C445.326 365.114 444.744 364.531 444.582 363.916C444.129 360.807 443.257 356.63 442.222 352.776C442.06 352.031 442.513 351.157 443.257 350.995C444 350.833 444.873 351.287 445.035 352.031C446.069 355.885 446.974 360.192 447.556 363.462C447.718 364.207 447.104 365.114 446.36 365.114C446.199 365.114 446.199 365.114 446.069 365.114Z" fill="#E5E5E5"/>
<path d="M432.684 373.728C432.394 373.728 432.103 373.566 431.779 373.436C431.197 372.983 431.036 371.947 431.488 371.364C433.105 369.129 436.079 367.51 439.053 365.859C441.122 364.661 443.062 363.624 444.258 362.588C444.84 362.005 445.745 362.135 446.327 362.75C446.909 363.333 446.78 364.24 446.165 364.822C444.678 366.15 442.609 367.348 440.54 368.546C437.857 370.036 435.206 371.526 434.01 373.145C433.59 373.598 433.137 373.728 432.684 373.728Z" fill="#E5E5E5"/>
<path d="M431.941 383.702C431.197 383.702 430.615 383.119 430.454 382.503C430.292 381.759 430.906 380.884 431.65 380.884C432.684 380.722 434.01 380.593 435.497 380.431C440.831 379.848 449.01 379.103 451.37 375.833C451.952 375.088 452.276 374.213 451.952 373.015C451.791 372.271 452.405 371.396 453.148 371.396C453.892 371.234 454.765 371.85 454.765 372.594C455.056 374.537 454.603 376.318 453.569 377.646C450.304 381.823 441.833 382.698 435.626 383.281C434.172 383.41 432.846 383.54 431.941 383.702C432.103 383.702 432.103 383.702 431.941 383.702Z" fill="#E5E5E5"/>
<path d="M430.778 386.066C430.034 386.066 429.452 385.483 429.291 384.867C429.129 384.123 429.743 383.248 430.487 383.248C432.265 382.957 434.043 382.795 435.983 382.665C440.282 382.374 444.744 382.082 448.009 379.686C448.752 379.233 449.625 379.395 450.078 379.978C450.531 380.722 450.369 381.597 449.787 382.05C445.778 384.867 441.026 385.159 436.274 385.483C434.496 385.645 432.718 385.774 431.069 385.936C430.907 386.066 430.907 386.066 430.778 386.066Z" fill="#E5E5E5"/>
<path d="M442.932 365.276C442.351 365.276 441.736 364.984 441.607 364.369C440.573 361.843 439.538 360.354 438.633 359.609C438.051 359.156 437.889 358.119 438.342 357.536C438.794 356.954 439.829 356.792 440.411 357.245C442.189 358.573 443.514 361.26 444.258 363.203C444.549 363.948 444.258 364.823 443.514 365.146C443.385 365.276 443.223 365.276 442.932 365.276Z" fill="#E5E5E5"/>
<path d="M438.634 368.093C438.052 368.093 437.437 367.802 437.308 367.186C436.726 365.859 435.983 364.823 434.625 363.333C434.043 362.75 434.043 361.843 434.625 361.26C435.207 360.678 436.112 360.678 436.694 361.26C437.728 362.459 439.054 363.948 439.959 366.021C440.25 366.766 439.959 367.64 439.216 367.964C438.925 367.931 438.795 368.093 438.634 368.093Z" fill="#E5E5E5"/>
<path d="M282.745 380.917C306.506 380.107 330.106 376.545 353.577 373.307C355.807 372.951 358.038 372.562 360.301 372.206C367.09 371.105 374.041 370.004 381.153 369C393.761 367.219 419.882 364.11 431.294 363.203C431.456 364.24 431.003 366.474 430.842 367.672C430.68 369.162 430.551 370.198 430.551 370.781C431.456 381.629 426.833 388.462 421.208 397.237C419.882 399.31 418.395 401.544 416.908 403.941C404.591 424.018 369.127 486.873 361.4 520.032H364.504C372.359 487.196 407.404 425.346 419.559 405.43C421.046 403.066 422.372 400.961 423.729 398.889C429.516 390.113 434.559 382.406 433.525 370.651C433.525 370.198 433.687 369.162 433.816 368.126C434.269 364.402 434.559 362.038 433.363 360.839C432.911 360.386 432.329 360.095 431.585 360.095C420.464 360.839 393.599 364.11 380.539 365.891C373.426 366.895 366.476 367.996 359.687 369.097C357.424 369.453 355.193 369.842 352.93 370.198C320.989 374.958 288.338 379.492 255.945 377.322C253.326 377.193 250.675 377.031 248.024 376.869C240.039 376.318 231.86 375.541 223.972 374.44C220.448 373.954 217.021 373.404 213.691 372.789C198.109 370.133 183.884 361.39 174.186 347.142C173.216 346.17 173.863 351.028 174.832 352.323C183.884 367.219 200.049 374.991 216.859 376.642C218.799 376.966 220.771 377.257 222.743 377.549C233.088 379.006 243.563 379.88 252.906 380.399C256.042 380.56 259.016 380.69 261.828 380.82C266.322 380.852 270.848 381.5 275.439 381.079C278.995 381.014 281.516 380.949 282.745 380.917Z" fill="#E5E5E5"/>
<path d="M149.875 520H151.944C152.235 519.547 152.526 519.093 152.235 518.51C141.987 484.768 150.91 452.353 158.766 423.824C159.8 420.1 160.802 416.473 161.74 412.911C162.677 409.349 163.518 405.916 164.423 402.548C169.79 385.256 182.398 366.798 173.346 348.664C175.285 367.122 168.82 384.932 161.772 401.803C160.867 405.171 159.994 408.571 159.089 412.101C158.151 415.598 157.149 419.225 156.115 422.917C148.097 451.899 139.045 484.735 149.584 519.385C149.584 519.709 149.714 519.838 149.875 520Z" fill="#E5E5E5"/>
<path d="M289.47 400.152C281.291 399.213 273.209 398.241 265.159 397.82C262.379 397.594 259.566 397.367 256.689 397.14C242.367 395.975 227.076 394.517 213.045 391.927C209.683 391.311 206.386 390.599 203.282 389.822C194.327 387.231 185.275 383.993 178.81 376.545C178.163 375.574 177.84 373.307 178.163 373.307C187.538 377.517 194.974 384.964 204.931 387.166C208.035 387.911 211.3 388.591 214.662 389.207C228.628 391.732 243.757 393.157 257.432 394.226C260.18 394.453 262.831 394.647 265.45 394.841C273.855 396.298 282.907 394.355 290.86 398.792C290.666 399.537 290.181 400.152 289.47 400.152Z" fill="#E5E5E5"/>
<path d="M314.945 398.598C313.943 398.565 312.973 397.918 312.973 396.946C312.973 396.298 313.296 395.651 313.619 395.651C328.49 394.032 342.715 391.765 357.327 389.433C360.69 388.85 364.116 388.267 367.543 387.685C370.97 387.102 374.397 386.519 377.791 385.936C406.564 380.884 424.247 377.905 427.06 378.067C427.965 378.067 428.547 378.812 428.547 379.557C428.547 380.301 427.804 381.046 427.06 381.046C424.377 380.884 401.1 385.062 378.373 388.915C371.39 390.146 364.375 391.376 357.651 392.51C354.289 393.092 351.023 393.643 347.855 394.161C339.773 395.651 331.368 396.622 323.318 397.788C319.244 398.306 316.335 398.598 314.945 398.598Z" fill="#E5E5E5"/>
<path d="M293.22 459.801C292.185 459.801 291.28 459.639 290.537 459.509C289.793 459.347 289.211 458.473 289.502 457.728C289.664 456.983 290.537 456.53 291.28 456.692C294.254 457.437 299.75 456.239 300.785 453.13C301.561 450.734 303.662 437.36 305.828 422.561C306.119 420.456 306.442 418.286 306.733 416.149C309.417 403.099 304.567 388.203 308.77 376.545C312.326 388.203 310.71 403.099 309.837 415.631C309.546 417.8 309.255 419.97 308.932 422.107C306.766 437.133 304.567 450.928 303.597 453.842C302.272 458.02 297.229 459.801 293.22 459.801Z" fill="#E5E5E5"/>
<path d="M291.441 453.842C290.536 453.842 289.954 453.259 289.954 452.353C289.954 447.657 291.183 435.093 292.637 421.492C292.928 418.772 293.219 416.019 293.51 413.267C295.87 402.775 290.374 388.203 295.224 380.107C297.163 391.117 296.84 402.451 296.452 413.72C296.193 416.44 295.903 419.193 295.612 421.913C294.157 435.449 292.928 448.078 292.928 452.515C292.928 453.13 292.185 453.842 291.441 453.842Z" fill="#E5E5E5"/>
<path d="M266.807 520C271.269 512.876 281.064 498.887 288.177 493.252C289.664 492.054 291.28 491.018 292.929 489.981C295.289 488.362 297.81 486.711 300.041 484.768C300.623 484.185 300.623 483.278 300.203 482.695C299.621 482.112 298.716 482.112 298.134 482.533C296.194 484.476 293.834 485.966 291.442 487.423C289.825 488.459 288.177 489.658 286.56 490.856C278.995 496.814 268.618 511.678 264.157 518.802C263.866 519.093 263.866 519.547 263.995 520H266.807Z" fill="#E5E5E5"/>
<path d="M284.621 514.948C284.912 516.729 285.203 518.51 285.655 520H288.63C288.339 518.381 287.886 516.438 287.595 514.365C286.561 508.407 285.235 501.736 283.586 497.559C283.295 496.814 282.39 496.361 281.647 496.652C280.903 496.944 280.451 497.85 280.741 498.595C282.229 502.611 283.554 509.443 284.621 514.948Z" fill="#E5E5E5"/>
<path d="M146.449 487.585C145.867 487.585 145.253 487.132 145.253 486.387C145.253 485.642 145.706 485.189 146.449 485.189C157.861 485.189 160.706 473.887 163.228 463.946C163.68 462.003 164.133 460.222 164.715 458.603C168.885 445.228 172.15 434.089 174.672 422.787C174.833 422.043 174.963 421.298 175.254 420.423C175.836 417.898 176.482 415.339 176.709 412.846C176.935 410.352 176.741 407.956 175.739 405.722C174.963 402.16 171.73 400.217 169.144 398.274C167.204 396.978 166.234 394.388 167.527 392.445C171.083 396.331 175.286 399.893 177.808 404.847C178.972 407.438 179.198 410.19 178.972 412.943C178.745 415.696 178.066 418.448 177.484 421.039C177.323 421.783 177.032 422.528 176.903 423.403C174.381 434.704 171.116 446.006 166.945 459.38C166.493 460.999 166.04 462.812 165.458 464.593C162.775 474.956 159.671 487.585 146.449 487.585Z" fill="#E5E5E5"/>
<path d="M414.904 359.317C409.893 358.961 380.183 357.925 352.478 357.148C350.603 357.083 348.76 357.051 346.885 356.986C333.695 356.468 320.763 356.468 307.509 355.82C305.569 355.82 306.216 352.906 307.832 352.906C321.733 352.906 335.635 353.553 349.633 353.942C353.157 354.039 356.745 354.136 360.301 354.233C385.291 354.978 410.313 355.917 414.904 356.338C415.648 356.338 416.391 357.083 416.229 357.957C416.391 358.735 415.648 359.317 414.904 359.317Z" fill="#E5E5E5"/>
<path d="M297.972 208.771C296.194 208.771 294.254 207.864 292.638 206.407C292.056 205.824 292.056 204.917 292.638 204.334C293.22 203.751 294.125 203.751 294.707 204.334C296.485 206.115 298.133 206.407 299.912 205.241C306.604 201.226 314.007 177.748 302.142 138.792C301.851 138.047 302.304 137.173 303.177 137.011C303.92 136.719 304.793 137.173 304.955 138.047C316.819 177.133 309.836 202.845 301.399 207.896C300.332 208.447 299.136 208.771 297.972 208.771Z" fill="#E5E5E5"/>
<path d="M301.237 220.493C299.75 220.493 298.263 220.202 296.776 219.748C296.032 219.457 295.579 218.712 295.87 217.806C296.161 216.899 296.905 216.607 297.81 216.899C308.478 220.461 315.914 206.795 317.239 204.108C317.53 203.363 318.436 203.071 319.179 203.525C319.923 203.816 320.214 204.723 319.761 205.468C316.076 213.207 309.384 220.493 301.237 220.493Z" fill="#E5E5E5"/>
<path d="M285.203 136.978C284.168 136.978 282.972 136.817 281.938 136.396C279.125 135.359 277.056 133.287 275.86 130.599C274.664 127.62 274.955 124.641 275.407 123.766C276.312 121.985 278.834 122.86 283.877 124.673C285.073 125.126 286.237 125.58 287.595 126.001C288.791 126.454 289.826 126.584 290.86 126.746C292.8 127.037 295.031 127.49 294.869 129.563C294.869 130.761 293.091 133.416 290.408 135.197C288.759 136.363 286.981 136.978 285.203 136.978ZM277.347 124.77C277.185 125.677 277.185 127.879 278.09 129.984C278.996 131.927 280.45 133.254 282.681 134.161C284.75 134.906 286.852 134.744 288.759 133.708C291.119 132.38 292.606 129.854 292.768 129.401C292.606 129.239 291.442 129.109 290.537 128.948C289.502 128.786 288.306 128.494 286.981 128.041C285.655 127.587 284.298 127.134 283.134 126.713C280.903 125.806 278.22 124.932 277.347 124.77Z" fill="#E5E5E5"/>
</g>
<defs>
<clipPath id="clip0">
<rect width="459" height="520" fill="white"/>
</clipPath>
</defs>
</svg>
