<svg width="22" height="22" viewBox="0 0 22 22" fill="none" xmlns="http://www.w3.org/2000/svg">
<path opacity="0.5" d="M10.9999 0.883545C5.41597 0.883545 0.879883 5.41963 0.879883 11.0035C0.879883 16.3295 5.00766 20.6991 10.2342 21.0917C10.2445 21.0926 10.2548 21.0935 10.2651 21.0943C10.5081 21.1118 10.7524 21.1235 10.9999 21.1235C11.2473 21.1235 11.4916 21.1118 11.7346 21.0943C11.745 21.0935 11.7553 21.0926 11.7656 21.0917C16.9921 20.6991 21.1199 16.3295 21.1199 11.0035C21.1199 5.41963 16.5838 0.883545 10.9999 0.883545ZM10.9999 1.76354C16.1082 1.76354 20.2399 5.89522 20.2399 11.0035C20.2399 13.5255 19.23 15.8067 17.5956 17.4729C16.8964 16.9637 16.0322 16.66 15.2581 16.3884C14.3411 16.0672 13.4736 15.7627 13.2334 15.2334C13.1956 14.7815 13.1989 14.4286 13.2025 14.0234L13.2033 13.8515C13.594 13.4797 14.0854 12.695 14.2535 11.9703C14.5439 11.8155 14.8989 11.4442 15.0054 10.555C15.0587 10.1136 14.9331 9.77185 14.7571 9.54261C14.9947 8.72641 15.4674 6.66015 14.6393 5.32651C14.2891 4.76287 13.7606 4.40726 13.0658 4.2669C12.6755 3.78378 11.9391 3.52011 10.9543 3.52011C9.4579 3.54783 8.36087 4.00618 7.69559 4.88222C6.91107 5.91622 6.76283 7.47848 7.25387 9.528C7.07215 9.75724 6.94108 10.104 6.9952 10.5541C7.10212 11.4433 7.45589 11.8146 7.74629 11.9695C7.91437 12.695 8.40529 13.4797 8.79645 13.8515L8.7973 14.0191C8.80082 14.4261 8.80421 14.7797 8.76637 15.2334C8.52525 15.764 7.65359 16.0718 6.73223 16.397C5.96271 16.6687 5.10372 16.9729 4.4059 17.4755C2.77022 15.8091 1.75988 13.5266 1.75988 11.0035C1.75988 5.89522 5.89156 1.76354 10.9999 1.76354Z" fill="#434343"/>
</svg>
