<svg width="40" height="40" viewBox="0 0 40 40" fill="none" xmlns="http://www.w3.org/2000/svg">
<path d="M38.75 12.5C38.7515 11.999 38.6519 11.5029 38.4573 11.0413C38.2626 10.5796 37.9769 10.162 37.6172 9.81333C38.0491 9.33626 38.3705 8.76979 38.5585 8.1543C38.7464 7.53881 38.7963 6.88944 38.7046 6.25246C38.6129 5.61548 38.3818 5.00657 38.0278 4.4691C37.6739 3.93164 37.2057 3.47885 36.6568 3.14301C36.1078 2.80716 35.4915 2.59653 34.8518 2.5261C34.2122 2.45568 33.5648 2.5272 32.9559 2.73557C32.3471 2.94395 31.7916 3.28404 31.3292 3.73163C30.8668 4.17922 30.5088 4.72328 30.2807 5.32505C29.6091 5.02448 28.8638 4.92819 28.1379 5.04817C27.4119 5.16816 26.7373 5.49911 26.1981 5.99979C25.6589 6.50048 25.2789 7.14876 25.1056 7.86386C24.9322 8.57896 24.9731 9.32927 25.2231 10.0213C24.4577 10.1052 23.7365 10.4221 23.157 10.9291C22.5775 11.4362 22.1677 12.1089 21.983 12.8565C21.5428 12.6138 21.0801 12.4142 20.6015 12.2606C21.8451 11.5437 22.5 10.5519 22.5 9.37497C22.5 9.20921 22.4342 9.05024 22.3169 8.93303C22.1997 8.81582 22.0408 8.74997 21.875 8.74997C21.7092 8.74997 21.5503 8.81582 21.4331 8.93303C21.3158 9.05024 21.25 9.20921 21.25 9.37497C21.25 10.7238 19.7023 11.4074 18.75 11.7004V8.12497C18.75 7.95921 18.6842 7.80024 18.5669 7.68303C18.4497 7.56582 18.2908 7.49997 18.125 7.49997C17.9592 7.49997 17.8003 7.56582 17.6831 7.68303C17.5658 7.80024 17.5 7.95921 17.5 8.12497V11.7004C16.5477 11.4074 15 10.7238 15 9.37497C15 9.20921 14.9342 9.05024 14.8169 8.93303C14.6997 8.81582 14.5408 8.74997 14.375 8.74997C14.2092 8.74997 14.0503 8.81582 13.9331 8.93303C13.8158 9.05024 13.75 9.20921 13.75 9.37497C13.75 10.7869 14.6609 11.6926 15.642 12.2586C14.8497 12.5105 14.1038 12.8901 13.4338 13.3823C13.4805 12.6222 13.3269 11.8631 12.9884 11.1808C12.65 10.4986 12.1385 9.91703 11.505 9.49427L13.02 7.22169C13.0344 7.20012 13.0474 7.17768 13.0591 7.1545C13.4227 6.42732 13.4818 5.10458 12.1546 4.44099C11.558 4.14255 10.958 4.12216 10.4291 4.37419C10.1341 3.43474 9.46219 2.49997 8.125 2.49997C6.78781 2.49997 6.11586 3.43474 5.82094 4.37419C5.29195 4.12208 4.69195 4.14263 4.09547 4.44099C2.76828 5.10458 2.82742 6.42732 3.19102 7.1545C3.20265 7.17768 3.21569 7.20012 3.23008 7.22169L4.94609 9.79583C4.81699 9.9052 4.69439 10.022 4.57891 10.1457C4.17012 10.5865 3.85626 11.1066 3.65677 11.6737C3.45728 12.2408 3.37643 12.8429 3.41922 13.4426L3.89586 20H3.125C2.62772 20 2.15081 20.1975 1.79917 20.5492C1.44754 20.9008 1.25 21.3777 1.25 21.875C1.25 22.3723 1.44754 22.8492 1.79917 23.2008C2.15081 23.5524 2.62772 23.75 3.125 23.75H3.22055L4.91086 33.8916C4.50967 34.0571 4.1783 34.3566 3.97326 34.7391C3.76821 35.1215 3.70219 35.5633 3.78644 35.989C3.8707 36.4147 4.10001 36.798 4.43529 37.0736C4.77056 37.3491 5.19103 37.4998 5.625 37.5H34.375C34.809 37.4998 35.2295 37.3491 35.5647 37.0736C35.9 36.7981 36.1294 36.4148 36.2136 35.989C36.2979 35.5633 36.2319 35.1216 36.0268 34.7391C35.8218 34.3566 35.4904 34.0571 35.0892 33.8916L36.7795 23.75H36.875C37.3723 23.75 37.8492 23.5524 38.2008 23.2008C38.5525 22.8492 38.75 22.3723 38.75 21.875C38.75 21.3777 38.5525 20.9008 38.2008 20.5492C37.8492 20.1975 37.3723 20 36.875 20H35.2921C35.757 19.4813 36.0683 18.8434 36.1911 18.1578C36.314 17.4722 36.2437 16.7659 35.9879 16.118C36.7808 15.9003 37.4803 15.4285 37.9793 14.7749C38.4782 14.1214 38.749 13.3222 38.75 12.5ZM18.1231 13.125H18.1266C21.572 13.1258 24.375 15.6488 24.375 18.75C24.3749 19.1715 24.3226 19.5913 24.2193 20H12.9146L13.2943 15.182C14.4877 13.8729 16.2355 13.1255 18.1231 13.125ZM4.29914 6.57193C4.24859 6.44446 4.22136 6.30895 4.21875 6.17185C4.21875 5.98794 4.26828 5.75208 4.65453 5.55896C5.02875 5.37193 5.24047 5.46208 5.38328 5.56154C5.50844 5.65339 5.61322 5.77016 5.69102 5.9045C5.75392 6.03028 5.8574 6.13116 5.98473 6.19085C6.11205 6.25053 6.25579 6.26554 6.3927 6.23343C6.52961 6.20132 6.65169 6.12398 6.73921 6.01391C6.82673 5.90384 6.87457 5.76747 6.875 5.62685C6.88633 5.26606 6.95516 4.90938 7.07891 4.57029C7.36375 3.83497 7.8125 3.74997 8.125 3.74997C8.4375 3.74997 8.88625 3.83497 9.17109 4.57029C9.29462 4.90879 9.36345 5.26482 9.375 5.62497C9.37411 5.76568 9.42079 5.90255 9.50747 6.01339C9.59415 6.12422 9.71574 6.20251 9.85251 6.23555C9.98928 6.26859 10.1332 6.25444 10.2609 6.1954C10.3886 6.13635 10.4927 6.03588 10.5561 5.91029C10.634 5.77348 10.7398 5.65465 10.8667 5.56154C11.0095 5.46193 11.2212 5.37193 11.5955 5.55896C11.9698 5.74599 12.0252 5.96966 12.0308 6.14349C12.0325 6.29019 12.0053 6.4358 11.9508 6.572L10.3663 8.94888C9.94595 8.81746 9.50818 8.7504 9.06781 8.74997H7.78258C7.16979 8.75071 6.56398 8.88011 6.00438 9.12982L4.29914 6.57193ZM5.05828 18.75H7.5C7.66576 18.75 7.82473 18.6841 7.94194 18.5669C8.05915 18.4497 8.125 18.2907 8.125 18.125C8.125 17.9592 8.05915 17.8002 7.94194 17.683C7.82473 17.5658 7.66576 17.5 7.5 17.5H4.96742L4.78562 15H7.5C7.66576 15 7.82473 14.9341 7.94194 14.8169C8.05915 14.6997 8.125 14.5407 8.125 14.375C8.125 14.2092 8.05915 14.0502 7.94194 13.933C7.82473 13.8158 7.66576 13.75 7.5 13.75H4.69477L4.66578 13.3515C4.63464 12.9232 4.69214 12.493 4.83469 12.0878C4.97724 11.6827 5.20178 11.3112 5.49429 10.9967C5.7868 10.6822 6.141 10.4314 6.53478 10.2599C6.92856 10.0884 7.35346 9.99992 7.78297 9.99997H9.0682C9.49927 9.99997 9.92568 10.0891 10.3206 10.2619C10.7156 10.4347 11.0705 10.6873 11.3631 11.0038C11.6557 11.3204 11.8796 11.694 12.0208 12.1013C12.162 12.5086 12.2175 12.9407 12.1836 13.3704L11.6608 20H5.14922L5.05828 18.75ZM30.625 33.75V31.25H34.2622L33.8455 33.75H30.625ZM6.15445 33.75L5.73781 31.25H9.375V33.75H6.15445ZM14.375 27.5V30H5.52945L5.11281 27.5H14.375ZM24.375 27.5V30H15.625V27.5H24.375ZM10.625 31.25H19.375V33.75H10.625V31.25ZM20.625 31.25H29.375V33.75H20.625V31.25ZM34.4705 30H25.625V27.5H34.8872L34.4705 30ZM20.625 26.25V23.75H29.375V26.25H20.625ZM19.375 26.25H10.625V23.75H19.375V26.25ZM9.375 26.25H4.90445L4.48781 23.75H9.375V26.25ZM34.375 36.25H5.625C5.45924 36.25 5.30027 36.1841 5.18306 36.0669C5.06585 35.9497 5 35.7907 5 35.625C5 35.4592 5.06585 35.3002 5.18306 35.183C5.30027 35.0658 5.45924 35 5.625 35H34.375C34.5408 35 34.6997 35.0658 34.8169 35.183C34.9342 35.3002 35 35.4592 35 35.625C35 35.7907 34.9342 35.9497 34.8169 36.0669C34.6997 36.1841 34.5408 36.25 34.375 36.25ZM35.0955 26.25H30.625V23.75H35.5122L35.0955 26.25ZM37.5 21.875C37.4998 22.0407 37.4339 22.1995 37.3167 22.3167C37.1996 22.4339 37.0407 22.4998 36.875 22.5H3.125C2.95924 22.5 2.80027 22.4341 2.68306 22.3169C2.56585 22.1997 2.5 22.0407 2.5 21.875C2.5 21.7092 2.56585 21.5502 2.68306 21.433C2.80027 21.3158 2.95924 21.25 3.125 21.25H36.875C37.0407 21.2502 37.1996 21.3161 37.3167 21.4332C37.4339 21.5504 37.4998 21.7093 37.5 21.875ZM36.3245 10.3801C36.7848 10.6678 37.1389 11.0974 37.3334 11.6042C37.5279 12.1109 37.5522 12.6672 37.4026 13.189C37.253 13.7107 36.9377 14.1696 36.5042 14.4964C36.0708 14.8231 35.5428 14.9998 35 15C34.8839 14.9999 34.77 15.0322 34.6712 15.0933C34.5724 15.1543 34.4926 15.2417 34.4406 15.3456C34.3887 15.4494 34.3668 15.5657 34.3773 15.6814C34.3877 15.7971 34.4302 15.9075 34.5 16.0004C34.7785 16.3718 34.948 16.8134 34.9896 17.2758C35.0313 17.7381 34.9434 18.2029 34.7357 18.6181C34.5281 19.0333 34.209 19.3825 33.8141 19.6266C33.4192 19.8706 32.9642 19.9999 32.5 20H25.6023L27.4205 17.5H30C30.1658 17.5 30.3247 17.4341 30.4419 17.3169C30.5592 17.1997 30.625 17.0407 30.625 16.875C30.625 16.7092 30.5592 16.5502 30.4419 16.433C30.3247 16.3158 30.1658 16.25 30 16.25H28.3296L30.1477 13.75H32.5C32.6658 13.75 32.8247 13.6841 32.9419 13.5669C33.0592 13.4497 33.125 13.2907 33.125 13.125C33.125 12.9592 33.0592 12.8002 32.9419 12.683C32.8247 12.5658 32.6658 12.5 32.5 12.5H31.0569L34.8805 7.24255C34.9768 7.10844 35.0162 6.94164 34.99 6.77859C34.9637 6.61554 34.8741 6.4695 34.7405 6.37237C34.6069 6.27525 34.4404 6.23493 34.2772 6.26023C34.114 6.28553 33.9674 6.37439 33.8695 6.5074L31.1562 10.2384L30.554 9.08591C30.4772 8.93899 30.3453 8.82856 30.1871 8.77894C30.0289 8.72932 29.8575 8.74455 29.7106 8.8213C29.5637 8.89805 29.4533 9.03002 29.4037 9.18818C29.354 9.34634 29.3693 9.51774 29.446 9.66466L30.3353 11.3672L28.1816 14.3281L27.4331 12.8437C27.3965 12.7698 27.3457 12.7039 27.2835 12.6497C27.2214 12.5956 27.1491 12.5543 27.0709 12.5281C26.9927 12.502 26.9101 12.4917 26.8278 12.4976C26.7456 12.5036 26.6654 12.5257 26.5917 12.5628C26.5181 12.6 26.4525 12.6513 26.3988 12.7138C26.3451 12.7764 26.3043 12.8489 26.2788 12.9273C26.2532 13.0057 26.2434 13.0884 26.25 13.1706C26.2565 13.2528 26.2792 13.3329 26.3169 13.4062L27.3548 15.4651L25.5703 17.9191C25.3466 16.2245 24.4477 14.7179 23.1282 13.6328C23.1451 13.2682 23.2418 12.9117 23.4113 12.5884C23.5808 12.2651 23.819 11.9829 24.1093 11.7616C24.3996 11.5403 24.7348 11.3853 25.0915 11.3075C25.4481 11.2296 25.8174 11.2308 26.1735 11.3111C26.2999 11.3393 26.4319 11.3277 26.5513 11.2777C26.6707 11.2277 26.7717 11.1419 26.8402 11.0321C26.9088 10.9223 26.9415 10.7939 26.934 10.6646C26.9264 10.5354 26.8789 10.4117 26.798 10.3106C26.4415 9.86874 26.248 9.31767 26.25 8.74997C26.2507 8.08716 26.5144 7.45171 26.9831 6.98303C27.4517 6.51435 28.0872 6.25072 28.75 6.24997C29.3071 6.24822 29.8486 6.43462 30.2866 6.77896C30.3723 6.84604 30.4741 6.88956 30.5819 6.9052C30.6896 6.92084 30.7996 6.90806 30.9009 6.86812C31.0022 6.82819 31.0913 6.76249 31.1594 6.67752C31.2274 6.59256 31.2722 6.49128 31.2891 6.38372C31.3692 5.87958 31.5716 5.40274 31.8786 4.9949C32.1856 4.58705 32.5878 4.26062 33.0501 4.04414C33.5124 3.82765 34.0207 3.72772 34.5305 3.75307C35.0403 3.77841 35.5362 3.92827 35.9747 4.18953C36.4133 4.4508 36.7812 4.81552 37.0462 5.2518C37.3112 5.68808 37.4653 6.18265 37.495 6.69225C37.5248 7.20185 37.4292 7.71098 37.2167 8.17511C37.0042 8.63925 36.6812 9.04426 36.276 9.35474C36.196 9.41617 36.1321 9.49605 36.0897 9.58754C36.0473 9.67904 36.0276 9.77944 36.0324 9.88018C36.0372 9.98092 36.0664 10.079 36.1173 10.166C36.1682 10.2531 36.2395 10.3265 36.3249 10.3801H36.3245Z" fill="#9D9D9D"/>
</svg>
